<svg xmlns="http://www.w3.org/2000/svg" viewBox="0 0 466.29 512.23"><g fill="#3a3027"><path d="M205.45 512.23c-58.9 0-117.73-19.75-165.58-59.2l-8.07-6.66 9.96 3.15c82.65 26.02 172.02 9.09 239.09-45.36 53.24-43.21 86.44-104.57 93.53-172.76s-12.81-135.06-56-188.29a258.7 258.7 0 0 0-36.19-36.45L274.12 0l9.96 3.15c48.81 15.37 91.64 44.49 123.88 84.2 43.9 54.07 64.11 121.99 56.91 191.27-7.2 69.27-40.94 131.58-95.01 175.48-47.76 38.77-106.1 58.13-164.41 58.13M50.62 456.36c93.37 70.78 224.87 69.1 316.66-5.4 53.24-43.21 86.44-104.57 93.53-172.76s-12.81-135.06-56-188.28c-29.55-36.39-68.13-63.74-112.07-79.56a264 264 0 0 1 28.79 30.2c90.62 111.62 73.53 276.15-38.1 366.76-65.44 53.1-151.71 71.18-232.8 49.05Z"/><path d="M440.53 329.36a2.584 2.584 0 1 1-1.092 5.052 2.584 2.584 0 0 1 1.092-5.052m2.29-141.98a2.584 2.584 0 0 1-1.09 5.05 2.584 2.584 0 0 1 1.09-5.05m-5.28 155.85a2.584 2.584 0 0 1-1.09 5.05 2.584 2.584 0 0 1 1.09-5.05m-78.58 110.02a2.584 2.584 0 0 1-1.09 5.05 2.584 2.584 0 0 1 1.09-5.05m5.91-15.22a2.584 2.584 0 0 1-1.09 5.05 2.584 2.584 0 0 1 1.09-5.05m30.06-37.49a2.584 2.584 0 0 1-1.09 5.05 2.584 2.584 0 0 1 1.09-5.05m20.95-30.3a2.584 2.584 0 0 1-1.09 5.05 2.584 2.584 0 0 1 1.09-5.05m-.49 14.55a2.584 2.584 0 0 1-1.09 5.05 2.584 2.584 0 0 1 1.09-5.05m30.65-68.77a2.584 2.584 0 0 1-1.09 5.05 2.584 2.584 0 0 1 1.09-5.05m6.58-18.29a2.584 2.584 0 0 1-1.09 5.05 2.584 2.584 0 0 1 1.09-5.05m6.07-15.93a2.584 2.584 0 0 1-1.09 5.05 2.584 2.584 0 0 1 1.09-5.05m1.01-16.94a2.584 2.584 0 0 1-1.09 5.05 2.584 2.584 0 0 1 1.09-5.05m-3.49-20.55a2.584 2.584 0 0 1-1.09 5.05 2.584 2.584 0 0 1 1.09-5.05m-4.04-18.03a2.584 2.584 0 0 1-1.09 5.05 2.584 2.584 0 0 1 1.09-5.05m-11.92-20.18a2.584 2.584 0 0 1-1.09 5.05 2.584 2.584 0 0 1 1.09-5.05m9.44 68.48a2.584 2.584 0 0 1-1.09 5.05 2.584 2.584 0 0 1 1.09-5.05m-6.67 30.94a2.584 2.584 0 0 1-1.09 5.05 2.584 2.584 0 0 1 1.09-5.05M303.01 440.19a2.584 2.584 0 0 1-1.09 5.05 2.584 2.584 0 0 1 1.09-5.05m128.05-103.64a2.584 2.584 0 0 1-1.09 5.05 2.584 2.584 0 0 1 1.09-5.05m-.47 14.42a2.584 2.584 0 0 1-1.09 5.05 2.584 2.584 0 0 1 1.09-5.05"/><path d="M367.68 435.08c.99 1.02.97 2.66-.05 3.65s-2.66.97-3.65-.05-.97-2.66.05-3.65 2.66-.97 3.65.05m10.44-36.19c.99 1.02.97 2.66-.05 3.65s-2.66.97-3.65-.05-.97-2.66.05-3.65 2.66-.97 3.65.05m-20.62 46.08c.99 1.02.97 2.66-.05 3.65s-2.66.97-3.65-.05-.97-2.66.05-3.65 2.66-.97 3.65.05m-6.4-26.71c.99 1.02.97 2.66-.05 3.65s-2.66.97-3.65-.05-.97-2.66.05-3.65 2.66-.97 3.65.05m-99.62 76.43c.99 1.02.97 2.66-.05 3.65s-2.66.97-3.65-.05-.97-2.66.05-3.65 2.66-.97 3.65.05m10.14 2.18c.99 1.02.97 2.66-.05 3.65s-2.66.97-3.65-.05-.97-2.66.05-3.65 2.66-.97 3.65.05m28.64-27.84c.99 1.02.97 2.66-.05 3.65s-2.66.97-3.65-.05-.97-2.66.05-3.65 2.66-.97 3.65.05m-51.91 25.52c.99 1.02.97 2.66-.05 3.65s-2.66.97-3.65-.05-.97-2.66.05-3.65 2.66-.97 3.65.05m45.53-8.14c.99 1.02.97 2.66-.05 3.65s-2.66.97-3.65-.05-.97-2.66.05-3.65 2.66-.97 3.65.05m48.57-10.93c.99 1.02.97 2.66-.05 3.65s-2.66.97-3.65-.05-.97-2.66.05-3.65 2.66-.97 3.65.05m-25.75 10.56c.99 1.02.97 2.66-.05 3.65s-2.66.97-3.65-.05-.97-2.66.05-3.65 2.66-.97 3.65.05m17.8-30.6c.99 1.02.97 2.66-.05 3.65s-2.66.97-3.65-.05-.97-2.66.05-3.65 2.66-.97 3.65.05m-35.03 29.53c.99 1.02.97 2.66-.05 3.65s-2.66.97-3.65-.05-.97-2.66.05-3.65 2.66-.97 3.65.05m26.55-17.7c.99 1.02.97 2.66-.05 3.65s-2.66.97-3.65-.05-.97-2.66.05-3.65 2.66-.97 3.65.05m28.23-4.94c.99 1.02.97 2.66-.05 3.65s-2.66.97-3.65-.05-.97-2.66.05-3.65 2.66-.97 3.65.05m35.41-35.28c.99 1.02.97 2.66-.05 3.65s-2.66.97-3.65-.05-.97-2.66.05-3.65 2.66-.97 3.65.05m-144.61 72.02c.99 1.02.97 2.66-.05 3.65s-2.66.97-3.65-.05-.97-2.66.05-3.65 2.66-.97 3.65.05m-25.16 8.26c.99 1.02.97 2.66-.05 3.65s-2.66.97-3.65-.05-.97-2.66.05-3.65 2.66-.97 3.65.05m185.39-91.85c.99 1.02.97 2.66-.05 3.65s-2.66.97-3.65-.05-.97-2.66.05-3.65 2.66-.97 3.65.05m13.89-9.9c.99 1.02.97 2.66-.05 3.65s-2.66.97-3.65-.05-.97-2.66.05-3.65 2.66-.97 3.65.05m10.24-13.53c.99 1.02.97 2.66-.05 3.65s-2.66.97-3.65-.05-.97-2.66.05-3.65 2.66-.97 3.65.05m19.32-226.44c.99 1.02.97 2.66-.05 3.65s-2.66.97-3.65-.05-.97-2.66.05-3.65 2.66-.97 3.65.05m-10.83 207.4c.99 1.02.97 2.66-.05 3.65s-2.66.97-3.65-.05-.97-2.66.05-3.65 2.66-.97 3.65.05m6.64-17.24c.99 1.02.97 2.66-.05 3.65s-2.66.97-3.65-.05-.97-2.66.05-3.65 2.66-.97 3.65.05m-7.01-2.82c.99 1.02.97 2.66-.05 3.65s-2.66.97-3.65-.05-.97-2.66.05-3.65 2.66-.97 3.65.05m-21.85 41.63c.99 1.02.97 2.66-.05 3.65s-2.66.97-3.65-.05-.97-2.66.05-3.65 2.66-.97 3.65.05M161.19 504.76c.99 1.02.97 2.66-.05 3.65s-2.66.97-3.65-.05-.97-2.66.05-3.65 2.66-.97 3.65.05m19.61 1.58c.99 1.02.97 2.66-.05 3.65s-2.66.97-3.65-.05-.97-2.66.05-3.65 2.66-.97 3.65.05m202.18-89.71c.99 1.02.97 2.66-.05 3.65s-2.66.97-3.65-.05-.97-2.66.05-3.65 2.66-.97 3.65.05m25.51-84.49c.99 1.02.97 2.66-.05 3.65s-2.66.97-3.65-.05-.97-2.66.05-3.65 2.66-.97 3.65.05m-52.68 103.68c.99 1.02.97 2.66-.05 3.65s-2.66.97-3.65-.05-.97-2.66.05-3.65 2.66-.97 3.65.05m-8.38 11.74c.99 1.02.97 2.66-.05 3.65s-2.66.97-3.65-.05-.97-2.66.05-3.65 2.66-.97 3.65.05"/></g><path fill="#3a3027" d="M228.91 260.05v-1.57H127.25c-.06-.93-.21-1.82-.45-2.68l62.43-21.7-.51-1.48-62.38 21.69c-.55-1.31-1.34-2.48-2.27-3.53l71.89-71.89-1.11-1.11-71.88 71.88c-.68-.6-1.42-1.12-2.22-1.57l28.79-59.49-1.41-.69-28.78 59.45c-1.28-.52-2.66-.81-4.11-.9V144.8h-1.57v101.66c-.93.06-1.82.21-2.68.45l-21.7-62.42-1.48.51 21.69 62.38c-1.31.55-2.48 1.34-3.53 2.27l-71.88-71.88-1.11 1.11 71.88 71.89c-.6.68-1.12 1.42-1.57 2.22L43.8 224.2l-.69 1.41 59.45 28.77c-.52 1.28-.81 2.67-.89 4.11H0v1.57h101.66c.06.92.21 1.81.45 2.68l-62.42 21.7.51 1.48 62.38-21.69c.55 1.31 1.34 2.49 2.27 3.54l-71.89 71.88 1.11 1.11 71.88-71.89c.68.6 1.42 1.12 2.21 1.57l-28.79 59.49 1.41.69 28.78-59.45c1.28.52 2.66.81 4.11.89v101.66h1.57V272.06c.92-.06 1.81-.21 2.68-.45l21.7 62.42 1.48-.51-21.69-62.37c1.31-.55 2.49-1.34 3.54-2.27l71.89 71.89 1.11-1.11-71.89-71.89c.6-.68 1.12-1.42 1.57-2.21l59.49 28.8.69-1.41-59.45-28.78c.52-1.28.81-2.66.9-4.11h101.66Z"/></svg>