<svg xmlns="http://www.w3.org/2000/svg" viewBox="0 0 805.36 128.17"><path fill="#dbc8b4" d="M125.36 14.99h6.79l17.04 59.77 14.26-59.77h6.98v.83c-1.46-.03-1.95.83-1.46 2.59l16.89 63.62c.36 1.4 1.32 2.12 2.88 2.15v.83h-9.38v-.78c1.59-.13 2.23-.78 1.9-1.95l-16.8-63.53-15.92 66.26h-1.07l-18.31-63.82-15.72 61.04q-.39 1.47 1.71 1.95v.83h-6.59v-.83c1.73-.07 2.77-.81 3.12-2.25l16.31-63.33c.46-1.73-.42-2.67-2.64-2.83v-.78Zm78.03 68.93h19.65c2.46 0 4.25-1.04 5.37-3.11l.31.17-1.33 4.03h-28.88v-.58c1.09-.3 1.64-1 1.64-2.12V37.77q0-1.23-1.5-1.2v-.58h26.8l1.33 3.86-.27.17c-1-2.07-3.29-3.11-6.87-3.11h-15.31c-.62 0-.92.31-.92.92V55.5h15.04c1.3 0 1.99-.77 2.08-2.32h.31v5.43h-.31c-.14-1.55-.83-2.32-2.08-2.32h-15.04v27.62ZM251.79 36c11.26 0 16.86 8.2 16.82 24.61 0 8.82-1.98 15.09-5.93 18.82s-8.32 5.59-13.11 5.59h-14.01v-.55c1.09-.3 1.64-1 1.64-2.12V37.78q0-1.23-1.5-1.2V36h16.1Zm-11.45 48.43h5.5c13.03.07 19.53-7.92 19.48-23.96 0-15.79-4.72-23.75-14.15-23.89h-10.83zM275.65 36h6.25v.58c-1.07-.02-1.62.38-1.64 1.2v44.57c0 1.16.57 1.86 1.71 2.08v.58h-6.46v-.55c1.09-.3 1.64-1 1.64-2.12V37.77q0-1.23-1.5-1.2v-.58Zm51.3 37.53h.31v7.28c-4.63 3.21-9.49 4.82-14.59 4.82-11.74.18-19.14-4.84-22.22-15.07-1.09-3.51-1.64-6.77-1.64-9.78 0-10 3.98-17.49 11.93-22.46 2.6-1.64 6.41-2.47 11.45-2.5 5.33 0 10.2 1.61 14.59 4.82v7.28h-.31c-.52-7.7-5.79-11.53-15.79-11.48-6.56 0-11.67 3.42-15.31 10.25-2.1 3.69-3.14 8.49-3.14 14.39 0 7.72 2.44 14.13 7.31 19.21 2.92 3.1 6.78 4.65 11.59 4.65 10.03-.05 15.3-3.85 15.83-11.42ZM334.23 36h6.25v.58c-1.07-.02-1.62.38-1.64 1.2v44.57c0 1.16.57 1.86 1.71 2.08v.58h-6.46v-.55c1.09-.3 1.64-1 1.64-2.12V37.77q0-1.23-1.5-1.2v-.58Zm17.78 0 27.55 42.62V37.95c0-.77-.55-1.23-1.64-1.37V36h4.61v.58c-1.21.11-1.81.57-1.81 1.37v47.07h-1.03l-28.88-44.67v42.14c0 1.18.55 1.83 1.64 1.95v.58h-4.61v-.58c1.18-.14 1.78-.81 1.78-2.02V38.88c0-1.46-.74-2.22-2.22-2.29v-.58h4.61Zm42.24 47.92h19.65c2.46 0 4.25-1.04 5.37-3.11l.31.17-1.33 4.03h-28.88v-.58c1.09-.3 1.64-1 1.64-2.12V37.77q0-1.23-1.5-1.2v-.58h26.8l1.33 3.86-.27.17c-1-2.07-3.29-3.11-6.87-3.11h-15.31c-.62 0-.92.31-.92.92V55.5h15.04c1.3 0 1.99-.77 2.08-2.32h.31v5.43h-.31c-.14-1.55-.83-2.32-2.08-2.32h-15.04v27.62Zm54.43-70.05c6.09 0 11.93 2.29 17.53 6.88v10.6h-1.17v-.44c.26-7.58-2.7-12.53-8.89-14.84q-3.465-1.32-8.1-1.32c-5.44 0-9.24 1.43-11.4 4.3-2.17 2.86-3.25 6.01-3.25 9.42 0 7.03 5.31 12.35 15.92 15.97 16.21 5.57 24.36 13.02 24.46 22.36 0 7.06-3.4 12.45-10.21 16.16-4.07 2.21-8.74 3.32-14.01 3.32-8.24-.03-15.95-3.06-23.14-9.08V63.67h1.51v.68q-.78 16.695 14.4 19.92c2.8.59 5.34.88 7.62.88 6.02-.03 10.69-1.68 14.01-4.93s5.03-7.67 5.13-13.23c0-8.37-7.02-15.3-21.04-20.8-12.3-4.88-18.47-10.86-18.51-17.92q0-6.54 5.76-10.47t13.38-3.93m58.82 72.37c-6.63 0-12.28-2.51-16.95-7.52s-7.01-11.06-7.01-18.15 2.33-13.14 7.01-18.15c4.67-5.01 10.32-7.52 16.95-7.52s12.25 2.51 16.92 7.52 7.01 11.06 7.01 18.15-2.34 13.14-7.01 18.15-10.31 7.52-16.92 7.52m.14-1.02c5.56 0 10.31-2.41 14.24-7.23s5.9-10.63 5.9-17.45-1.96-12.63-5.9-17.45c-3.93-4.82-8.68-7.23-14.24-7.23s-10.34 2.41-14.27 7.23-5.9 10.64-5.9 17.45 1.97 12.63 5.9 17.45 8.69 7.23 14.27 7.23M542.88 36l27.55 42.62V37.95c0-.77-.55-1.23-1.64-1.37V36h4.61v.58c-1.21.11-1.81.57-1.81 1.37v47.07h-1.03l-28.88-44.67v42.14c0 1.18.55 1.83 1.64 1.95v.58h-4.61v-.58c1.18-.14 1.78-.81 1.78-2.02V38.88c0-1.46-.74-2.22-2.22-2.29v-.58h4.61Zm58.96-.17h1.78c5.22 0 10.08 1.61 14.59 4.82v7.11h-1.09c.23-5.04-2.19-8.49-7.25-10.36-1.78-.64-3.76-.96-5.95-.96h-1.95c-5.49 0-10.21 2.79-14.15 8.37-2.78 3.94-4.17 9.06-4.17 15.35 0 8.68 2.53 15.5 7.59 20.44 3.1 2.89 6.97 4.34 11.62 4.34h.14c5.4 0 9.72-1.39 12.95-4.17V61.83c0-.77-.55-1.17-1.64-1.2v-.75h6.56v.75c-1.09 0-1.64.41-1.64 1.23v15.48q0 4.035-3.42 5.43c-4.24 1.85-8.51 2.77-12.82 2.77h-.44c-7.93 0-14.13-3.51-18.59-10.53-2.48-4.15-3.73-8.94-3.73-14.39v-.17c0-9.52 3.73-16.76 11.18-21.7 2.96-1.96 6.44-2.94 10.42-2.94Zm41.46-.62c4.26 0 8.35 1.61 12.27 4.82v7.42h-.82v-.31c.18-5.31-1.89-8.77-6.22-10.39-1.62-.62-3.51-.92-5.67-.92-3.81 0-6.47 1-7.98 3.01s-2.27 4.2-2.27 6.6c0 4.92 3.71 8.65 11.14 11.18 11.35 3.9 17.06 9.11 17.12 15.65 0 4.94-2.38 8.72-7.14 11.31-2.85 1.55-6.12 2.32-9.81 2.32q-8.655-.03-16.2-6.36v-9.47h1.06v.48c-.37 7.79 3 12.44 10.08 13.95 1.96.41 3.74.62 5.33.62 4.21-.02 7.49-1.17 9.81-3.45s3.52-5.37 3.59-9.26c0-5.86-4.91-10.71-14.73-14.56-8.61-3.42-12.93-7.6-12.95-12.54 0-3.05 1.34-5.5 4.03-7.33s5.81-2.75 9.37-2.75Zm27.58 49.95q-1.32 0-2.25-.93t-.93-2.25c0-1.32.31-1.63.93-2.25q.93-.93 2.25-.93c1.32 0 1.63.31 2.25.93q.93.93.93 2.25c0 1.32-.31 1.63-.93 2.25q-.93.93-2.25.93M688.43 36l27.55 42.62V37.95c0-.77-.55-1.23-1.64-1.37V36h4.61v.58c-1.21.11-1.81.57-1.81 1.37v47.07h-1.03l-28.88-44.67v42.14c0 1.18.55 1.83 1.64 1.95v.58h-4.61v-.58c1.18-.14 1.78-.81 1.78-2.02V38.88c0-1.46-.74-2.22-2.22-2.29v-.58h4.61Zm42.25 47.92h19.65c2.46 0 4.25-1.04 5.37-3.11l.31.17-1.33 4.03H725.8v-.58c1.09-.3 1.64-1 1.64-2.12V37.77q0-1.23-1.5-1.2v-.58h26.8l1.33 3.86-.27.17c-1-2.07-3.29-3.11-6.87-3.11h-15.31c-.62 0-.92.31-.92.92V55.5h15.04c1.3 0 1.99-.77 2.08-2.32h.31v5.43h-.31c-.14-1.55-.83-2.32-2.08-2.32H730.7v27.62Zm46.11-47h-14.18q-1.74 0-3.66 2.94h-.65l1.37-3.86h37.5l1.37 3.86h-.79c-.89-1.96-2.06-2.94-3.52-2.94h-14.32v45.42c0 1.16.57 1.86 1.71 2.08V85h-6.46v-.58c1.09-.3 1.64-1 1.64-2.12V36.91ZM44.17.18c-2.33.26-4.09.53-5.41.83-.88.2-2.33.56-2.54.62-.12.04-.46.14-.76.22-1.74.5-3.73 1.2-4.85 1.71-.21.1-.4.18-.42.18-.13 0-3.46 1.63-4.41 2.17-1.05.59-2.73 1.6-2.91 1.75-.08.07-.33.23-.54.36-.61.37-2.82 2-3.88 2.87-1.35 1.1-2 1.7-3.56 3.26-1.36 1.36-1.78 1.8-2.44 2.58-.18.21-.43.5-.55.65-.34.39-1.7 2.11-1.96 2.48-.13.18-.43.61-.69.97-.8 1.12-2.19 3.32-2.76 4.36-.11.2-.32.57-.46.83-.72 1.28-2.25 4.6-2.77 6-.4 1.07-.99 2.77-1.12 3.22-.08.26-.24.81-.36 1.23C1.12 38.72.61 41.3.26 44.13c-.34 2.69-.34 7.57 0 10.4.31 2.6.41 3.19.94 5.36.15.64.35 1.39.44 1.67 1.03 3.26 1.96 5.18 3.31 6.86 1.09 1.35 3.31 3.36 5.03 4.54 1.19.82 1.96 1.34 2 1.34.02 0 .17.09.34.21.29.19 2.53 1.47 3.09 1.76.62.32 2.91 1.41 3.31 1.57.24.1.57.24.73.31.3.14 1.21.53 1.6.69a583 583 0 0 1 3.81 1.58c1.78.75 4.81 2.25 5.97 2.96.19.12.37.21.38.21.04 0 .33.18 1.71 1.08.86.56 1.1.73 2.18 1.54 2.03 1.53 2.86 2.24 4.32 3.74L40.44 91l.84-.67c1.34-1.06 1.89-1.51 2.24-1.83.18-.16.44-.38.58-.49l.25-.19-.44-.43c-2.82-2.76-6.44-5.24-10.24-7.02-.49-.23-.9-.41-.93-.41s-.24-.09-.5-.21c-.25-.12-.68-.3-.97-.41-.28-.11-.6-.24-.73-.29-.12-.05-.4-.16-.64-.25s-.58-.22-.79-.29c-.43-.16-1.06-.38-3.87-1.32-1.08-.36-2.06-.7-2.18-.75s-.41-.17-.65-.25a6 6 0 0 1-.56-.23.5.5 0 0 0-.2-.07c-.08 0-.53-.2-2.29-1.02-1.27-.59-3.43-1.9-4.76-2.88-1.81-1.34-3.65-3.15-4.9-4.82-.53-.7-1.26-1.77-1.26-1.84 0-.02-.13-.25-.29-.51-.32-.53-1.31-2.55-1.31-2.69 0-.02-.06-.17-.14-.34-.43-.97-1.08-3.03-1.38-4.36-.19-.83-.22-.98-.29-1.32-.04-.2-.11-.62-.15-.94s-.11-.78-.15-1.02c-.25-1.66-.34-6.21-.15-7.99.21-2.03.3-2.73.44-3.52.03-.18.1-.54.14-.8.17-.93.23-1.25.51-2.43.18-.77.2-.85.58-2.18.45-1.6 1.09-3.47 1.56-4.57.05-.12.12-.3.15-.4s.12-.33.2-.51.18-.42.23-.54c.78-1.84 2.15-4.5 3.42-6.61.57-.96 2.32-3.62 2.93-4.46.44-.61 2.31-2.96 2.87-3.6 1.51-1.75 3.77-4 5.38-5.37 3.16-2.69 6.64-4.95 10.53-6.86.96-.47 1.86-.9 2-.97.14-.06.44-.19.65-.29.55-.25 2.54-.99 3.59-1.34 1.36-.46 2.33-.73 3.96-1.13 1.21-.3 1.37-.33 1.55-.33.09 0 .21-.03.27-.07.13-.09-.57-.08-1.38 0Zm15.5-.01s.12.07.2.07.38.05.67.11.67.14.87.18c1.79.33 5.68 1.63 8.13 2.72 1.29.57 4.28 2.14 5.45 2.85 3.62 2.22 6.72 4.67 9.77 7.71 2.4 2.4 3.94 4.23 6.21 7.37 1.75 2.43 3.94 6.21 5.2 9 .18.4.42.92.53 1.16.94 2.07 2.34 6.25 2.78 8.31.08.38.2.92.26 1.2.27 1.29.53 3.05.71 4.9.14 1.44.11 5.88-.04 7.26-.13 1.14-.45 3.14-.67 4.14-.75 3.51-2.3 7.13-4.12 9.62-1.33 1.82-3.28 3.78-5.06 5.09-1.86 1.37-4.09 2.67-6.03 3.5-.54.23-2.89 1.14-3.12 1.2-.1.03-.25.08-.33.12s-.57.2-1.09.37c-2.66.85-4.46 1.47-5.88 2.03-.6.23-1.3.51-1.56.61-1.64.64-4.46 2.02-5.88 2.88-1.5.91-3.27 2.13-4.32 2.96-2.87 2.29-4.09 3.41-8.71 8.03-1.4 1.4-3.41 3.38-4.47 4.41-1.06 1.02-1.9 1.88-1.87 1.92.21.21 6.69.37 8.6.21.44-.04.46-.05.63-.34.1-.17.25-.39.33-.49s.42-.57.77-1.05c.99-1.39 2.7-3.57 3.16-4.03.02-.02.28-.31.58-.65 1.19-1.36 3.64-3.82 4.95-4.98.77-.68 3.04-2.39 4.35-3.28.88-.6 2.71-1.69 3.7-2.22.76-.4 3.39-1.72 3.44-1.72.02 0 .3-.13.64-.29.65-.31 2.66-1.17 2.72-1.17.02 0 .22-.08.45-.17.23-.1.69-.29 1.03-.43 1.46-.6 2.82-1.17 3.09-1.29.16-.07.54-.23.83-.36.99-.43 3.57-1.72 4.79-2.4 3.56-1.99 7.08-4.77 8.85-7 .92-1.15 1.39-1.95 2.14-3.62.45-.99 1.38-3.99 1.64-5.3.56-2.8.55-2.74.73-4.01.57-4.19.57-7.78 0-12.2-.04-.32-.11-.78-.15-1.02s-.09-.55-.11-.69-.07-.38-.1-.54-.1-.49-.15-.73c-.2-1.05-.6-2.69-.88-3.63-.42-1.42-.66-2.18-.72-2.32-.03-.08-.11-.29-.17-.47-.12-.39-.57-1.54-.82-2.12-.1-.23-.17-.43-.17-.46 0-.06-.05-.17-.69-1.6-.09-.2-.25-.57-.37-.83-.2-.45-1.11-2.27-1.45-2.87-1.01-1.81-2.22-3.75-3.18-5.08-.68-.94-1.38-1.89-1.43-1.93-.02-.02-.09-.1-.15-.19-.06-.08-.23-.3-.37-.47s-.47-.57-.72-.86c-2-2.42-5.87-6.14-8.1-7.76-.24-.18-.45-.34-.47-.36-.14-.17-3.7-2.55-3.82-2.55-.02 0-.17-.09-.34-.21-.74-.5-3.63-2.03-4.92-2.61-.41-.18-2.15-.88-2.4-.96-.1-.03-.56-.19-1.02-.36-1.75-.64-4.5-1.36-6.61-1.75-.26-.05-.62-.11-.8-.15-.4-.08-2.37-.33-3.4-.43-.96-.1-1.63-.1-1.58 0Z"/><path fill="#f5bb38" d="M51.07 7.06c-1.19.17-1.77.32-2.77.74-1.6.66-3.1 1.79-4.22 3.19-1.06 1.32-1.71 2.74-2.09 4.57-.23 1.1-.23 3.19 0 4.25.47 2.24 1.32 3.8 2.95 5.45 1.5 1.51 3.21 2.42 5.4 2.87.64.13 1 .16 2.11.16s1.46-.03 2.22-.19c3.28-.71 6.04-2.83 7.45-5.73.55-1.13.72-1.64.92-2.72.29-1.54.23-3.32-.17-4.79-.28-1.03-.9-2.39-1.49-3.27-.35-.52-1.42-1.78-1.51-1.78-.03 0-.21-.14-.41-.33-.5-.45-1.41-1.05-2.11-1.4-.79-.39-1.54-.65-2.72-.93-.54-.13-2.92-.2-3.56-.1Zm-14.88.89s.08.24.17.5c.4 1.11.9 1.54 1.97 1.73.6.1 1.05.15 1.05.1 0-.02-.06-.12-.13-.23s-.18-.34-.23-.52c-.21-.68-.65-1.17-1.18-1.31-.16-.04-.52-.11-.78-.14s-.57-.08-.68-.11-.2-.04-.2-.02Zm32.16.07c-.14.03-.51.1-.82.15-.83.13-1.19.42-1.47 1.21-.07.19-.17.46-.23.61s-.1.29-.08.3c.06.06 1.34-.19 1.71-.33.47-.17.7-.44 1.02-1.15.13-.3.27-.6.31-.66.12-.21.02-.24-.43-.13Zm-35.2 8.75c-.26.06-.7.21-.98.35-.6.29-1.49.91-1.49 1.04 0 .1 1.34.76 1.85.9.22.06.69.1 1.2.1 1.1 0 1.66-.19 2.89-.98.91-.58.89-.56.63-.62-.23-.05-.31-.08-.83-.31-.8-.35-1.83-.6-2.43-.59-.2 0-.57.05-.83.11Zm37.12-.03c-.2.04-.76.22-1.23.4-.48.18-.96.35-1.07.37-.11.03-.21.08-.21.12 0 .09 1.1.84 1.66 1.12 1.33.66 2.77.58 4.55-.27.3-.14.56-.28.56-.3 0-.09-1.43-.98-1.84-1.15-.86-.35-1.62-.44-2.4-.29Zm-4.9 7.98c0 .06.03.13.07.17s.22.38.41.76c.55 1.09 1.03 1.45 1.93 1.45.17 0 .43.03.59.08.33.09.56.04.43-.09-.05-.05-.09-.14-.09-.2s-.13-.38-.29-.7c-.2-.42-.39-.69-.65-.92-.41-.37-.51-.4-1.42-.49-.36-.03-.73-.08-.82-.11-.12-.04-.16-.02-.16.05m-26.83.06c-.56.05-1.16.3-1.5.62-.23.21-.49.72-.63 1.2a2.7 2.7 0 0 1-.16.45c-.09.18.03.22.35.13.15-.04.38-.08.52-.08s.45-.05.7-.12c.61-.15.85-.39 1.28-1.28.19-.38.37-.72.42-.74.05-.03.08-.09.08-.15 0-.12-.15-.12-1.06-.04Z"/><path fill="#82a99c" d="M29.44 28.91s-.05.47-.11.99c-.13 1.14-.14 1.79-.03 2.96.07.83.42 2.79.58 3.28.04.12.18.57.31 1.02 1.19 3.89 3.66 6.95 6.87 8.51 1.18.57 2.37.94 4.43 1.36.5.1 1.21.27 1.59.36.38.1.7.17.71.15.01-.01-.2-.25-.47-.53-.68-.7-1.51-1.87-2.26-3.23-.45-.81-.55-.98-.95-1.58-.51-.77-.58-.85-1.22-1.52-.29-.3-.53-.58-.53-.61s.14.04.31.16.44.29.6.38c.93.51 2.56 1.94 3.51 3.08.3.36.57.67.59.69.39.33 3.61 4.89 4.14 5.86.21.37.32.3.22-.13-.04-.18-.08-1.17-.08-2.21 0-2.85-.18-5.15-.52-6.46-.42-1.66-.8-2.61-1.52-3.79-1.24-2.04-3.59-3.82-6.19-4.7-1.2-.4-2.01-.59-4.37-.99-1.42-.24-2.27-.5-3.3-1-.58-.28-.79-.43-1.31-.95-.34-.34-.68-.74-.74-.89-.11-.24-.26-.37-.27-.22Zm7.04 6.62c3.59.95 5.27 1.81 6.96 3.55 1.35 1.4 2 2.61 2.62 4.97.17.64.18.7.08.7-.04 0-.07-.04-.07-.1 0-.12-.53-1.13-.82-1.57-.57-.85-1.74-2.2-2.44-2.83-.29-.26-.57-.51-.61-.55-.47-.44-2.41-1.85-2.54-1.85-.02 0-.24-.13-.49-.28-.41-.25-1.42-.8-2.58-1.43-1.29-.69-1.97-1.08-1.97-1.12 0-.03.29.04.64.15s.91.27 1.25.36Zm38.8-6.42c-.06.14-.4.55-.74.9-.5.5-.76.7-1.21.93-.96.47-1.89.75-3.27.96-.49.07-1.88.33-2.32.43-.16.04-.4.09-.54.12-.69.14-2.29.66-2.98.96-1.76.78-3.63 2.35-4.71 3.98-1.12 1.68-1.75 3.48-2.03 5.9-.15 1.23-.32 7.21-.21 7.21.03 0 .11-.12.18-.27s.61-.99 1.2-1.88c1.39-2.08 2.48-3.54 3.54-4.75.26-.3.54-.62.62-.71.2-.25 1.36-1.23 2-1.69.69-.51 1.78-1.22 1.86-1.22.03 0-.14.2-.38.46-1.1 1.14-1.51 1.73-2.67 3.86-.49.89-1.29 2.01-1.88 2.64-.54.57-.66.77-.35.61.14-.07.73-.22 2.41-.6 3.74-.84 5.84-1.91 7.67-3.88 1.33-1.44 2.19-2.84 3.01-4.9.4-1.01.81-2.51 1.01-3.76.04-.25.11-.65.16-.91.1-.57.1-3.25 0-3.68-.04-.18-.08-.47-.08-.64 0-.38-.11-.4-.26-.04ZM70.17 35s-.29.2-.64.38-1.34.73-2.2 1.22-1.71.98-1.89 1.09c-1.36.78-3.55 2.64-4.58 3.89-.81.99-1.43 1.88-1.78 2.59-.38.75-.5.73-.25-.03.08-.25.23-.73.34-1.07.53-1.76 1.4-3.2 2.62-4.36.59-.56 1.62-1.32 2.35-1.73.62-.35 1.95-.85 3.08-1.17.56-.16 1.15-.32 1.31-.37.52-.15 1.23-.37 1.38-.43.19-.08.25-.08.25-.02Zm18.44-5.11s.28.5.63 1.07c.55.92 1.64 3.01 2.04 3.91 1.59 3.59 2.28 6.07 2.59 9.26.18 1.86.13 4.94-.11 6.24-.04.2-.1.57-.15.83-.47 2.71-1.72 5.66-3.33 7.84-.8 1.09-1.41 1.74-2.91 3.1-1.49 1.35-4.28 3.3-6.47 4.5-.54.3-1.2.66-1.63.89-.2.11-.43.23-.51.28-.2.11-3.15 1.54-3.19 1.54-.02 0-.34.14-.71.32s-.84.39-1.04.48-.54.25-.76.34c-.22.1-.68.31-1.02.46-2.12.94-6.71 3.36-7.99 4.22-.23.15-.43.28-.46.28-.05 0-3.45 2.27-3.81 2.54-.14.11-.66.5-1.16.87-.98.73-3.72 2.9-3.85 3.05-.02.02-.3.27-.62.54s-.81.71-1.09.98c-.65.61-1.27 1.18-1.78 1.63-.22.2-.71.65-1.09 1.02s-.89.84-1.13 1.06-.72.67-1.09 1.02c-.92.88-1.44 1.35-2.07 1.89-.3.26-.69.6-.87.76-.97.88-2.63 2.24-4.33 3.56-.97.76-3.7 2.57-3.87 2.57-.03 0-.11.06-.19.14-.07.08-.24.19-.37.26-.25.12-.32.24-.15.28.51.14 1.37.4 1.9.56 1.03.32 3.6.91 4.75 1.08.37.06.5.05.62-.03.25-.16 1.71-1.34 2.23-1.81.25-.23.53-.47.62-.54l.87-.78c2.26-2.07 2.67-2.46 5.65-5.39 3.46-3.4 5.61-5.37 7.29-6.66 1.06-.82 1.19-.92 1.27-.98.18-.15 1.21-.85 1.93-1.33 2.98-1.95 6-3.44 9.87-4.88.78-.29 2.9-1.02 4.72-1.63 3.31-1.11 5.17-1.77 5.99-2.14 1.84-.83 2.31-1.06 3.41-1.73 1.09-.66 2.6-1.77 3.68-2.73.44-.39 2.19-2.33 2.14-2.38-.02-.02-.18.08-.35.23-.74.67-2.68 1.75-4.28 2.39-.81.32-2.51.89-3.38 1.11-.16.04-.42.11-.58.15s-.6.15-.98.23c-.38.09-.89.21-1.13.27s-.52.12-.62.14c-.28.05-.7.15-1.4.32-.6.15-.93.15-.55 0 .81-.31 2.09-.84 2.53-1.05 3.17-1.47 4.56-2.25 6.62-3.7 1.18-.83 2.64-2.23 3.81-3.65.77-.94 2.13-3.27 2.6-4.47.07-.18.17-.42.23-.54.44-.98.98-3.19 1.18-4.9.26-2.17.08-5.43-.42-7.51-.04-.16-.12-.5-.18-.76-.14-.58-.33-1.28-.58-2.14-.23-.79-1.24-3.35-1.72-4.37-.2-.41-.35-.76-.35-.78 0-.11-1.65-2.95-2.03-3.49-.14-.2-.5-.72-.8-1.16-.84-1.23-2.11-2.85-2.11-2.7Z"/><path fill="#82a99c" d="M16.03 30.25c-.3.33-1.18 1.5-1.18 1.57 0 .04-.02.08-.06.09-.03.01-.17.19-.3.39-.75 1.1-1.39 2.08-1.62 2.47-.26.43-.37.64-1.02 1.85-.36.67-1.33 2.83-1.62 3.62-.68 1.82-1.03 2.94-1.38 4.41-.06.24-.13.55-.17.69-.1.37-.34 1.95-.44 2.83-.05.49-.07 1.47-.05 2.76.03 1.75.06 2.13.23 3.05.54 2.94 1.42 5.21 2.89 7.4 1.57 2.34 3.39 4.11 6.14 5.95.49.33.9.59.91.59s.36.19.75.41c1.84 1.05 5.16 2.57 6.04 2.77.15.03.23.16.1.16-.04 0-.47-.1-.97-.21-.49-.12-1.06-.25-1.26-.29-.61-.13-.92-.2-1.42-.33-.26-.07-.55-.14-.65-.16-.17-.03-.71-.18-1.49-.4-.75-.21-2.68-.87-3.22-1.11-1.5-.64-3.04-1.5-3.72-2.06-.73-.61-.7-.59-.55-.34.08.12.46.58.85 1.02 2.23 2.53 5.31 4.57 9.19 6.12 1.56.62 2.35.9 5.72 2.04 2.88.97 5.04 1.8 6.72 2.55 1 .45 3.45 1.72 4.21 2.19.26.16.54.32.62.37.08.04.31.2.5.33s.46.32.59.4c1.21.75 3.69 2.72 4.92 3.91l.86.84.33-.3c.54-.49 2.04-1.88 2.38-2.21.17-.17.35-.31.38-.31.15 0 .06-.16-.31-.57-.21-.23-.64-.71-.96-1.07-1.12-1.24-2.24-2.33-3.93-3.78-1.53-1.32-4.31-3.18-7.11-4.76-.98-.55-4.66-2.42-5.63-2.85-1.89-.85-6.27-3.05-6.77-3.39-.1-.07-.21-.13-.23-.13s-.31-.17-.64-.37c-.33-.21-.72-.44-.86-.52-.83-.47-3.31-2.22-4.36-3.06-.87-.7-1.07-.89-2.06-1.88-2.43-2.45-3.97-5.29-4.82-8.9-.39-1.64-.52-2.91-.52-5.05 0-2.26.17-3.94.57-5.74.04-.16.1-.46.14-.68.54-2.65 2.54-7.41 4.19-9.98.31-.49.34-.64.05-.33Z"/><path fill="#82a99c" d="M48.97 35.72s.11.28.25.54c.72 1.36 1.24 3.06 1.54 5.06.15 1.02.15 4.01 0 5.83-.22 2.59-.28 4.78-.28 9.29 0 4.87.03 4.67-.34 3.52-.93-2.94-2.75-5.88-4.63-7.45-.65-.55-.71-.59-1.39-1.02-.55-.34-1.46-.81-2.38-1.22-.5-.22-1.94-.61-2.69-.73-.28-.04-.6-.1-.73-.12-.12-.02-1.13-.06-2.25-.1-2.63-.08-3.71-.28-4.9-.88-.91-.46-1.92-1.42-2.23-2.12-.07-.15-.16-.26-.2-.25s-.12.4-.17.85c-.42 3.94 1.5 8.78 4.91 12.36 1.93 2.02 4.69 3.42 7.66 3.89 3.84.61 4.39.75 5.48 1.4.67.4.92.61 1.16.94.22.31.33.28.22-.05-.04-.12-.17-.54-.3-.94-.42-1.32-1.16-2.68-2.09-3.83-1.58-1.95-3.44-3.25-6.18-4.33-.54-.21-1.05-.41-1.13-.45-.08-.03-.6-.24-1.16-.46-.94-.37-1.97-.84-2.58-1.19-.62-.36-1.26-.77-1.4-.9l-.16-.15.22.09c.12.05.4.17.62.27.61.27 1.34.48 2.72.78.82.18 1.31.28 1.82.4 1.93.44 2.16.51 2.76.77.12.05.31.13.44.18l.22.08-.22-.23c-.18-.2-1.1-.89-1.48-1.12-.06-.04-.3-.19-.52-.34-.63-.41-1.88-1.08-2.79-1.48-.61-.27-.38-.29.73-.06 1.61.33 2.01.44 2.94.82 1.05.42 2.49 1.25 3.26 1.87 2.72 2.21 4.59 4.96 5.71 8.37.76 2.33 1.07 4.75.9 7.16-.08 1.15-.08 1.22.05 1.36.15.17.98 1.15 1.22 1.44.74.9 3.04 4.22 3.18 4.59.02.07.08.12.12.12s.54-.37 1.11-.82c1.06-.84 1.51-1.17 3.35-2.41 1.02-.69 3.37-2.16 4.1-2.56.18-.1.44-.25.58-.34s.54-.31.91-.51c.36-.19.83-.45 1.05-.58s.74-.4 1.16-.62c.42-.21.88-.45 1.02-.53 1.03-.58 2.71-1.43 8.26-4.18 1.71-.85 3.27-1.74 4.66-2.67 2.13-1.42 4.12-3.39 5.44-5.39 1.09-1.65 2.09-3.94 2.47-5.67.4-1.78.46-2.33.46-4.14 0-1.7-.02-2.03-.33-3.81-.26-1.55-.75-3.27-1.26-4.43-.05-.12-.16-.38-.24-.58-.32-.81-1.52-3.09-1.63-3.09-.03 0-.06-.05-.06-.11s-.04-.11-.08-.11c-.05 0-.06.05-.03.13.19.47.52 1.79.82 3.25.51 2.48.58 5.36.19 7.88-.54 3.5-1.98 6.86-3.95 9.18-2.03 2.4-3.49 3.38-9.48 6.39-6.2 3.12-8.21 4.29-11.36 6.64-2.38 1.78-3.82 3.05-5.97 5.29-.32.33-.59.59-.61.57s-.13-.45-.25-.97-.25-1.05-.29-1.19c-.07-.27-.16-.72-.31-1.56-.12-.69-.12-3.76 0-4.43.05-.28.13-.7.17-.94.21-1.12.66-2.66 1.04-3.56.42-.99.59-1.36.78-1.71.12-.22.3-.55.4-.73.47-.85 1.55-2.31 2.5-3.35.43-.47 1.67-1.52 2.31-1.95 1.01-.68 2.27-1.31 3.23-1.61.9-.28 3.29-.82 3.35-.76.02.02-.09.09-.25.16-.89.42-2.06 1-2.35 1.17-.59.35-2.33 1.57-2.74 1.92-.31.26-.23.31.15.1.39-.22 1.81-.65 2.99-.9.51-.11 2.13-.48 2.87-.66.78-.19 1.84-.55 2.16-.73.26-.15.38-.17.38-.08 0 .05-.9.67-.97.67-.02 0-.24.13-.49.28-.66.4-1.87.97-2.71 1.28-.4.15-.82.31-.94.36s-.49.2-.83.33c-.72.28-2.03.91-2.65 1.28-.45.27-1.72 1.1-1.78 1.18-.02.02-.26.24-.54.48-1.28 1.11-2.66 3.01-3.28 4.5-.21.51-.39 1.09-.4 1.24 0 .08-.03.17-.06.21-.09.09-.18.62-.11.62.03 0 .12-.09.2-.22.33-.51 1.51-1.2 2.64-1.55.77-.24 1.34-.36 2.56-.55 2.61-.4 3.87-.75 5.48-1.53 2.59-1.25 4.81-3.49 6.57-6.65.23-.41.51-.97.62-1.24s.25-.59.3-.71c.18-.38.66-1.95.75-2.43.05-.26.12-.61.16-.78.19-.83.14-3.75-.06-3.95-.05-.05-.12.04-.22.25-.24.53-.9 1.24-1.55 1.67-1.38.91-3.14 1.29-5.96 1.3-1.23 0-2.97.22-3.9.48-2.93.84-5.28 2.43-7.06 4.8-1.18 1.57-2.17 3.64-2.79 5.86-.1.36-.2.7-.23.76-.17.43-.17-7.37 0-9.89.12-1.74.12-5.26 0-6.01-.22-1.4-.54-2.77-.74-3.14a.5.5 0 0 1-.07-.2c0-.25-1.37-2.8-1.7-3.17-.04-.05-.28-.33-.52-.63-.5-.62-2.43-2.58-2.43-2.47Z"/><path fill="#82a99c" d="M18.37 36.96c-.52.97-.8 1.51-1.09 2.16-.25.56-.85 2.32-1.05 3.09-.72 2.74-.95 5.96-.59 8.17.04.24.09.57.12.73.3 1.96 1.33 4.55 2.52 6.35 1.92 2.9 4 4.79 7.46 6.77 1.07.61 1.66.93 5.77 3.03.96.49 2 1.03 2.32 1.2 1.53.81 2.05 1.08 2.25 1.2.12.07.79.43 1.49.81 1.2.65 1.62.9 3.27 1.91 1.79 1.1 4.11 2.79 6.16 4.51.81.68 2.81 2.74 3.75 3.86.28.33.54.6.6.6s.13-.06.17-.14.17-.2.29-.27.23-.17.25-.23c.13-.33-2.59-4.68-3.75-6-.1-.12-.48-.56-.84-.98-1.53-1.8-3.42-3.55-5.54-5.13a48 48 0 0 0-5.45-3.49c-.18-.1-.42-.24-.54-.31-.34-.2-2.28-1.2-3.41-1.76l-1.16-.58c-.08-.04-1.01-.52-2.07-1.06-2.28-1.16-2.68-1.39-4.34-2.5-1.26-.84-3.1-2.72-3.83-3.89-.04-.06-.19-.3-.34-.53-.7-1.08-1.68-3.27-2.03-4.56-.04-.14-.1-.36-.14-.49-.28-.97-.43-1.76-.61-3.21-.19-1.51-.11-4.94.15-6.53.21-1.26.51-2.55.76-3.27.08-.23.14-.43.14-.46 0-.19-.18.08-.69 1.02Zm80.79 35.58c-1.07.95-1.43 1.26-2.21 1.88-1.27 1.02-3.05 2.25-3.99 2.77-.22.12-.7.39-1.07.59s-.83.45-1.02.54-.44.22-.56.28c-.6.32-2.91 1.36-3.67 1.67-.3.12-.64.26-.76.31-.45.19-1.83.76-2.21.91-.22.09-.5.2-.62.25s-.86.36-1.63.69-1.51.64-1.63.7c-.78.36-3.85 1.88-4.21 2.08-.24.14-.6.34-.8.45-2.14 1.2-4.87 3.15-6.46 4.61-1.23 1.13-3.14 3.06-4 4.03a49 49 0 0 0-3.37 4.35c-.3.44-.57.83-.61.89-.04.05-.05.11-.03.14.04.04.86-.09 2.47-.4 2.07-.39 4.23-.95 6.58-1.72 1.46-.47 1.71-.58 1.81-.74.19-.32.63-.98.67-1.02.02-.02.12-.15.22-.29.32-.46 1.26-1.63 1.82-2.25.66-.73 2.2-2.26 2.72-2.68 1.89-1.55 2.75-2.18 4.06-2.97.79-.48 3.4-1.81 4.18-2.14.18-.08.78-.36 1.34-.63s1.04-.49 1.07-.48-.27.28-.68.6-.98.79-1.29 1.04c-.3.25-.62.51-.7.57s-.36.3-.62.53-.67.56-.91.76c-.24.19-.5.4-.58.47s-.33.27-.54.45c-1.82 1.47-4.09 3.63-5.91 5.63-.67.73-.82 1.03-.35.7.11-.08.68-.38 1.26-.68 4.05-2.06 7.72-4.54 11.11-7.5 2.75-2.4 5.49-5.47 7.78-8.72.77-1.09 1.66-2.42 1.66-2.48 0-.02.06-.13.14-.24s.21-.31.29-.46.22-.4.31-.55c.31-.54.71-1.27.71-1.3 0-.02.1-.17.22-.36.24-.36.25-.47.02-.26Zm-93.39-.01s.21.38.46.81.7 1.18.99 1.68c1.2 2.05 3.32 5.04 4.62 6.54.19.22.51.6.71.83 1.44 1.69 4.57 4.68 6.31 6.03.15.12.37.29.47.37.61.49 2.11 1.57 3.14 2.26 2.25 1.5 3.8 2.41 5.62 3.31.32.16.65.32.73.36s.35.19.61.32.48.23.5.21c.05-.05-2-2.25-2.77-2.97-.47-.45-2.59-2.34-3.03-2.7-.1-.08-.36-.29-.57-.47-.22-.18-.42-.34-.44-.37-.02-.02-.15-.12-.29-.21a1.7 1.7 0 0 1-.29-.22 9 9 0 0 0-.36-.29c-.18-.14-.34-.26-.36-.28a68 68 0 0 0-1.38-1.11c-.24-.19-.91-.74-.94-.78-.02-.02-.38-.32-.8-.65s-.8-.65-.86-.7a.9.9 0 0 0-.22-.16c-.07-.03-.1-.09-.08-.11s.27.08.54.23c.49.27 1.75.89 1.81.89.04 0 1.88.88 2.61 1.25.68.34 1.27.66 1.66.91.15.09.29.17.3.17.03 0 1.26.82 1.92 1.28 1.95 1.35 4.41 3.77 6.39 6.29.32.41.53.51.7.35.04-.04.44-.27.91-.53.91-.51 2.49-1.5 3.28-2.06.27-.19.54-.36.6-.37s.11-.06.11-.11c0-.18-2.5-2.57-3.67-3.51-.87-.7-2.26-1.73-2.72-2.02-.06-.04-.44-.28-.85-.55-.97-.63-.92-.59-1.81-1.11-.8-.47-2.85-1.52-3.75-1.93-.78-.35-1.45-.66-1.76-.81-.16-.08-.32-.14-.35-.14s-.2-.06-.37-.14-.6-.26-.96-.41-.86-.36-1.13-.47c-.26-.11-.91-.38-1.45-.6s-1.2-.5-1.47-.62-.51-.23-.53-.23c-.13 0-3.77-1.79-4.68-2.3-1.21-.68-1.29-.73-2.1-1.26-1.97-1.29-3.37-2.37-4.6-3.58-.33-.33-.41-.38-.41-.3Z"/></svg>