<svg xmlns="http://www.w3.org/2000/svg" viewBox="0 0 200.46 228.56">
  <title>Artboard 3</title>
  <g>
    <path d="M-38.86-42.44H241.7v288H-38.86Zm194,97.26c1.4-.83,1.46-1,.43-2a3.61,3.61,0,0,1-1.27-3.2c.09-1,.18-1.91.18-2.87a1.13,1.13,0,0,0-.5-.83c-.17-.09-.62.11-.81.31a19.65,19.65,0,0,0-1.31,1.56c-1.31,1.65-1.39,1.64-3,.36-3.64-2.93-6.92-6.31-11.13-8.51-1.93-1-1.9-1.08-.56-2.88a1.81,1.81,0,0,0,.42-.71.87.87,0,0,0-.22-.73.85.85,0,0,0-.73,0,2.3,2.3,0,0,0-.61.56c-1.72,1.88-1.71,1.88-3.95.61l-.42-.23c-11.23-5.57-23-8.68-35.64-7.69a73.52,73.52,0,0,0-22.81,5.17,71.68,71.68,0,0,0-17.43,9.75c-5,4-9.82,8.33-13.54,13.68-.67.95-1.38,1.86-2.08,2.79a43.05,43.05,0,0,0-6,10.19c-1.09,2.75-2.11,5.53-3.13,8.3-.33.89-.75,1.14-1.72.75a8.2,8.2,0,0,0-3-.61c-2.09,0-2.93,1-2.94,3,0,.56,0,1.12,0,1.68a1.7,1.7,0,0,0,1.32,1.9,12.11,12.11,0,0,0,2.81.38c1.13,0,1.51.51,1.35,1.57-.14.91-.25,1.82-.33,2.74-.29,3-.55,6-.83,8.95-.1,1,.35,1.47,1.39,1.4,1.48-.09,2.95-.16,4.43-.18,3.92,0,7.84,0,11.76,0,1,0,1.47-.32,1.47-1.38A17.32,17.32,0,0,1,47,95.22a3.61,3.61,0,0,1,1-1.91,6.24,6.24,0,0,0,2.05-3.82c.45-2.95.44-2.93,3.28-1.73,1.37.57,2.47,1.36,2.68,2.93a6,6,0,0,1-.25,1.57c-.57-.53-.85-.8-1.14-1.08a1.47,1.47,0,0,0-2-.26,1.79,1.79,0,0,0-.92,2,2.71,2.71,0,0,0,4.4,1.38,4.33,4.33,0,0,0,0-6.38A16.1,16.1,0,0,0,52,85.61c-2.09-.81-2.69-1.7-1.89-3.81a51.14,51.14,0,0,1,7.74-14.4c.65-.79,1.09-1,1.91-.26a15.42,15.42,0,0,0,2.8,2c1.43.79,2.09.42,2.58-1.11a3.61,3.61,0,0,0-.52-3.51c-.41-.54-.71-1.16-1.09-1.73a.94.94,0,0,1,.25-1.44c.82-.64,1.6-1.33,2.42-2,2.56-2,2.87-1.87,4.17,1.1a22.31,22.31,0,0,0,2,3,8.46,8.46,0,0,1,.69-1.19c2.5-2.92,5-5.81,7.5-8.74a3.11,3.11,0,0,0,.83-1.55c.08-1,.65-1.37,1.48-1.6,3.28-.88,6.54-1.87,9.85-2.63a41.25,41.25,0,0,1,5.46-.59c1.17-.1,1.69.53,1.68,1.66a17.28,17.28,0,0,0,0,2.39,4.6,4.6,0,0,0,.67,1.3c.35-.43.91-.82,1-1.31a12.74,12.74,0,0,0,0-2.62c0-1.09.32-1.51,1.39-1.38a44.83,44.83,0,0,1,6,.87A76.78,76.78,0,0,1,131,57.59a12.44,12.44,0,0,1,2,1.54c6.25,6.05,12.35,12.22,15.47,20.61.8,2.17,1.55,4.36,2.29,6.55a1.45,1.45,0,0,1-1.13,2.09,17.09,17.09,0,0,0-2,.77c-.61.26-1,.68-.74,1.4s.89.5,1.43.29c.71-.28,1.39-.62,2.12-.83a1.11,1.11,0,0,1,1,.16c.8.87.47,2.71-.43,3.52a2.88,2.88,0,0,0-1,1.64,5.08,5.08,0,0,0,5.61,5.41c2.58-.23,5.18-.36,7.77-.45,2-.07,4,0,6,0,1.43,0,1.8-.41,1.72-1.82-.1-1.79-.27-3.58-.47-5.37-.31-2.77-.54-5.55-1.07-8.29s-1.35-5.26-2.06-7.88c-.51-1.92-.52-1.91,1.18-2.8,1.49-.78,3-1.55,4.44-2.39,1-.59,1-1.21.09-1.93-.25-.2-.57-.32-.79-.53-2.52-2.39-5.09-4.72-7.48-7.22-1.06-1.1-1.8-1.42-2.8-.27-.83,1-1.35.68-2-.14-1.46-2-2.95-3.89-4.42-5.84C155.48,55.49,155.32,55.18,155.1,54.82Zm-46,76.47c.44.46.76.74,1,1.07.71.92,1.45,1.82,2.08,2.78,3,4.59,7.49,7,12.67,8.19a6,6,0,0,0,6-1.43,3.87,3.87,0,0,1,3-1.09c2.43-.09,4.76-.53,6.57-2.42a2,2,0,0,1,1.5-.53c3.86.39,7-1.3,10-3.42a8.84,8.84,0,0,1,3.51-1.55c4.11-.88,7.94-2.25,10.06-6.36a3.24,3.24,0,0,1,1.41-1.15c1.42-.73,3-1.25,4.3-2.1,2.36-1.48,4.56-3.22,5.49-6a5.44,5.44,0,0,1,2.58-3.12,15.43,15.43,0,0,0,5.62-5.47c1.36-2.35,2.6-4.77,3.84-7.19a4.78,4.78,0,0,0,.19-1.44,8.46,8.46,0,0,0-1.43.31c-2.91,1.1-5.74,2.45-8.71,3.32a79.59,79.59,0,0,1-15.56,2.71c-4.14.37-8.27,1-12.41,1.16-6,.25-12,.27-18,.29-4.19,0-8.39-.3-12.58-.15a15.77,15.77,0,0,1-6.08-.9,6.79,6.79,0,0,1-4.89-6.18c0-.56,0-1.12-.08-1.68a14.77,14.77,0,0,0-2.45-7.55c-2.15-2.92-5-5.34-6.35-8.82a1.39,1.39,0,0,0-1-.65c-.24,0-.57.45-.76.75-.7,1.11-1.26,2.33-2.06,3.36-1.42,1.83-3,3.54-4.48,5.31a11.52,11.52,0,0,0-2.74,6.17c-.15,1.14-.07,2.31-.12,3.47a5.73,5.73,0,0,1-1.75,4.32,9.29,9.29,0,0,1-4.64,2.34,82.25,82.25,0,0,1-22.2,1.11q-12.4-1.08-24.78-2.6c-6.62-.82-13.24-1.79-19.44-4.52-1.28-.57-2.57-1.11-3.89-1.57a1.81,1.81,0,0,0-1.41,0c-.24.16-.27.89-.16,1.3,1.19,4.31,3,8.27,6.61,11.14a1.51,1.51,0,0,1,.53,1.24,2.24,2.24,0,0,0,.62,2.3l4.45,4.7c1.63,1.73,3.3,3.37,5.67,4.1.38.11.63.7.92,1.1a9,9,0,0,0,1.63,2.24,48.85,48.85,0,0,0,5.64,3.41,11.42,11.42,0,0,0,3.41,1c1.22.2,2.38.28,2.86,1.69a1.45,1.45,0,0,0,.7.8,69.68,69.68,0,0,0,6.56,2.78c1.57.52,3.49.14,4.47,2a1.41,1.41,0,0,0,.57.43c2.19,1.29,4.43,2.19,7.06,1.37a2,2,0,0,1,1.63.36,6.94,6.94,0,0,0,7.47,1.37,23.66,23.66,0,0,0,9.56-7c1.46-1.7,2.76-3.52,4.13-5.29l.89-1.08c.3.67.54,1.1.7,1.57q1.65,4.68,3.27,9.38a2.88,2.88,0,0,1,.22,1.4,29,29,0,0,1-1.24,5.44c-1.09,2.78-2.52,5.43-3.78,8.15a34.18,34.18,0,0,0-2,4.5c-.8,2.71-.62,5.45,1.51,7.48,1.29,1.24,1.67,2.72,2.27,4.22a46.67,46.67,0,0,0,2.67,5.73c.86,1.52,1.55,1.62,3.08.79.84-.45,1.26-.2,1.76.5a20.66,20.66,0,0,0,2.58,3.13c1.93,1.78,4.12,1.51,5.67-.61.75-1,1.37-2.16,2-3.25.38-.64.72-.93,1.51-.44,1.53,1,2.7.48,3.14-1.3.53-2.12.88-4.29,1.39-6.42.11-.44.58-1.06.94-1.1a2,2,0,0,0,1.91-1.84,10.89,10.89,0,0,0-.78-7.24c-2.75-5.28-5.68-10.47-6.78-16.45a7.86,7.86,0,0,1,.16-4.11c.77-2.35,1.41-4.75,2.11-7.12C108.72,132.13,108.85,131.82,109.05,131.29Zm17.52-36.58.05.36a62.49,62.49,0,0,0,7.25-1.31,19.06,19.06,0,0,0,4.81-2.56c.9-.59.75-1.26-.25-1.67A28.43,28.43,0,0,0,134,87.87a24.84,24.84,0,0,0-17.31,2.26c-1.25.61-1.3,1.39-.18,2.22a4.82,4.82,0,0,0,1,.51A17.4,17.4,0,0,0,126.57,94.71ZM72.51,88.23A22.2,22.2,0,0,0,63,89.78,11.6,11.6,0,0,0,61,91a9.57,9.57,0,0,0,1.9,1.67,17.54,17.54,0,0,0,10.22,1.67c3.09-.45,6.18-.83,8.89-2.55a1.61,1.61,0,0,0,.73-1c0-.21-.48-.55-.8-.74C79.09,88.37,76,88,72.51,88.23Zm35.09-6c.08.18.18.8.49.94a1.71,1.71,0,0,0,1.32-.26c6.09-3.63,11-8.33,13.54-15.15A5.41,5.41,0,0,0,123,66.2a4.92,4.92,0,0,0-1.57,0,20.63,20.63,0,0,0-9.9,7A18.13,18.13,0,0,0,107.6,82.24ZM102.71,66a21.86,21.86,0,0,0-1.91-8.53c-.18-.46-.69-1.07-1.08-1.09s-1,.5-1.24.92a14.67,14.67,0,0,0-2.6,8,25.86,25.86,0,0,0,2.44,11.74,6.91,6.91,0,0,0,1.08,1.3c.39-.45,1-.84,1.15-1.36A44.86,44.86,0,0,0,102.71,66ZM90.19,81.39a6.44,6.44,0,0,0-.41-1c-1.07-1.83-2.19-3.63-3.22-5.47-2.42-4.3-6.18-6.9-10.7-8.56a2.12,2.12,0,0,0-1.22,0c-.13,0-.22.59-.14.85,1.33,4,2.81,7.94,6.31,10.65,2.46,1.91,5,3.8,8.14,4.38C89.65,82.43,90.16,82.41,90.19,81.39Zm12.52,115.09v-.6a19.06,19.06,0,0,0-2.1-8.64c-.18-.4-.64-1-.9-1s-.78.54-1.13.88a1.53,1.53,0,0,0-.3.51,22.85,22.85,0,0,0-2.3,13,31.16,31.16,0,0,0,2,6.59,2.12,2.12,0,0,0,1.57,1.11c.43,0,1-.74,1.28-1.28A28.48,28.48,0,0,0,102.71,196.48ZM80.24,197.8v1.32a1.93,1.93,0,0,0,0,.24c.07,1.11.51,1.36,1.43.77a3.69,3.69,0,0,0,.95-.9c1-1.3,2-2.59,2.89-4a33.28,33.28,0,0,0,5.14-12.15c.06-.37.06-1-.11-1.08a1.48,1.48,0,0,0-1.22,0,14.57,14.57,0,0,0-3.43,2.35A21.44,21.44,0,0,0,80.24,197.8Zm38.24.66c0-.29,0-.41-.06-.53-1.24-6.5-4.07-12.08-9.5-16.1a4.51,4.51,0,0,0-1.25-.44,4.08,4.08,0,0,0-.21,1.35c.32,1.49.72,2.95,1.12,4.42a21.56,21.56,0,0,0,8.32,11.55,2.14,2.14,0,0,0,1.18.37C118.23,199.08,118.39,198.6,118.48,198.46ZM39.49,22c-.15.53-.39.91-.31,1.2a2.6,2.6,0,0,0,.71.93q4.89,5.1,9.8,10.19a2.25,2.25,0,0,0,.63.53c.22.1.66.16.73,0A1.09,1.09,0,0,0,51.2,34a2.08,2.08,0,0,0-.56-.75q-5-5.24-10-10.45A12.1,12.1,0,0,0,39.49,22ZM13.66,91.39v.23a27.65,27.65,0,0,0,2.88,0A7.09,7.09,0,0,0,18.2,91a5.19,5.19,0,0,0-1.58-.6Q9.39,90.11,2.14,90c-.39,0-.79.47-1.18.73.36.23.72.65,1.08.66C5.91,91.41,9.79,91.39,13.66,91.39ZM99.08,8.16H99c0,3.11,0,6.23,0,9.34,0,.45.56.88.85,1.32a4.55,4.55,0,0,0,.47-1.37c0-3.55,0-7.1-.16-10.64,0-1.64-.26-3.27-.47-4.89,0-.25-.44-.46-.67-.69a2.6,2.6,0,0,0-.49.73,3.09,3.09,0,0,0,0,1C98.75,4.67,98.92,6.41,99.08,8.16ZM62.42,27.6c-.39-.64-.62-1.06-.88-1.45-2.69-4-5.37-8-8.1-12-.22-.32-.9-.68-1.18-.56-.68.29-.46.88-.09,1.39q4.26,6.07,8.53,12.16c.18.25.38.59.64.67S62,27.7,62.42,27.6Zm50.34-9.79.73,1.2c.3-.41.61-.81.88-1.23.08-.12,0-.32.06-.47.47-3.08.92-6.15,1.41-9.22.26-1.57.61-3.13.84-4.7,0-.3-.28-.65-.43-1a4.24,4.24,0,0,0-.8.72,2,2,0,0,0-.16.8c-.33,2.05-.61,4.1-1,6.14C113.84,12.59,113.31,15.08,112.76,17.81Zm-71,25.05a13.47,13.47,0,0,0-1.22-1.25C38.25,39.77,36,38,33.71,36.13c-1.58-1.29-3.09-2.66-4.67-3.94-.26-.22-.75-.16-1.13-.22.06.43,0,1,.2,1.27a10,10,0,0,0,1.6,1.26c1.09.86,2.19,1.72,3.27,2.6,2.38,1.94,4.75,3.9,7.14,5.84a1.13,1.13,0,0,0,.62.32C41,43.26,41.23,43.07,41.72,42.86Zm-22.1-.23c-.22.18-.61.4-.58.5a2,2,0,0,0,.56,1c3.94,2.56,7.91,5.09,11.87,7.62a4.82,4.82,0,0,0,1,.51,2.1,2.1,0,0,0,.66,0c0-.26.05-.59-.09-.75a7.17,7.17,0,0,0-1.33-1.19C28,48,24.39,45.58,20.75,43.21,20.42,43,20.05,42.85,19.62,42.63ZM170.11,31.36c-.4-.15-.71-.38-.94-.31a2.19,2.19,0,0,0-.85.62q-5,4.95-9.91,9.91a1.84,1.84,0,0,0-.52.64.84.84,0,0,0,.1.73.83.83,0,0,0,.73.16,2.3,2.3,0,0,0,.74-.59q5-5.12,9.91-10.24A10.22,10.22,0,0,0,170.11,31.36Zm-3.6,21.2c.75-.57,1.2-.87,1.61-1.22q3.42-2.93,6.81-5.86c1.27-1.1,2.55-2.18,3.79-3.32.2-.19.18-.62.27-.94a6.24,6.24,0,0,0-1,.08c-.18,0-.32.23-.47.36q-5.18,4.19-10.32,8.4a3.45,3.45,0,0,0-1,1.12C166.06,51.45,166.34,51.91,166.51,52.56ZM146.86,13.64c-.13-.22-.22-.51-.38-.57a.71.71,0,0,0-.63.16,7.3,7.3,0,0,0-.85,1.28c-1,2-2,4-3.08,6s-2.22,3.88-3.25,5.86c-.18.34.06.9.11,1.36.41-.24.83-.46,1.23-.72.11-.08.14-.28.22-.42q3-5.89,6.11-11.79C146.52,14.4,146.68,14,146.86,13.64Zm51.53,77.65,0-.54a6,6,0,0,0-1.37-.31c-1.43,0-2.86.11-4.3.17-3.86.16-7.73.31-11.59.52-.32,0-.63.43-.94.66a8.78,8.78,0,0,0,.94.54,1.34,1.34,0,0,0,.6,0c5-.24,9.95-.47,14.93-.73A12.27,12.27,0,0,0,198.39,91.29Zm-113-72.8c-.08-.36-.12-.55-.16-.75-.46-2.43-.92-4.86-1.4-7.28-.4-2-.82-4-1.29-6-.08-.34-.5-.59-.76-.89-.1.34-.23.68-.31,1a1.11,1.11,0,0,0,0,.47c.59,3.26,1.18,6.51,1.78,9.77.23,1.21.44,2.43.74,3.63.07.28.52.46.8.69ZM22.28,72.24l.72-.38a3.75,3.75,0,0,0-.48-.83,2.38,2.38,0,0,0-.75-.36L8.92,65.15A2.16,2.16,0,0,0,8,64.82a3.39,3.39,0,0,0-1,.42c.19.26.32.64.57.76.91.42,1.86.71,2.78,1.11,3.55,1.53,7.1,3.09,10.64,4.64ZM187,53.49c-.44-.17-.72-.39-.92-.33a6.8,6.8,0,0,0-1.42.6c-2.8,1.54-5.59,3.1-8.38,4.65-1.19.67-2.38,1.32-3.52,2.06-.3.19-.4.68-.59,1,.43,0,1,.27,1.26.1,4.24-2.41,8.44-4.87,12.65-7.33A8.93,8.93,0,0,0,187,53.49Zm5.61,12.94,0-.36c-.37-.1-.76-.33-1.09-.26a10.06,10.06,0,0,0-1.66.66c-3.91,1.61-7.83,3.19-11.72,4.84-.38.15-.59.68-.88,1,.49.06,1,.16,1.49.18.17,0,.35-.17.53-.25,2.38-1,4.76-2,7.15-3,1.77-.73,3.55-1.43,5.32-2.17A4.94,4.94,0,0,0,192.6,66.43ZM126.31,21.86l.49.75c.33-.28.83-.48,1-.83,1.62-4,3.19-7.92,4.76-11.89a9.37,9.37,0,0,0,.58-1.69c0-.28-.18-.62-.27-.92-.26.2-.63.35-.74.61q-2.78,6.5-5.49,13C126.51,21.16,126.45,21.44,126.31,21.86Zm32.89-.55-.37-.33a4.68,4.68,0,0,0-1,.78c-2.83,3.87-5.63,7.75-8.44,11.63,0,.07-.13.14-.13.2,0,.36,0,.72,0,1.08.39-.07.87,0,1.14-.23a4.51,4.51,0,0,0,.81-1.17c1.46-2.18,2.9-4.38,4.38-6.54,1-1.45,2.07-2.85,3.08-4.29A6.79,6.79,0,0,0,159.2,21.31ZM72.7,22.39l.32-.08a2.67,2.67,0,0,0,0-1c-.46-1.07-1-2.1-1.48-3.15C70,15,68.54,11.83,67,8.68c-.15-.32-.71-.44-1.08-.65-.07.41-.34.92-.19,1.22,1.43,2.89,2.92,5.76,4.4,8.63.66,1.28,1.32,2.55,2,3.82A4.54,4.54,0,0,0,72.7,22.39ZM4.23,77.2c-.21.19-.74.55-.69.67a1.62,1.62,0,0,0,.83.92C9,80,13.61,81.2,18.24,82.37c.21.06.49-.12.73-.18-.12-.27-.17-.67-.38-.77a10,10,0,0,0-1.79-.63c-4-1.08-8.25-1.55-12.06-3.43C4.64,77.31,4.51,77.29,4.23,77.2Zm8.51-23.28c-.16.09-.42.15-.47.28a.83.83,0,0,0,.07.64,1.94,1.94,0,0,0,.65.52c4.18,2.26,8.35,4.53,12.55,6.75a4.33,4.33,0,0,0,1.51.17l-1-1.18s-.07,0-.1-.05L13.53,54.31C13.29,54.18,13,54.06,12.74,53.92Zm168,28.57.63-.15c4.56-1,9.13-1.94,13.68-2.94.36-.08.64-.49,1-.75-.41-.12-.85-.4-1.23-.33-3.76.7-7.52,1.46-11.27,2.2a26.78,26.78,0,0,0-2.69.58c-.28.09-.51.54-.61.87C180.2,82.1,180.62,82.35,180.77,82.49ZM9.37,85.09l-.15.45a5.94,5.94,0,0,0,1.45.72q3,.58,6.11,1c.39,0,.82-.24,1.23-.38-.35-.26-.67-.68-1.06-.75-1.87-.33-3.76-.59-5.65-.85C10.66,85.2,10,85.15,9.37,85.09Zm12.9-32.44-.16.43c.5.35,1,.73,1.51,1,1.7,1,3.42,1.89,5.16,2.79a4.39,4.39,0,0,0,1.11.25c-.21-.36-.33-.88-.65-1.07-1.9-1.12-3.82-2.17-5.76-3.2A3.94,3.94,0,0,0,22.27,52.65Zm8.4-10.32-.28.29a3.28,3.28,0,0,0,.51.81c1.74,1.32,3.49,2.63,5.26,3.91.23.16.64.08,1,.12-.14-.33-.2-.77-.44-1-1.71-1.31-3.45-2.56-5.19-3.81A4.33,4.33,0,0,0,30.67,42.33ZM187.94,86l-.08-.51a4.87,4.87,0,0,0-1.07-.06c-1.73.27-3.46.57-5.19.88a2,2,0,0,0-.89.29c-.22.16-.3.49-.44.75.27.09.56.29.81.25q2.71-.47,5.41-1A9,9,0,0,0,187.94,86ZM63.31,18l-.64.48c0,.19-.06.41,0,.55,1,1.88,1.95,3.76,3,5.61.12.22.58.24.88.36,0-.36.12-.8,0-1.08-.9-1.65-1.87-3.26-2.8-4.89A6.67,6.67,0,0,1,63.31,18Zm15.46,1.73c-.66-2-1.26-3.88-2-5.75-.12-.32-.6-.5-.91-.74a3.68,3.68,0,0,0,0,1.19c.56,1.82,1.17,3.63,1.8,5.42.08.25.39.41.6.6Zm12.88-9.16c-1,1.06-.36,7,.82,7.81A31.49,31.49,0,0,0,91.65,10.53ZM51.55,24.11l-.35.21a5.61,5.61,0,0,0,.45,1.27q1.77,2.63,3.64,5.18c.18.24.64.28,1,.42-.05-.35,0-.78-.16-1-1.26-1.79-2.57-3.54-3.87-5.3A9.6,9.6,0,0,0,51.55,24.11Zm68.16-3.64.44.18a9,9,0,0,0,.78-1.47c.51-1.67,1-3.36,1.37-5a2.88,2.88,0,0,0-.21-1.12c-.22.29-.55.54-.65.87-.59,1.89-1.13,3.8-1.67,5.71A3.69,3.69,0,0,0,119.71,20.47Zm59.1,57.05.21.4a8.23,8.23,0,0,0,1.29-.36c1.54-.66,3.07-1.32,4.57-2,.34-.16.56-.55.83-.83-.39,0-.85-.21-1.17-.08-1.66.69-3.28,1.44-4.9,2.21A4,4,0,0,0,178.81,77.52Zm2.85-13.38-.15-.4a3.34,3.34,0,0,0-1,.16q-2.72,1.41-5.37,2.89c-.21.11-.28.48-.41.73.32,0,.71.16,1,0,1.66-.87,3.29-1.79,4.92-2.71A11.67,11.67,0,0,0,181.66,64.14Zm-164.06-1-.18.35a10.5,10.5,0,0,0,1.27.86c1.48.7,3,1.38,4.48,2,.35.14.84-.06,1.27-.1-.29-.31-.53-.76-.89-.91-1.64-.71-3.32-1.33-5-2A7.3,7.3,0,0,0,17.6,63.18ZM45.91,38.4c-.26-1.26-4.35-5.18-5.49-5.25C40.52,34.15,44.78,38.23,45.91,38.4Zm-33,35.47-.16.46c.43.2.85.44,1.3.6,1.86.69,3.73,1.35,5.59,2a1.82,1.82,0,0,0,.56.18,2,2,0,0,0,.61-.22,1.66,1.66,0,0,0-.29-.58,2.46,2.46,0,0,0-.75-.35c-1.92-.65-3.84-1.3-5.77-1.92A6.36,6.36,0,0,0,12.91,73.87ZM136.23,18.66l-.34-.14c-.1,0-.27.06-.31.13-1,1.91-2,3.81-2.88,5.74-.09.19.15.53.23.8.26-.15.63-.25.74-.47.65-1.36,1.27-2.74,1.86-4.13C135.8,20,136,19.31,136.23,18.66Zm22.69,13.71c-1.26.28-5,5-4.75,6.1A33.52,33.52,0,0,0,158.92,32.37Zm17.19,19.87-.15-.36a3.29,3.29,0,0,0-1.07.25c-1.67,1.1-3.32,2.22-4.94,3.39-.29.21-.41.67-.62,1a3.84,3.84,0,0,0,1.22-.31c1.57-1.08,3.1-2.22,4.65-3.33Zm-32-21.82c.84-.05,4.16-5,4.07-6.09C147.35,24.47,144.17,29.24,144.11,30.42ZM162.69,45.8c1.36.28,4.62-3,4.47-4.42ZM106.48,10.89h-.35v7.26h.4C107.07,15.72,106.34,13.31,106.48,10.89Zm-7,204.64h-.53c-.29.44-.84.93-.78,1.32s.7.78,1.08,1.17c.34-.38.91-.74.94-1.14S99.71,216,99.45,215.53Zm1.67,10.59c-.73-.49-1.2-1-1.53-1s-.79.68-1.18,1.06c.39.38.77,1,1.18,1S100.42,226.68,101.12,226.12Z" fill="#fff" fill-opacity="0.0"/>
    <path d="M155.1,54.82c.22.36.38.67.58,1,1.47,1.95,3,3.88,4.42,5.84.62.82,1.14,1.09,2,.14,1-1.15,1.74-.83,2.8.27,2.39,2.5,5,4.83,7.48,7.22.22.21.54.33.79.53.94.72.93,1.34-.09,1.93-1.46.84-3,1.61-4.44,2.39-1.7.89-1.69.88-1.18,2.8.71,2.62,1.55,5.22,2.06,7.88s.76,5.52,1.07,8.29c.2,1.79.37,3.58.47,5.37.08,1.41-.29,1.79-1.72,1.82-2,0-4,0-6,0-2.59.09-5.19.22-7.77.45a5.08,5.08,0,0,1-5.61-5.41,2.88,2.88,0,0,1,1-1.64c.9-.81,1.23-2.65.43-3.52a1.11,1.11,0,0,0-1-.16c-.73.21-1.41.55-2.12.83-.54.21-1.12.45-1.43-.29s.13-1.14.74-1.4a17.09,17.09,0,0,1,2-.77,1.45,1.45,0,0,0,1.13-2.09c-.74-2.19-1.49-4.38-2.29-6.55-3.12-8.39-9.22-14.56-15.47-20.61a12.44,12.44,0,0,0-2-1.54,76.78,76.78,0,0,0-21.94-9.43,44.83,44.83,0,0,0-6-.87c-1.07-.13-1.43.29-1.39,1.38a12.74,12.74,0,0,1,0,2.62c-.08.49-.64.88-1,1.31a4.6,4.6,0,0,1-.67-1.3,17.28,17.28,0,0,1,0-2.39c0-1.13-.51-1.76-1.68-1.66a41.25,41.25,0,0,0-5.46.59c-3.31.76-6.57,1.75-9.85,2.63-.83.23-1.4.58-1.48,1.6a3.11,3.11,0,0,1-.83,1.55c-2.48,2.93-5,5.82-7.5,8.74a8.46,8.46,0,0,0-.69,1.19,22.31,22.31,0,0,1-2-3c-1.3-3-1.61-3.09-4.17-1.1-.82.64-1.6,1.33-2.42,2a.94.94,0,0,0-.25,1.44c.38.57.68,1.19,1.09,1.73a3.61,3.61,0,0,1,.52,3.51C64.68,69.6,64,70,62.59,69.18a15.42,15.42,0,0,1-2.8-2c-.82-.73-1.26-.53-1.91.26a51.14,51.14,0,0,0-7.74,14.4c-.8,2.11-.2,3,1.89,3.81A16.1,16.1,0,0,1,56.16,88a4.33,4.33,0,0,1,0,6.38A2.71,2.71,0,0,1,51.78,93a1.79,1.79,0,0,1,.92-2,1.47,1.47,0,0,1,2,.26c.29.28.57.55,1.14,1.08a6,6,0,0,0,.25-1.57c-.21-1.57-1.31-2.36-2.68-2.93-2.84-1.2-2.83-1.22-3.28,1.73A6.24,6.24,0,0,1,48,93.31a3.61,3.61,0,0,0-1,1.91,17.32,17.32,0,0,0-.27,3.46c0,1.06-.49,1.38-1.47,1.38-3.92,0-7.84,0-11.76,0-1.48,0-3,.09-4.43.18-1,.07-1.49-.37-1.39-1.4.28-3,.54-6,.83-8.95.08-.92.19-1.83.33-2.74.16-1.06-.22-1.55-1.35-1.57a12.11,12.11,0,0,1-2.81-.38,1.7,1.7,0,0,1-1.32-1.9c0-.56,0-1.12,0-1.68,0-2.06.85-3,2.94-3a8.2,8.2,0,0,1,3,.61c1,.39,1.39.14,1.72-.75,1-2.77,2-5.55,3.13-8.3a43.05,43.05,0,0,1,6-10.19c.7-.93,1.41-1.84,2.08-2.79,3.72-5.35,8.51-9.68,13.54-13.68a71.68,71.68,0,0,1,17.43-9.75A73.52,73.52,0,0,1,96,28.6c12.68-1,24.41,2.12,35.64,7.69l.42.23c2.24,1.27,2.23,1.27,3.95-.61a2.3,2.3,0,0,1,.61-.56.85.85,0,0,1,.73,0,.87.87,0,0,1,.22.73,1.81,1.81,0,0,1-.42.71c-1.34,1.8-1.37,1.86.56,2.88,4.21,2.2,7.49,5.58,11.13,8.51,1.6,1.28,1.68,1.29,3-.36a19.65,19.65,0,0,1,1.31-1.56c.19-.2.64-.4.81-.31a1.13,1.13,0,0,1,.5.83c0,1-.09,1.91-.18,2.87a3.61,3.61,0,0,0,1.27,3.2C156.56,53.77,156.5,54,155.1,54.82Zm-2,4.75c-1-1.13-2.07-2.23-3-3.39-2-2.4-1.44-2.6-3.69.1a1.21,1.21,0,0,0,0,1.79Q149.49,62,152.55,66a1.24,1.24,0,0,0,1.84.41c.28-.15.58-.27.87-.41,1.42-.69,1.46-.84.58-2.23l-2.71-4.24c1.07,1.44,2.15,2.87,3.22,4.3.74,1,1.73,1,3,.13,1-.69.65-1.36.09-2.1-1.22-1.62-2.4-3.28-3.66-4.88s-2.45-3-3.73-4.5c-.76-.87-1.58-.74-2.38,0a1.48,1.48,0,0,0-.18,2.29C150.77,56.36,151.94,58,153.14,59.57ZM43.87,63.06c.89-1.11,1.7-2.13,2.53-3.15,2-2.41,3.71-5.07,6-7.17,3.55-3.32,7.56-6.14,11.17-9.39,2.15-1.94,4.68-2.8,7.26-3.76a24.79,24.79,0,0,0,5.56-2.74A9.43,9.43,0,0,1,81,35.15c2.69-.28,5.35-.59,7.19-3.11,1.25-1.7,4.41-2,5.62-.68a3.85,3.85,0,0,0,3.32,1.19,39.27,39.27,0,0,1,6.32-.07c4.23.54,8.43,1.37,12.64,2.09,1.55.26,1.9,0,2.1-1.57.16-1.27-.7-1.51-1.61-1.83-4.89-1.74-10-2.06-15.11-2.16A76.89,76.89,0,0,0,82.11,31.3a64.75,64.75,0,0,0-15.54,6.22c-4.37,2.34-8.75,4.67-12.43,8.07-1.64,1.53-3.25,3.09-4.94,4.55A40.76,40.76,0,0,0,42,58.6a1.56,1.56,0,0,0-.27,1.26C42.29,60.89,43,61.84,43.87,63.06Zm72.49-17.7a2.41,2.41,0,0,0-.69.51c-1.32,1.92-.9,3.27,1.24,4.11.34.13.69.21,1,.37,4.6,2.3,9.22,4.58,13.78,7a9,9,0,0,1,2.46,2.07c3.63,4,7.27,8.08,10.76,12.23,3.21,3.81,4.89,8.46,6.08,13.18.84,3.32,1.24,2.93,3.91,1.86a1.21,1.21,0,0,0,.75-1.81c-1.46-3.83-2.9-7.68-4.37-11.52a9,9,0,0,0-.72-1.37A63.08,63.08,0,0,0,135.31,54.8c-4.78-3.85-10.3-6.4-16-8.52C118.39,46,117.46,45.7,116.36,45.36Zm53.78,52.05c-.12-2-.26-4-.35-6-.22-5.11-1.64-10-3.19-14.8-.25-.75-.75-.94-1.51-.7-1.43.46-1.8,1.14-1.4,2.64,1.49,5.65,3.42,11.23,3.08,17.22a6.42,6.42,0,0,0,.37,2.11c.35,1.16,1.26.8,2.09.71S170.44,98.25,170.14,97.41ZM133.3,42.28c-.49.59-1,1.16-1.43,1.78-.91,1.31-.77,1.52.55,2.43,2.62,1.82,5.18,3.73,7.73,5.63,1.31,1,2.55,2.06,3.86,3.05.27.2.91.36,1,.22a8.16,8.16,0,0,0,1.8-2.33c.12-.31-.73-1.08-1.21-1.58s-1.31-1.17-1.94-1.79A40.54,40.54,0,0,0,135,43.14C134.52,42.87,134,42.64,133.3,42.28Zm16.44,8.15a12.82,12.82,0,0,0-.94-1.3,51.84,51.84,0,0,0-12.24-9.35c-1-.55-1.65-.19-2.41,1.11-.58,1,.07,1.4.77,1.76a39.85,39.85,0,0,1,8.75,6.64,36.77,36.77,0,0,0,3,2.57,1.53,1.53,0,0,0,1.35.22A11,11,0,0,0,149.74,50.43ZM31.34,79.94l-.22.19a23.14,23.14,0,0,0,1.52,2.15,1.82,1.82,0,0,0,1.26.65c.28,0,.57-.67.75-1.09.25-.58.35-1.23.6-1.81,1.36-3.23,2.73-6.46,4.15-9.66a1.43,1.43,0,0,0-.59-2,4.52,4.52,0,0,1-1-1.47,9,9,0,0,1-.46-1.11c-.28.31-.67.56-.81.92-1.64,4-3.23,8-4.83,12A11.33,11.33,0,0,0,31.34,79.94Zm74.41-42c-.93.14-2,.24-3,.46-1.27.26-1.64.94-1.49,2.4.13,1.18,1.06,1,1.81,1.08,3,.46,5.94.73,8.83,1.42,3.05.74,2.93,1.29,4-2.3.41-1.32.25-1.68-1.11-1.88C111.83,38.69,108.86,38.35,105.75,38Zm-2.36,4.22c-.84.29-1.89.4-2,.74a6.62,6.62,0,0,0,0,3.16c.11.42,1.23.67,1.92.79,3,.51,5.92.9,8.87,1.42,1,.16,1.56,0,1.76-1,.08-.39.24-.77.32-1.16a1.31,1.31,0,0,0-1.08-1.79Zm-40,7.56c-.49.29-.85.47-1.17.69a42.36,42.36,0,0,0-8.6,8.26c-.78,1-.5,1.73.87,2.65.9.6,1.27.47,1.93-.7a2.45,2.45,0,0,1,.38-.6l5.06-4.34c.94-.8,1.92-1.56,2.8-2.43.34-.34.74-1.1.59-1.36A15.52,15.52,0,0,0,63.37,49.73ZM36.87,83.65c1.55,0,1.71-.29,2.17-1.76a56.83,56.83,0,0,1,2.36-6c.52-1.2,1.27-2.3,1.76-3.52.42-1-.29-2-1.68-2.46-1-.35-1.54.14-1.88,1-1.46,3.5-3,7-4.33,10.52C34.64,83,35.13,83.62,36.87,83.65ZM118,39.15a4.68,4.68,0,0,0,1.09.86c2.81,1.24,5.66,2.35,8.44,3.64,2.13,1,2.09,1.06,3.35-.92l.2-.3c.55-.77.47-1.39-.43-1.82-.54-.26-1.06-.56-1.62-.78-2.7-1.08-5.4-2.16-8.11-3.22C119,35.86,118.05,36.58,118,39.15ZM119.23,35a4.71,4.71,0,0,0,1.16.88c2.1.88,4.24,1.65,6.35,2.53,1.55.64,3,1.39,4.59,2.05a2,2,0,0,0,2.52-1.22c.41-1-.45-1.31-1-1.57-3.77-1.64-7.55-3.26-11.37-4.76C120,32.31,119.22,33,119.23,35ZM44.77,70.06a4.32,4.32,0,0,0,.73.86c.54.39,1.17.68,1.73,1.06.72.51,1.26.4,1.62-.4a27.68,27.68,0,0,1,5-7.14c.82-.92.47-1.63-.33-2.34C52.25,61,52,60.91,51,61.81a29.31,29.31,0,0,0-5.79,7.27C45.05,69.36,44.94,69.66,44.77,70.06ZM28.45,97.94c.07.67-.2,1.63,1.07,1.78,1.63.2,2.13-.06,2.35-1.57.48-3.4.91-6.81,1.32-10.22.15-1.28-.35-1.91-1.45-2-1.59-.2-2,.06-2.21,1.56C29.14,90.9,28.81,94.36,28.45,97.94ZM55.3,63.69a2.13,2.13,0,0,0-.51.29,22.91,22.91,0,0,0-5.56,8.12,1.37,1.37,0,0,0,.39,1.18,5.27,5.27,0,0,0,1.86,1,1.47,1.47,0,0,0,1.29-.38c1.57-2.25,3.07-4.55,4.54-6.87C58.11,65.82,56.94,63.79,55.3,63.69ZM49,57.44c-.32.37-.72.79-1.06,1.25q-3.1,4.32-6.18,8.66c-.66.92.06,1.37.71,1.78s1.36,1,2.09.1c2.13-2.64,4.26-5.26,6.33-7.94a1.5,1.5,0,0,0,0-1.34A26.9,26.9,0,0,0,49,57.44ZM87.63,43.28c-2.87,1-5.64,2-8.4,3-.14,0-.25.65-.14.87a16.13,16.13,0,0,0,1.6,2.53,1.44,1.44,0,0,0,1.21.36c1.52-.35,3-.77,4.51-1.23,3.63-1.11,3.3-.33,2.26-4.33a.56.56,0,0,0-.07-.23C88.35,44,88.07,43.74,87.63,43.28ZM162.35,95.8c.37-2.8-1.37-5.67-2.25-8.75a.8.8,0,0,0-.53-.4,1.71,1.71,0,0,0-2.2,1.71q.44,4.76,1,9.51a1.21,1.21,0,0,0,.68.83C161.32,99.43,162.36,98.68,162.35,95.8ZM99.69,44.59c0-2.24-.13-2.49-2.35-2.37s-4.36.45-6.54.72c-.76.09-1.14.52-.9,1.34a17.85,17.85,0,0,0,.75,2.52,1.4,1.4,0,0,0,1.09.69c2-.18,4-.56,6.06-.72C99.4,46.65,99.73,46.93,99.69,44.59ZM76.76,46.28c-.66-1.07-1.22-2-1.85-2.94-.09-.12-.63-.06-.86.07-2.68,1.57-5.34,3.19-8,4.77-1.06.62-.74,1.31-.2,2.08s1.09,1.53,2.21.83,2-1.22,3-1.75c1.56-.81,3.16-1.54,4.73-2.32A8.12,8.12,0,0,0,76.76,46.28ZM87,39.3a43.73,43.73,0,0,0-4.44.94,42.44,42.44,0,0,0-4.71,2c-.64.3-1,.91-.56,1.58s.54,2.16,1.86,1.79c2.83-.81,5.62-1.79,8.4-2.78a1.32,1.32,0,0,0,.57-1.11,13.9,13.9,0,0,0-.78-2.39C87.32,39.29,87.11,39.31,87,39.3Zm70.8,57.16.15,0c-.38-2.52-.76-5-1.17-7.55-.14-.87-.65-1.22-1.56-.89-.7.26-1.47.39-2.15.72-.37.18-.91.68-.87,1,.23,1.63.22,3.31,1.26,4.77a10.86,10.86,0,0,1,1.5,3.17c.3,1,.86,1.19,1.75,1.16s1.1-.61,1.09-1.37C157.78,97.09,157.79,96.78,157.79,96.46ZM96.72,37.63l0-.2c-2.09.32-4.18.6-6.25,1a1.69,1.69,0,0,0-1.15.84,2.17,2.17,0,0,0,2.4,3.1c.43,0,.86-.16,1.3-.21,1.54-.17,3.08-.4,4.62-.46,2-.08,2-.09,2-2s0-2-2-2Zm6.06-4.4-.16-.46c-2.49.14-5,.28-7.49.44a.81.81,0,0,0-.6.33c-1,1.83-2.79,2.11-4.64,2.16-.7,0-1.18.16-1,1s.34,1.38,1.35,1.28c2.57-.25,5.15-.47,7.73-.68a2.28,2.28,0,0,0,2-1.24,12.55,12.55,0,0,1,2-2.19A6.68,6.68,0,0,1,102.78,33.23ZM68.4,56.69c-.56-1-1.1-1.84-1.59-2.75s-1-1-1.71-.4c-1.68,1.42-3.41,2.78-5,4.31-1.28,1.24-1.11,1.7.5,2.54a4.24,4.24,0,0,0,1.16.59,2.57,2.57,0,0,0,1.62-.13c1.42-1,2.76-2.05,4.1-3.12A7.58,7.58,0,0,0,68.4,56.69Zm71.83-3.86a5.82,5.82,0,0,0-.75-.87c-2.56-1.83-5.13-3.66-7.71-5.46a1.11,1.11,0,0,0-1.73.39A6.44,6.44,0,0,1,129,48.16c-1.19,1.06-1.18,1.18.21,2.08l6.92,4.48a2.09,2.09,0,0,0,.53.26Zm21.59,22.26c-.12-.29-.28-.74-.49-1.16-.89-1.79-1.81-3.56-2.69-5.35-1.11-2.22-1.14-2.24-3.32-1-1.16.69-1.2,1-.56,2.08,1.23,2.19,2.39,4.41,3.64,6.59.26.43.8,1,1.18,1A2.84,2.84,0,0,0,161.82,75.09ZM76.57,47.31a7.22,7.22,0,0,0-.81.31c-1.89,1-3.79,1.89-5.66,2.89-3,1.62-3,1.64-1,4.48l.13.19c.45.68,1.09.82,1.62.28q3.35-3.42,6.56-7C77.83,48,77.37,47.29,76.57,47.31Zm88.87,26c-.52-1-1-2.07-1.55-3.11-.71-1.43-1.38-2.88-2.15-4.28-.56-1-1.18-1.09-2.43-.45-.91.46-1.55,1-.92,2.11,1.22,2.28,2.38,4.61,3.58,6.9.26.49.54,1.1,1.27.72S165.12,74.42,165.44,73.26ZM106.57,37.49c3.09.42,6.12.87,9.17,1.21,1,.11,1.38-.67,1.46-1.56s.18-1.85-1-2c-2.48-.42-5-.83-7.45-1.19a1.12,1.12,0,0,0-.93.48C107.34,35.3,107,36.28,106.57,37.49Zm-44.1,7.32A16.7,16.7,0,0,0,60.61,46c-1.49,1.27-3,2.56-4.39,3.91-1.84,1.74-1.8,1.75-.14,3.62.45.51.8.53,1.3.12,1.74-1.4,3.51-2.77,5.25-4.18a1.1,1.1,0,0,0,.44-.77C62.94,47.51,62.71,46.3,62.47,44.81ZM39.8,80.28c1.57-.31,2.63-.62,3.71-.71a2,2,0,0,0,1.9-1.34A32,32,0,0,1,47,75a1.29,1.29,0,0,0-.43-2c-.3-.19-.59-.41-.9-.59-1.17-.68-1.8-.47-2.37.74-.31.65-.69,1.25-1,1.9C41.47,76.69,40.7,78.36,39.8,80.28Zm84.54-37.57a22.15,22.15,0,0,0-6.41-2.42.76.76,0,0,0-.66.32,27.72,27.72,0,0,0-.89,3.33,1.12,1.12,0,0,0,.58.89,20.26,20.26,0,0,0,3.36,1.25,2,2,0,0,0,1.57-.38A36.91,36.91,0,0,0,124.34,42.71ZM36.65,94.41c.41-2-.77-3.44-1.95-4.82a2.68,2.68,0,0,0-.78-.44,2.76,2.76,0,0,0-.38.82c-.32,2.81-.64,5.62-.88,8.44,0,.33.41,1,.66,1,1.92.06,3-.08,3.06-2.15C36.41,96.31,36.56,95.36,36.65,94.41ZM157.77,76.09c-.08.18,0,.08,0,0-1.25-2.35-2.5-4.7-3.79-7a.81.81,0,0,0-.7-.24c-1.06.25-2.11.57-3.26.89,0-.08,0,0,0,.06.92,1.82,1.83,3.63,2.77,5.43a.8.8,0,0,0,.56.38C154.76,75.79,156.21,75.93,157.77,76.09ZM49.47,81.58c.72-1.73,1.44-3.4,2.09-5.1a1,1,0,0,0-.34-.9,15.54,15.54,0,0,0-2.56-1.25,1.12,1.12,0,0,0-1,.43c-.78,1.3-1.49,2.64-2.16,4a.93.93,0,0,0,.24.86C46.89,80.28,48.06,80.85,49.47,81.58ZM74.35,38.84a.92.92,0,0,0-.33,0c-1.34.53-2.65,1.11-4,1.59-1.11.4-1.91.85-1.54,2.3a5.74,5.74,0,0,1-.25,1.88c0,.38,0,.76,0,1.33a13.38,13.38,0,0,0,1.34-.53c1.13-.61,2.24-1.24,3.35-1.87A3.57,3.57,0,0,0,74.35,38.84Zm75,23.86c-.78-1.06-1.63-2.22-2.47-3.39a2.19,2.19,0,0,0-3-.84c-.74.34-1.53.57-2.5.93l5,5.67Zm15.81,22.76c-.68-2.5-1.3-4.83-2-7.14-.2-.66-.76-.73-1.37-.45A2.75,2.75,0,0,0,160,81.14C160.32,83.81,162.17,85.5,165.19,85.46Zm-120.54.18c-1.74,0-2,.35-1.61,2.08.09.41-.36.91-.49,1.39-.19.73-.33,1.48-.49,2.22a6.51,6.51,0,0,0,1.85.36A3.45,3.45,0,0,0,47,89.21C48.05,86.1,48.1,86,44.65,85.64ZM81.57,40c1.67-.32,3.31-.58,4.91-1,.43-.11,1.08-.75,1-1a22,22,0,0,0-.94-3.23s-.23-.05-.34,0c-1.17.23-2.34.46-3.5.73a.72.72,0,0,0-.45.48C82,37.21,81.81,38.56,81.57,40Zm73.14,40c.37,1.29.64,2.46,1,3.59.92,2.59.56,2.48,3.18,1.56.64-.23,1.66-.36,1.41-1.3-.29-1.1-.68-2.51-1.5-3.06C157.85,80.14,156.35,80.27,154.71,80Zm11.72,16.46c-.24-4.3-.13-3.48-2.87-4l-.11,0c-.7-.12-1,.2-.91.86.13,1.51.23,3,.4,4.51a1.17,1.17,0,0,0,.52.84,1.91,1.91,0,0,0,3-1.85ZM44.77,94.7c-.79.1-1.59.17-2.37.32-.32.07-.82.31-.84.51-.1,1.08-.42,2.36,0,3.21.29.55,1.75.51,2.69.68a1.16,1.16,0,0,0,.81-.18,1.82,1.82,0,0,0,.75-.81,11.6,11.6,0,0,0,.36-2.36C46.28,94.82,46.05,94.64,44.77,94.7Zm-7.39-1.32c-.15,1.41-.41,2.82-.43,4.23s.45,1.86,2,1.8,1.68-.32,1.71-1.69c0-.32,0-.64,0-1C40.67,94.65,39.76,93.66,37.38,93.38ZM27.72,83a12.09,12.09,0,0,0,1.46-.09,1,1,0,0,0,.55-1.69A3.91,3.91,0,0,0,26.05,80c-.46.11-.93.79-1.11,1.3-.25.71.21,1.21.94,1.36S27.28,82.89,27.72,83Zm10.64,3.37a19.48,19.48,0,0,0-.45,2.94c0,.91,1.91,2.37,2.79,2.23a.91.91,0,0,0,.57-.34A2.2,2.2,0,0,0,41,88.52C40.22,87.83,39.39,87.18,38.36,86.34ZM57.7,60.53a8.92,8.92,0,0,0-1.29,1.59c-.09.18.3.71.58,1a10.6,10.6,0,0,0,1.46,1c.74.47,2.68-.57,2.71-1.46a.52.52,0,0,0-.17-.41C60,61.68,58.9,61.15,57.7,60.53ZM163.45,67l-.29.22c.9,1.77,1.73,3.57,2.73,5.28.59,1,1.29.23,1.9-.17s.52-1,0-1.47c-1.16-1.09-2.35-2.17-3.53-3.24A9.94,9.94,0,0,0,163.45,67ZM48,84.66c-.25-.77-.38-1.25-.57-1.71a2.17,2.17,0,0,0-2.14-1.61c-1.22.07-1.06,1.22-1.4,2s0,1.1.7,1.17C45.56,84.58,46.59,84.59,48,84.66ZM63.87,66.18a13.48,13.48,0,0,0-1.14-2.05c-.69-.87-1.36-.72-2.4.31-.79.79,0,1.09.43,1.5a6.24,6.24,0,0,0,1.16,1c.32.21.84.47,1.1.34S63.56,66.62,63.87,66.18ZM36.76,88.55l.46-.17c.18-1.11,1.09-2.28.12-3.32-.66-.72-1.72-.46-2.9,0Zm4.86-4.5a2.11,2.11,0,0,0,2.13-2.21,1,1,0,0,0-.69-.68c-1.07-.11-2.39,1-2.27,2C40.84,83.55,41.45,83.89,41.62,84.05Z"/>
    <path d="M109.05,131.29c-.2.53-.33.84-.43,1.17-.7,2.37-1.34,4.77-2.11,7.12a7.86,7.86,0,0,0-.16,4.11c1.1,6,4,11.17,6.78,16.45a10.89,10.89,0,0,1,.78,7.24,2,2,0,0,1-1.91,1.84c-.36,0-.83.66-.94,1.1-.51,2.13-.86,4.3-1.39,6.42-.44,1.78-1.61,2.26-3.14,1.3-.79-.49-1.13-.2-1.51.44-.65,1.09-1.27,2.23-2,3.25-1.55,2.12-3.74,2.39-5.67.61a20.66,20.66,0,0,1-2.58-3.13c-.5-.7-.92-1-1.76-.5-1.53.83-2.22.73-3.08-.79a46.67,46.67,0,0,1-2.67-5.73c-.6-1.5-1-3-2.27-4.22-2.13-2-2.31-4.77-1.51-7.48a34.18,34.18,0,0,1,2-4.5c1.26-2.72,2.69-5.37,3.78-8.15a29,29,0,0,0,1.24-5.44,2.88,2.88,0,0,0-.22-1.4q-1.62-4.69-3.27-9.38c-.16-.47-.4-.9-.7-1.57l-.89,1.08c-1.37,1.77-2.67,3.59-4.13,5.29a23.66,23.66,0,0,1-9.56,7,6.94,6.94,0,0,1-7.47-1.37,2,2,0,0,0-1.63-.36c-2.63.82-4.87-.08-7.06-1.37a1.41,1.41,0,0,1-.57-.43c-1-1.85-2.9-1.47-4.47-2a69.68,69.68,0,0,1-6.56-2.78,1.45,1.45,0,0,1-.7-.8c-.48-1.41-1.64-1.49-2.86-1.69a11.42,11.42,0,0,1-3.41-1,48.85,48.85,0,0,1-5.64-3.41A9,9,0,0,1,29.66,126c-.29-.4-.54-1-.92-1.1-2.37-.73-4-2.37-5.67-4.1l-4.45-4.7a2.24,2.24,0,0,1-.62-2.3,1.51,1.51,0,0,0-.53-1.24c-3.64-2.87-5.42-6.83-6.61-11.14-.11-.41-.08-1.14.16-1.3a1.81,1.81,0,0,1,1.41,0c1.32.46,2.61,1,3.89,1.57,6.2,2.73,12.82,3.7,19.44,4.52q12.36,1.53,24.78,2.6a82.25,82.25,0,0,0,22.2-1.11,9.29,9.29,0,0,0,4.64-2.34A5.73,5.73,0,0,0,89.13,101c.05-1.16,0-2.33.12-3.47A11.52,11.52,0,0,1,92,91.36c1.5-1.77,3.06-3.48,4.48-5.31.8-1,1.36-2.25,2.06-3.36.19-.3.52-.77.76-.75a1.39,1.39,0,0,1,1,.65c1.39,3.48,4.2,5.9,6.35,8.82A14.77,14.77,0,0,1,109.13,99c.05.56,0,1.12.08,1.68a6.79,6.79,0,0,0,4.89,6.18,15.77,15.77,0,0,0,6.08.9c4.19-.15,8.39.16,12.58.15,6,0,12,0,18-.29,4.14-.18,8.27-.79,12.41-1.16a79.59,79.59,0,0,0,15.56-2.71c3-.87,5.8-2.22,8.71-3.32a8.46,8.46,0,0,1,1.43-.31,4.78,4.78,0,0,1-.19,1.44c-1.24,2.42-2.48,4.84-3.84,7.19a15.43,15.43,0,0,1-5.62,5.47,5.44,5.44,0,0,0-2.58,3.12c-.93,2.76-3.13,4.5-5.49,6-1.34.85-2.88,1.37-4.3,2.1a3.24,3.24,0,0,0-1.41,1.15c-2.12,4.11-6,5.48-10.06,6.36a8.84,8.84,0,0,0-3.51,1.55c-2.93,2.12-6.11,3.81-10,3.42a2,2,0,0,0-1.5.53c-1.81,1.89-4.14,2.33-6.57,2.42a3.87,3.87,0,0,0-3,1.09,6,6,0,0,1-6,1.43c-5.18-1.23-9.64-3.6-12.67-8.19-.63-1-1.37-1.86-2.08-2.78C109.81,132,109.49,131.75,109.05,131.29Zm-53.63,7.19A6.36,6.36,0,0,0,60,140.57a10.43,10.43,0,0,0,5.62-1.4A42.09,42.09,0,0,1,69.3,137c.32-.16.83.07,1.25.12-.22.32-.36.75-.66.94-1.25.78-2.58,1.44-3.82,2.23-.81.52-.78,1.2.09,1.5,1.65.58,3.35,1.27,5.12.53A23.31,23.31,0,0,0,80,136c2.29-2.69,4-5.84,6-8.77a5.57,5.57,0,0,1,.83-.77,3.49,3.49,0,0,1,.6,1.07,39,39,0,0,0,4.26,13.41c2.45,4.56,4.17,9.42,3.88,14.66-.27,4.94-1,9.85-1.5,14.78-.49,4.47.74,8.22,4.45,11a1.92,1.92,0,0,0,2.81-.17,9.86,9.86,0,0,0,3.08-8.59c-.64-4.5-1.16-9-2-13.49a24,24,0,0,1,.93-13.29A86.77,86.77,0,0,0,108,129.53a14.94,14.94,0,0,1,.39-2.12c.09-.31.48-.53.74-.79a8.4,8.4,0,0,1,.48.88,19.08,19.08,0,0,0,1.28,3.31,50.76,50.76,0,0,0,4.17,5.7,11.23,11.23,0,0,0,3.49,2.85,56.61,56.61,0,0,0,7.39,2.78,2.88,2.88,0,0,0,3.72-1.63c-1.16-.49-2.33-.95-3.46-1.5-.33-.16-.54-.57-.8-.87a7.6,7.6,0,0,1,1.24-.26,2.12,2.12,0,0,1,.8.25,18.33,18.33,0,0,0,7.76,1.2,5.3,5.3,0,0,0,3.65-1.57,13.69,13.69,0,0,0-1.43-.69c-1.13-.38-2.3-.68-3.42-1.1a4.86,4.86,0,0,1-1.14-.87l.25-.44a7.77,7.77,0,0,1,1.53.37,18.34,18.34,0,0,0,9.87,1.33c1.71-.2,3.33-1.21,5-1.9.22-.1.34-.46.68-1-1.1-.14-1.95-.22-2.8-.35-2.56-.41-5.13-.81-7.67-1.29-.34-.07-.58-.63-.86-1a3.36,3.36,0,0,1,1.14-.21c2.52.4,5,.89,7.55,1.29a21.68,21.68,0,0,0,13.33-2.48,10,10,0,0,0,2.34-1.83,1.57,1.57,0,0,0,.4-1.25c-.05-.22-.72-.45-1.11-.45-2.51,0-5,.1-7.54.1s-4.95,0-7.41-.18a17.93,17.93,0,0,1-3.31-.86l.07-.61a10.72,10.72,0,0,1,1.38-.07c2.47.18,4.94.55,7.4.55,3.43,0,6.87-.31,10.3-.42,4.75-.15,8.31-2.54,11.33-6a3.69,3.69,0,0,0,.45-1.26,4.08,4.08,0,0,0-1.29-.4c-1.36,0-2.71.23-4.06.33-3.78.29-7.56.68-11.35.78s-7.35-.1-11-.18a2.34,2.34,0,0,1-.84,0,4.39,4.39,0,0,1-.79-.59,4.77,4.77,0,0,1,.76-.6,1.67,1.67,0,0,1,.71,0c3.24,0,6.48.23,9.71.13,4-.13,8-.35,11.94-.81a34.86,34.86,0,0,0,7.31-1.73c5.31-1.88,8.07-6.28,10.36-11.06.06-.11,0-.29-.06-.56a7.41,7.41,0,0,0-.95.17c-4.14,1.19-8.21,2.71-12.43,3.52-5.44,1-11,1.65-16.49,2.2-3.88.39-7.81.41-11.72.53-5.91.19-11.82.37-17.74.45-3.11,0-6.22-.17-9.33-.25a12.31,12.31,0,0,1-7.16-2.73,5.64,5.64,0,0,1-2.32-3.79c-.14-.9-.21-1.82-.29-2.74-.36-3.88-1.42-7.41-4.41-10.19a32.59,32.59,0,0,1-3.14-3.93c-.33-.42-.68-.81-1.1-1.29-.33.38-.55.61-.74.85-1.29,1.62-2.45,3.37-3.89,4.85-2.84,2.91-4.61,6.1-4.25,10.37a6.87,6.87,0,0,1-2.45,6.13c-1.86,1.51-3.81,2.81-6.39,2.51a4.92,4.92,0,0,0-1.07.11c-4.09.35-8.18,1-12.28,1a130.6,130.6,0,0,1-13.4-.71c-7.19-.68-14.37-1.52-21.55-2.36a69.83,69.83,0,0,1-20-5.3,10.36,10.36,0,0,0-1.08-.3A5.86,5.86,0,0,0,12.6,103c.66,1.5,1.31,3,2.1,4.44a12.94,12.94,0,0,0,7,5.9,40,40,0,0,0,15,2.71,27.12,27.12,0,0,1,3,0c3.94.28,7.88.6,11.82.91a11.33,11.33,0,0,1,1.26.27l0,.47a12.23,12.23,0,0,1-1.57.45,5,5,0,0,1-1.07-.1l-15.69-.57A9.91,9.91,0,0,1,33,117.4c-3.92-.78-7.84-1.58-11.76-2.34a4,4,0,0,0-1.21.18,4.13,4.13,0,0,0,.52,1.12c1.37,1.46,2.81,2.85,4.18,4.3a11.18,11.18,0,0,0,5.09,3,38.11,38.11,0,0,0,15.43,1c2.3-.28,4.57-.73,6.86-1,.35,0,.75.28,1.12.43-.32.28-.6.76-1,.83a68.49,68.49,0,0,1-17,1.22c-.87,0-1.75-.18-2.62-.17a5.45,5.45,0,0,0-1.39.44,9.21,9.21,0,0,0,.72.78,20.67,20.67,0,0,0,12.68,4.7,28.4,28.4,0,0,0,8.92-1.61c1.41-.44,2.81-.92,4.25-1.27.35-.09.81.24,1.22.37-.31.28-.58.7-.94.83a28.45,28.45,0,0,1-3,.85c-3,.71-6,1.38-9,2.1a4.28,4.28,0,0,0-1.08.6c.25.38.41.89.76,1.11,3.09,1.94,6.39,2.73,10,1.46,2.25-.81,4.46-1.76,6.7-2.6a12.48,12.48,0,0,1,1.74-.36l.14.45a5.19,5.19,0,0,1-.92.66c-1.85.85-3.72,1.65-5.56,2.52C57.06,137.41,56.34,137.92,55.42,138.48Zm36,17,.59.25a6.29,6.29,0,0,1-.25,1.06c-.6,1.34-1.21,2.7-1.88,4a15.07,15.07,0,0,0,.45,15.51c.4.68.88,1.5,1.85,1.12s1.08-1.17,1-2.09a17.46,17.46,0,0,1-.11-3.23c.37-3.81.81-7.61,1.27-11.42a31.6,31.6,0,0,0-1.68-15.08,6.65,6.65,0,0,0-.89-1.27c-.28.55-.41.8-.52,1.05-1.55,3.5-3.13,7-4.62,10.51a45.25,45.25,0,0,0-2,5.6,5.12,5.12,0,0,0,1.67,5.14c.84-1.84,1.67-3.7,2.53-5.55S90.5,157.36,91.39,155.49Zm14-10.59h-.43c-.32,1-.61,2-1,3a17.11,17.11,0,0,0-.87,8.6c.53,3.1.84,6.24,1.28,9.37s.84,6.25,1.46,9.34c.13.67,1.1,1.2,1.75,1.71.08.06.73-.33.83-.61.9-2.45,1.82-5,1.24-7.59a75,75,0,0,0-2.43-7.63c-.41-1.21-1-2.36-1.38-3.57a3.58,3.58,0,0,1,.14-1.31c.3.3.74.55.88.91,1.12,2.86,2.17,5.75,3.26,8.62a2.78,2.78,0,0,0,.53,1.06,2.37,2.37,0,0,0,1.37.74c.25,0,.68-.72.75-1.15a10.49,10.49,0,0,0-1.22-6.6c-2.24-4.31-4.58-8.58-5.61-13.41A9,9,0,0,0,105.36,144.9Z"/>
    <path d="M126.57,94.71a17.4,17.4,0,0,1-9.16-1.85,4.82,4.82,0,0,1-1-.51c-1.12-.83-1.07-1.61.18-2.22A24.84,24.84,0,0,1,134,87.87a28.43,28.43,0,0,1,4.48,1.66c1,.41,1.15,1.08.25,1.67a19.06,19.06,0,0,1-4.81,2.56,62.49,62.49,0,0,1-7.25,1.31Zm-9.21-3.46c1.22.73,16.16-.46,18.41-1.4C134.32,87.11,120.69,88.1,117.36,91.25Zm3.12,1.26,0,.45a4.73,4.73,0,0,0,1.37.53,55.57,55.57,0,0,0,7.73.29,22.83,22.83,0,0,0,5.38-1.49,4.87,4.87,0,0,0,1.25-.91l-.18-.52A132.42,132.42,0,0,0,120.48,92.51Z"/>
    <path d="M72.51,88.23C76,88,79.09,88.37,82,90.09c.32.19.83.53.8.74a1.61,1.61,0,0,1-.73,1c-2.71,1.72-5.8,2.1-8.89,2.55a17.54,17.54,0,0,1-10.22-1.67A9.57,9.57,0,0,1,61,91a11.6,11.6,0,0,1,2-1.21A22.2,22.2,0,0,1,72.51,88.23ZM64.39,91.5c1.78,2.83,13.67,2.38,15.11-.45Zm1-.82c4.54-.42,9.12.33,14-.45C76.66,88.39,67,88.72,65.34,90.68Z"/>
    <path d="M107.6,82.24a18.13,18.13,0,0,1,4-9,20.63,20.63,0,0,1,9.9-7,4.92,4.92,0,0,1,1.57,0,5.41,5.41,0,0,1-.09,1.57c-2.53,6.82-7.45,11.52-13.54,15.15a1.71,1.71,0,0,1-1.32.26C107.78,83,107.68,82.42,107.6,82.24ZM109,80.91l.33.17c.33-.31.69-.61,1-1,3.24-3.64,6.49-7.28,9.7-11a6.39,6.39,0,0,0,.72-1.51,5.48,5.48,0,0,0-1.65.24c-5.16,2.52-8.28,6.76-10,12.12A3.7,3.7,0,0,0,109,80.91ZM120.83,70c-2.26.84-8.91,8.47-8.9,10.09A20.42,20.42,0,0,0,120.83,70Z"/>
    <path d="M102.71,66a44.86,44.86,0,0,1-2.16,11c-.17.52-.76.91-1.15,1.36a6.91,6.91,0,0,1-1.08-1.3,25.86,25.86,0,0,1-2.44-11.74,14.67,14.67,0,0,1,2.6-8c.28-.42.84-.94,1.24-.92s.9.63,1.08,1.09A21.86,21.86,0,0,1,102.71,66ZM99.37,76.1l.4,0c-.18-5.75-.36-11.5-.54-17.45C95.65,60.87,96,72.79,99.37,76.1Zm1.4-3.91c1.75-2.22,1.42-10.77-.47-12.44C99.62,61.44,100,70.61,100.77,72.19Z"/>
    <path d="M90.19,81.39c0,1-.54,1-1.24.91-3.19-.58-5.68-2.47-8.14-4.38-3.5-2.71-5-6.64-6.31-10.65-.08-.26,0-.81.14-.85a2.12,2.12,0,0,1,1.22,0c4.52,1.66,8.28,4.26,10.7,8.56,1,1.84,2.15,3.64,3.22,5.47A6.44,6.44,0,0,1,90.19,81.39Zm-2.1-.67c-4-4.17-7.84-8.11-11.77-12.16C75.76,72.5,83.91,81.08,88.09,80.72ZM78.36,68.91c.07,1.29,7.49,9.26,9.19,9.87C87.69,76,81.55,69.39,78.36,68.91Z"/>
    <path d="M102.71,196.48a28.48,28.48,0,0,1-1.91,10.65c-.23.54-.85,1.29-1.28,1.28A2.12,2.12,0,0,1,98,207.3a31.16,31.16,0,0,1-2-6.59,22.85,22.85,0,0,1,2.3-13,1.53,1.53,0,0,1,.3-.51c.35-.34.72-.83,1.13-.88s.72.55.9,1a19.06,19.06,0,0,1,2.1,8.64Zm-3.07,10.27c3.14-2.33,3.16-15.65.3-17.75a1.7,1.7,0,0,0-.15.45c-.17,5.18-.35,10.36-.49,15.54A9.27,9.27,0,0,0,99.64,206.75Zm-.8-17.36-.32-.12a5.69,5.69,0,0,0-.69,1,21.28,21.28,0,0,0-.25,13.83,5.45,5.45,0,0,0,.75,1.2C99,200,99.68,194.68,98.84,189.39Z"/>
    <path d="M80.24,197.8a21.44,21.44,0,0,1,5.66-13.38,14.57,14.57,0,0,1,3.43-2.35,1.48,1.48,0,0,1,1.22,0c.17.08.17.71.11,1.08a33.28,33.28,0,0,1-5.14,12.15c-.88,1.38-1.9,2.67-2.89,4a3.69,3.69,0,0,1-.95.9c-.92.59-1.36.34-1.43-.77a1.93,1.93,0,0,1,0-.24Zm9-12.77-.38-.26a6.84,6.84,0,0,0-1,1.12c-1.89,3.59-3.77,7.2-5.61,10.82a3.57,3.57,0,0,0-.14,1.2l.46.12A30.88,30.88,0,0,0,89.24,185Zm-7.4,11.26c2.16-4.2,4.2-8.13,6.3-12.2C85.29,184.33,80.62,193.33,81.84,196.29Z"/>
    <path d="M118.48,198.46c-.09.14-.25.62-.4.62a2.14,2.14,0,0,1-1.18-.37,21.56,21.56,0,0,1-8.32-11.55c-.4-1.47-.8-2.93-1.12-4.42a4.08,4.08,0,0,1,.21-1.35,4.51,4.51,0,0,1,1.25.44c5.43,4,8.26,9.6,9.5,16.1C118.44,198.05,118.45,198.17,118.48,198.46Zm-9.21-14.07-.58.23a5.75,5.75,0,0,0,.17,1.32c.46,1.32,1,2.62,1.48,3.91a16,16,0,0,0,5,6.47,7.12,7.12,0,0,0,1.23.63l.31-.36ZM116.75,195c.23-2.71-4.09-9.52-6.34-10C112.6,188.34,114.1,191.87,116.75,195Z"/>
    <path d="M39.49,22a12.1,12.1,0,0,1,1.11.84q5,5.22,10,10.45a2.08,2.08,0,0,1,.56.75,1.09,1.09,0,0,1-.15.86c-.07.11-.51,0-.73,0a2.25,2.25,0,0,1-.63-.53q-4.9-5.09-9.8-10.19a2.6,2.6,0,0,1-.71-.93C39.1,22.9,39.34,22.52,39.49,22Z"/>
    <path d="M13.66,91.39c-3.87,0-7.75,0-11.62,0-.36,0-.72-.43-1.08-.66.39-.26.79-.74,1.18-.73q7.24.14,14.48.42a5.19,5.19,0,0,1,1.58.6,7.09,7.09,0,0,1-1.66.61,27.65,27.65,0,0,1-2.88,0Z"/>
    <path d="M99.08,8.16c-.16-1.75-.33-3.49-.49-5.24a3.09,3.09,0,0,1,0-.95A2.6,2.6,0,0,1,99,1.24c.23.23.63.44.67.69.21,1.62.42,3.25.47,4.89.11,3.54.14,7.09.16,10.64a4.55,4.55,0,0,1-.47,1.37c-.29-.44-.84-.87-.85-1.32-.07-3.11,0-6.23,0-9.34Z"/>
    <path d="M62.42,27.6c-.47.1-.82.29-1.08.21s-.46-.42-.64-.67Q56.43,21.07,52.17,15c-.37-.51-.59-1.1.09-1.39.28-.12,1,.24,1.18.56,2.73,4,5.41,8,8.1,12C61.8,26.54,62,27,62.42,27.6Z"/>
    <path d="M112.76,17.81c.55-2.73,1.08-5.22,1.54-7.73.38-2,.66-4.09,1-6.14a2,2,0,0,1,.16-.8,4.24,4.24,0,0,1,.8-.72c.15.32.47.67.43,1-.23,1.57-.58,3.13-.84,4.7-.49,3.07-.94,6.14-1.41,9.22,0,.15,0,.35-.06.47-.27.42-.58.82-.88,1.23Z"/>
    <path d="M41.72,42.86c-.49.21-.73.4-1,.4a1.13,1.13,0,0,1-.62-.32C37.73,41,35.36,39,33,37.1c-1.08-.88-2.18-1.74-3.27-2.6a10,10,0,0,1-1.6-1.26c-.23-.28-.14-.84-.2-1.27.38.06.87,0,1.13.22,1.58,1.28,3.09,2.65,4.67,3.94C36,38,38.25,39.77,40.5,41.61A13.47,13.47,0,0,1,41.72,42.86Z"/>
    <path d="M19.62,42.63c.43.22.8.37,1.13.58C24.39,45.58,28,48,31.66,50.34A7.17,7.17,0,0,1,33,51.53c.14.16.06.49.09.75a2.1,2.1,0,0,1-.66,0,4.82,4.82,0,0,1-1-.51c-4-2.53-7.93-5.06-11.87-7.62a2,2,0,0,1-.56-1C19,43,19.4,42.81,19.62,42.63Z"/>
    <path d="M170.11,31.36a10.22,10.22,0,0,1-.74.92q-4.94,5.13-9.91,10.24a2.3,2.3,0,0,1-.74.59A.83.83,0,0,1,158,43a.84.84,0,0,1-.1-.73,1.84,1.84,0,0,1,.52-.64q5-5,9.91-9.91a2.19,2.19,0,0,1,.85-.62C169.4,31,169.71,31.21,170.11,31.36Z"/>
    <path d="M166.51,52.56c-.17-.65-.45-1.11-.32-1.38a3.45,3.45,0,0,1,1-1.12q5.15-4.22,10.32-8.4c.15-.13.29-.32.47-.36a6.24,6.24,0,0,1,1-.08c-.09.32-.07.75-.27.94-1.24,1.14-2.52,2.22-3.79,3.32q-3.39,2.94-6.81,5.86C167.71,51.69,167.26,52,166.51,52.56Z"/>
    <path d="M146.86,13.64c-.18.39-.34.76-.52,1.11q-3.06,5.9-6.11,11.79c-.08.14-.11.34-.22.42-.4.26-.82.48-1.23.72-.05-.46-.29-1-.11-1.36,1-2,2.19-3.89,3.25-5.86s2-4,3.08-6a7.3,7.3,0,0,1,.85-1.28.71.71,0,0,1,.63-.16C146.64,13.13,146.73,13.42,146.86,13.64Z"/>
    <path d="M198.39,91.29a12.27,12.27,0,0,1-1.69.32c-5,.26-10,.49-14.93.73a1.34,1.34,0,0,1-.6,0,8.78,8.78,0,0,1-.94-.54c.31-.23.62-.65.94-.66,3.86-.21,7.73-.36,11.59-.52,1.44-.06,2.87-.15,4.3-.17a6,6,0,0,1,1.37.31Z"/>
    <path d="M85.37,18.49l-.55.71c-.28-.23-.73-.41-.8-.69-.3-1.2-.51-2.42-.74-3.63-.6-3.26-1.19-6.51-1.78-9.77a1.11,1.11,0,0,1,0-.47c.08-.35.21-.69.31-1,.26.3.68.55.76.89.47,2,.89,4,1.29,6,.48,2.42.94,4.85,1.4,7.28C85.25,17.94,85.29,18.13,85.37,18.49Z"/>
    <path d="M22.28,72.24,21,71.75c-3.54-1.55-7.09-3.11-10.64-4.64-.92-.4-1.87-.69-2.78-1.11-.25-.12-.38-.5-.57-.76a3.39,3.39,0,0,1,1-.42,2.16,2.16,0,0,1,.89.33l12.85,5.52a2.38,2.38,0,0,1,.75.36,3.75,3.75,0,0,1,.48.83Z"/>
    <path d="M187,53.49a8.93,8.93,0,0,1-.92.78c-4.21,2.46-8.41,4.92-12.65,7.33-.3.17-.83-.06-1.26-.1.19-.35.29-.84.59-1,1.14-.74,2.33-1.39,3.52-2.06,2.79-1.55,5.58-3.11,8.38-4.65a6.8,6.8,0,0,1,1.42-.6C186.27,53.1,186.55,53.32,187,53.49Z"/>
    <path d="M192.6,66.43a4.94,4.94,0,0,1-.9.64c-1.77.74-3.55,1.44-5.32,2.17-2.39,1-4.77,2-7.15,3-.18.08-.36.26-.53.25-.5,0-1-.12-1.49-.18.29-.36.5-.89.88-1,3.89-1.65,7.81-3.23,11.72-4.84a10.06,10.06,0,0,1,1.66-.66c.33-.07.72.16,1.09.26Z"/>
    <path d="M126.31,21.86c.14-.42.2-.7.31-.95q2.73-6.51,5.49-13c.11-.26.48-.41.74-.61.09.3.32.64.27.92a9.37,9.37,0,0,1-.58,1.69c-1.57,4-3.14,7.94-4.76,11.89-.15.35-.65.55-1,.83Z"/>
    <path d="M159.2,21.31a6.79,6.79,0,0,1-.5,1.13c-1,1.44-2.08,2.84-3.08,4.29-1.48,2.16-2.92,4.36-4.38,6.54a4.51,4.51,0,0,1-.81,1.17c-.27.21-.75.16-1.14.23,0-.36,0-.72,0-1.08,0-.06.08-.13.13-.2,2.81-3.88,5.61-7.76,8.44-11.63a4.68,4.68,0,0,1,1-.78Z"/>
    <path d="M72.7,22.39a4.54,4.54,0,0,1-.57-.69c-.69-1.27-1.35-2.54-2-3.82-1.48-2.87-3-5.74-4.4-8.63-.15-.3.12-.81.19-1.22.37.21.93.33,1.08.65,1.55,3.15,3,6.33,4.53,9.5.49,1.05,1,2.08,1.48,3.15a2.67,2.67,0,0,1,0,1Z"/>
    <path d="M4.23,77.2c.28.09.41.11.51.16,3.81,1.88,8,2.35,12.06,3.43a10,10,0,0,1,1.79.63c.21.1.26.5.38.77-.24.06-.52.24-.73.18C13.61,81.2,9,80,4.37,78.79a1.62,1.62,0,0,1-.83-.92C3.49,77.75,4,77.39,4.23,77.2Z"/>
    <path d="M12.74,53.92c.3.14.55.26.79.39L26,61.05s.08,0,.1.05l1,1.18a4.33,4.33,0,0,1-1.51-.17c-4.2-2.22-8.37-4.49-12.55-6.75a1.94,1.94,0,0,1-.65-.52.83.83,0,0,1-.07-.64C12.32,54.07,12.58,54,12.74,53.92Z"/>
    <path d="M180.77,82.49c-.15-.14-.57-.39-.53-.52.1-.33.33-.78.61-.87a26.78,26.78,0,0,1,2.69-.58c3.75-.74,7.51-1.5,11.27-2.2.38-.07.82.21,1.23.33-.32.26-.6.67-1,.75-4.55,1-9.12,2-13.68,2.94Z"/>
    <path d="M9.37,85.09c.64.06,1.29.11,1.93.2,1.89.26,3.78.52,5.65.85.39.07.71.49,1.06.75-.41.14-.84.43-1.23.38q-3.06-.42-6.11-1a5.94,5.94,0,0,1-1.45-.72Z"/>
    <path d="M22.27,52.65a3.94,3.94,0,0,1,1.21.23c1.94,1,3.86,2.08,5.76,3.2.32.19.44.71.65,1.07a4.39,4.39,0,0,1-1.11-.25c-1.74-.9-3.46-1.84-5.16-2.79-.53-.3-1-.68-1.51-1Z"/>
    <path d="M30.67,42.33a4.33,4.33,0,0,1,.82.36c1.74,1.25,3.48,2.5,5.19,3.81.24.19.3.63.44,1-.32,0-.73,0-1-.12-1.77-1.28-3.52-2.59-5.26-3.91a3.28,3.28,0,0,1-.51-.81Z"/>
    <path d="M187.94,86a9,9,0,0,1-1.45.58q-2.7.56-5.41,1c-.25,0-.54-.16-.81-.25.14-.26.22-.59.44-.75a2,2,0,0,1,.89-.29c1.73-.31,3.46-.61,5.19-.88a4.87,4.87,0,0,1,1.07.06Z"/>
    <path d="M63.31,18a6.67,6.67,0,0,0,.4,1c.93,1.63,1.9,3.24,2.8,4.89.15.28,0,.72,0,1.08-.3-.12-.76-.14-.88-.36-1-1.85-2-3.73-3-5.61-.07-.14,0-.36,0-.55Z"/>
    <path d="M78.77,19.69l-.49.72c-.21-.19-.52-.35-.6-.6-.63-1.79-1.24-3.6-1.8-5.42a3.68,3.68,0,0,1,0-1.19c.31.24.79.42.91.74C77.51,15.81,78.11,17.71,78.77,19.69Z"/>
    <path d="M91.65,10.53a31.49,31.49,0,0,1,.82,7.81C91.29,17.54,90.67,11.59,91.65,10.53Z"/>
    <path d="M51.55,24.11a9.6,9.6,0,0,1,.69.74c1.3,1.76,2.61,3.51,3.87,5.3.18.26.11.69.16,1-.34-.14-.8-.18-1-.42q-1.87-2.55-3.64-5.18a5.61,5.61,0,0,1-.45-1.27Z"/>
    <path d="M119.71,20.47a3.69,3.69,0,0,1,.06-.88c.54-1.91,1.08-3.82,1.67-5.71.1-.33.43-.58.65-.87a2.88,2.88,0,0,1,.21,1.12c-.41,1.69-.86,3.38-1.37,5a9,9,0,0,1-.78,1.47Z"/>
    <path d="M178.81,77.52a4,4,0,0,1,.83-.71c1.62-.77,3.24-1.52,4.9-2.21.32-.13.78,0,1.17.08-.27.28-.49.67-.83.83-1.5.73-3,1.39-4.57,2a8.23,8.23,0,0,1-1.29.36Z"/>
    <path d="M181.66,64.14a11.67,11.67,0,0,1-1,.7c-1.63.92-3.26,1.84-4.92,2.71-.24.13-.63,0-1,0,.13-.25.2-.62.41-.73q2.66-1.49,5.37-2.89a3.34,3.34,0,0,1,1-.16Z"/>
    <path d="M17.6,63.18a7.3,7.3,0,0,1,.95.22c1.68.64,3.36,1.26,5,2,.36.15.6.6.89.91-.43,0-.92.24-1.27.1-1.52-.61-3-1.29-4.48-2a10.5,10.5,0,0,1-1.27-.86Z"/>
    <path d="M45.91,38.4c-1.13-.17-5.39-4.25-5.49-5.25C41.56,33.22,45.65,37.14,45.91,38.4Z"/>
    <path d="M12.91,73.87a6.36,6.36,0,0,1,1.09.2c1.93.62,3.85,1.27,5.77,1.92a2.46,2.46,0,0,1,.75.35,1.66,1.66,0,0,1,.29.58,2,2,0,0,1-.61.22,1.82,1.82,0,0,1-.56-.18c-1.86-.68-3.73-1.34-5.59-2-.45-.16-.87-.4-1.3-.6Z"/>
    <path d="M136.23,18.66c-.23.65-.43,1.31-.7,1.93-.59,1.39-1.21,2.77-1.86,4.13-.11.22-.48.32-.74.47-.08-.27-.32-.61-.23-.8.93-1.93,1.9-3.83,2.88-5.74,0-.07.21-.09.31-.13Z"/>
    <path d="M158.92,32.37a33.52,33.52,0,0,1-4.75,6.1C154,37.41,157.66,32.65,158.92,32.37Z"/>
    <path d="M176.11,52.24l-.91.66c-1.55,1.11-3.08,2.25-4.65,3.33a3.84,3.84,0,0,1-1.22.31c.21-.35.33-.81.62-1,1.62-1.17,3.27-2.29,4.94-3.39a3.29,3.29,0,0,1,1.07-.25Z"/>
    <path d="M144.11,30.42c.06-1.18,3.24-6,4.07-6.09C148.27,25.38,145,30.37,144.11,30.42Z"/>
    <path d="M162.69,45.8l4.47-4.42C167.31,42.83,164.05,46.08,162.69,45.8Z"/>
    <path d="M106.48,10.89c-.14,2.42.59,4.83,0,7.25h-.4V10.88Z"/>
    <path d="M99.45,215.53c.26.45.73.91.71,1.34s-.6.76-.94,1.14c-.38-.39-1-.74-1.08-1.17s.49-.88.78-1.32Z"/>
    <path d="M101.12,226.12c-.7.56-1.14,1.17-1.53,1.14s-.79-.66-1.18-1c.39-.38.73-1,1.18-1.06S100.39,225.63,101.12,226.12Z"/>
    <path d="M43.87,63.06c-.84-1.22-1.58-2.17-2.15-3.2A1.56,1.56,0,0,1,42,58.6a40.76,40.76,0,0,1,7.21-8.46c1.69-1.46,3.3-3,4.94-4.55,3.68-3.4,8.06-5.73,12.43-8.07A64.75,64.75,0,0,1,82.11,31.3,76.89,76.89,0,0,1,101.45,29c5.11.1,10.22.42,15.11,2.16.91.32,1.77.56,1.61,1.83-.2,1.56-.55,1.83-2.1,1.57-4.21-.72-8.41-1.55-12.64-2.09a39.27,39.27,0,0,0-6.32.07,3.85,3.85,0,0,1-3.32-1.19c-1.21-1.32-4.37-1-5.62.68-1.84,2.52-4.5,2.83-7.19,3.11a9.43,9.43,0,0,0-4.62,1.7,24.79,24.79,0,0,1-5.56,2.74c-2.58,1-5.11,1.82-7.26,3.76-3.61,3.25-7.62,6.07-11.17,9.39-2.26,2.1-4,4.76-6,7.17C45.57,60.93,44.76,62,43.87,63.06Zm2.35-5.83c-.19-.15-.5-.53-.87-.6-.7-.14-1.9,1.09-1.83,1.89a1.2,1.2,0,0,0,.75.83C44.94,59.51,46.17,58.28,46.22,57.23Z" fill="#fff" fill-opacity="0.0"/>
    <path d="M116.36,45.36c1.1.34,2,.59,2.93.92,5.72,2.12,11.24,4.67,16,8.52A63.08,63.08,0,0,1,150.57,72a9,9,0,0,1,.72,1.37c1.47,3.84,2.91,7.69,4.37,11.52a1.21,1.21,0,0,1-.75,1.81c-2.67,1.07-3.07,1.46-3.91-1.86-1.19-4.72-2.87-9.37-6.08-13.18-3.49-4.15-7.13-8.19-10.76-12.23a9,9,0,0,0-2.46-2.07c-4.56-2.39-9.18-4.67-13.78-7-.32-.16-.67-.24-1-.37-2.14-.84-2.56-2.19-1.24-4.11A2.41,2.41,0,0,1,116.36,45.36Z" fill="#fff" fill-opacity="0.0"/>
    <path d="M170.14,97.41c.3.84-.15,1.12-.91,1.21s-1.74.45-2.09-.71a6.42,6.42,0,0,1-.37-2.11c.34-6-1.59-11.57-3.08-17.22-.4-1.5,0-2.18,1.4-2.64.76-.24,1.26,0,1.51.7,1.55,4.83,3,9.69,3.19,14.8C169.88,93.43,170,95.42,170.14,97.41Z" fill="#fff" fill-opacity="0.0"/>
    <path d="M133.3,42.28c.72.36,1.22.59,1.71.86a40.54,40.54,0,0,1,8.69,6.55c.63.62,1.33,1.16,1.94,1.79s1.33,1.27,1.21,1.58a8.16,8.16,0,0,1-1.8,2.33c-.13.14-.77,0-1-.22-1.31-1-2.55-2.07-3.86-3.05-2.55-1.9-5.11-3.81-7.73-5.63-1.32-.91-1.46-1.12-.55-2.43C132.3,43.44,132.81,42.87,133.3,42.28Z" fill="#fff" fill-opacity="0.0"/>
    <path d="M149.74,50.43A11,11,0,0,1,148,52.08a1.53,1.53,0,0,1-1.35-.22,36.77,36.77,0,0,1-3-2.57,39.85,39.85,0,0,0-8.75-6.64c-.7-.36-1.35-.78-.77-1.76.76-1.3,1.42-1.66,2.41-1.11a51.84,51.84,0,0,1,12.24,9.35A12.82,12.82,0,0,1,149.74,50.43Z" fill="#fff" fill-opacity="0.0"/>
    <path d="M31.34,79.94a11.33,11.33,0,0,1,.34-1.27c1.6-4,3.19-8,4.83-12,.14-.36.53-.61.81-.92a9,9,0,0,0,.46,1.11,4.52,4.52,0,0,0,1,1.47,1.43,1.43,0,0,1,.59,2C38,73.57,36.61,76.8,35.25,80c-.25.58-.35,1.23-.6,1.81-.18.42-.47,1.06-.75,1.09a1.82,1.82,0,0,1-1.26-.65,23.14,23.14,0,0,1-1.52-2.15Z" fill="#fff" fill-opacity="0.0"/>
    <path d="M105.75,38c3.11.4,6.08.74,9,1.18,1.36.2,1.52.56,1.11,1.88-1.11,3.59-1,3-4,2.3-2.89-.69-5.88-1-8.83-1.42-.75-.11-1.68.1-1.81-1.08-.15-1.46.22-2.14,1.49-2.4C103.75,38.19,104.82,38.09,105.75,38Z" fill="#fff" fill-opacity="0.0"/>
    <path d="M103.39,42.17l9.81,2.16a1.31,1.31,0,0,1,1.08,1.79c-.08.39-.24.77-.32,1.16-.2,1-.8,1.16-1.76,1-3-.52-5.92-.91-8.87-1.42-.69-.12-1.81-.37-1.92-.79a6.62,6.62,0,0,1,0-3.16C101.5,42.57,102.55,42.46,103.39,42.17Z" fill="#fff" fill-opacity="0.0"/>
    <path d="M153.13,59.55l2.71,4.24c.88,1.39.84,1.54-.58,2.23-.29.14-.59.26-.87.41a1.24,1.24,0,0,1-1.84-.41q-3-4-6.19-7.95a1.21,1.21,0,0,1,0-1.79c2.25-2.7,1.67-2.5,3.69-.1,1,1.16,2,2.26,3,3.39Z" fill="#fff" fill-opacity="0.0"/>
    <path d="M63.37,49.73a15.52,15.52,0,0,1,1.86,2.17c.15.26-.25,1-.59,1.36-.88.87-1.86,1.63-2.8,2.43L56.78,60a2.45,2.45,0,0,0-.38.6c-.66,1.17-1,1.3-1.93.7-1.37-.92-1.65-1.69-.87-2.65a42.36,42.36,0,0,1,8.6-8.26C62.52,50.2,62.88,50,63.37,49.73Z" fill="#fff" fill-opacity="0.0"/>
    <path d="M36.87,83.65c-1.74,0-2.23-.61-1.6-2.24,1.38-3.53,2.87-7,4.33-10.52.34-.83.92-1.32,1.88-1,1.39.5,2.1,1.43,1.68,2.46-.49,1.22-1.24,2.32-1.76,3.52a56.83,56.83,0,0,0-2.36,6C38.58,83.36,38.42,83.68,36.87,83.65Z" fill="#fff" fill-opacity="0.0"/>
    <path d="M153.14,59.57c-1.2-1.59-2.37-3.21-3.62-4.76a1.48,1.48,0,0,1,.18-2.29c.8-.76,1.62-.89,2.38,0,1.28,1.47,2.53,3,3.73,4.5s2.44,3.26,3.66,4.88c.56.74.92,1.41-.09,2.1-1.3.89-2.29.87-3-.13-1.07-1.43-2.15-2.86-3.22-4.3Z" fill="#fff" fill-opacity="0.0"/>
    <path d="M118,39.15c0-2.57,1-3.29,2.92-2.54,2.71,1.06,5.41,2.14,8.11,3.22.56.22,1.08.52,1.62.78.9.43,1,1,.43,1.82l-.2.3c-1.26,2-1.22,1.9-3.35.92-2.78-1.29-5.63-2.4-8.44-3.64A4.68,4.68,0,0,1,118,39.15Z" fill="#fff" fill-opacity="0.0"/>
    <path d="M119.23,35c0-1.92.8-2.65,2.21-2.09,3.82,1.5,7.6,3.12,11.37,4.76.59.26,1.45.57,1,1.57a2,2,0,0,1-2.52,1.22c-1.54-.66-3-1.41-4.59-2.05-2.11-.88-4.25-1.65-6.35-2.53A4.71,4.71,0,0,1,119.23,35Z" fill="#fff" fill-opacity="0.0"/>
    <path d="M44.77,70.06c.17-.4.28-.7.43-1A29.31,29.31,0,0,1,51,61.81c1-.9,1.26-.83,2.51.29.8.71,1.15,1.42.33,2.34a27.68,27.68,0,0,0-5,7.14c-.36.8-.9.91-1.62.4-.56-.38-1.19-.67-1.73-1.06A4.32,4.32,0,0,1,44.77,70.06Z" fill="#fff" fill-opacity="0.0"/>
    <path d="M28.45,97.94c.36-3.58.69-7,1.08-10.49.18-1.5.62-1.76,2.21-1.56,1.1.13,1.6.76,1.45,2-.41,3.41-.84,6.82-1.32,10.22-.22,1.51-.72,1.77-2.35,1.57C28.25,99.57,28.52,98.61,28.45,97.94Z" fill="#fff" fill-opacity="0.0"/>
    <path d="M55.3,63.69c1.64.1,2.81,2.13,2,3.38-1.47,2.32-3,4.62-4.54,6.87a1.47,1.47,0,0,1-1.29.38,5.27,5.27,0,0,1-1.86-1,1.37,1.37,0,0,1-.39-1.18A22.91,22.91,0,0,1,54.79,64,2.13,2.13,0,0,1,55.3,63.69Z" fill="#fff" fill-opacity="0.0"/>
    <path d="M49,57.44A26.9,26.9,0,0,1,50.89,60a1.5,1.5,0,0,1,0,1.34c-2.07,2.68-4.2,5.3-6.33,7.94-.73.9-1.42.32-2.09-.1s-1.37-.86-.71-1.78q3.08-4.35,6.18-8.66C48.25,58.23,48.65,57.81,49,57.44Z" fill="#fff" fill-opacity="0.0"/>
    <path d="M87.63,43.28c.44.46.72.73,1,1a.56.56,0,0,1,.07.23c1,4,1.37,3.22-2.26,4.33-1.49.46-3,.88-4.51,1.23a1.44,1.44,0,0,1-1.21-.36,16.13,16.13,0,0,1-1.6-2.53c-.11-.22,0-.82.14-.87C82,45.28,84.76,44.31,87.63,43.28Z" fill="#fff" fill-opacity="0.0"/>
    <path d="M162.35,95.8c0,2.88-1,3.63-3.29,2.9a1.21,1.21,0,0,1-.68-.83q-.57-4.75-1-9.51a1.71,1.71,0,0,1,2.2-1.71.8.8,0,0,1,.53.4C161,90.13,162.72,93,162.35,95.8Z" fill="#fff" fill-opacity="0.0"/>
    <path d="M99.69,44.59c0,2.34-.29,2.06-1.89,2.18-2,.16-4,.54-6.06.72a1.4,1.4,0,0,1-1.09-.69,17.85,17.85,0,0,1-.75-2.52c-.24-.82.14-1.25.9-1.34,2.18-.27,4.35-.61,6.54-.72S99.7,42.35,99.69,44.59Z" fill="#fff" fill-opacity="0.0"/>
    <path d="M76.76,46.28a8.12,8.12,0,0,1-1,.74c-1.57.78-3.17,1.51-4.73,2.32-1,.53-2,1.13-3,1.75s-1.65,0-2.21-.83S65,48.8,66,48.18c2.67-1.58,5.33-3.2,8-4.77.23-.13.77-.19.86-.07C75.54,44.25,76.1,45.21,76.76,46.28Z" fill="#fff" fill-opacity="0.0"/>
    <path d="M87,39.3c.12,0,.33,0,.34,0a13.9,13.9,0,0,1,.78,2.39,1.32,1.32,0,0,1-.57,1.11c-2.78,1-5.57,2-8.4,2.78-1.32.37-1.36-1.08-1.86-1.79s-.08-1.28.56-1.58a42.44,42.44,0,0,1,4.71-2A43.73,43.73,0,0,1,87,39.3Z" fill="#fff" fill-opacity="0.0"/>
    <path d="M157.79,96.46c0,.32,0,.63,0,1,0,.76-.14,1.33-1.09,1.37s-1.45-.14-1.75-1.16a10.86,10.86,0,0,0-1.5-3.17c-1-1.46-1-3.14-1.26-4.77,0-.29.5-.79.87-1,.68-.33,1.45-.46,2.15-.72.91-.33,1.42,0,1.56.89.41,2.51.79,5,1.17,7.55Z" fill="#fff" fill-opacity="0.0"/>
    <path d="M96.72,37.63h1c1.92,0,2,0,2,2s-.08,1.93-2,2c-1.54.06-3.08.29-4.62.46-.44,0-.87.18-1.3.21a2.17,2.17,0,0,1-2.4-3.1,1.69,1.69,0,0,1,1.15-.84c2.07-.38,4.16-.66,6.25-1Z" fill="#fff" fill-opacity="0.0"/>
    <path d="M102.78,33.23a6.68,6.68,0,0,0-.89.67,12.55,12.55,0,0,0-2,2.19,2.28,2.28,0,0,1-2,1.24c-2.58.21-5.16.43-7.73.68-1,.1-1.21-.5-1.35-1.28s.33-1,1-1c1.85-.05,3.61-.33,4.64-2.16a.81.81,0,0,1,.6-.33c2.5-.16,5-.3,7.49-.44Z" fill="#fff" fill-opacity="0.0"/>
    <path d="M68.4,56.69a7.58,7.58,0,0,1-.91,1c-1.34,1.07-2.68,2.16-4.1,3.12a2.57,2.57,0,0,1-1.62.13,4.24,4.24,0,0,1-1.16-.59c-1.61-.84-1.78-1.3-.5-2.54,1.58-1.53,3.31-2.89,5-4.31.71-.6,1.27-.42,1.71.4S67.84,55.72,68.4,56.69Z" fill="#fff" fill-opacity="0.0"/>
    <path d="M140.23,52.83,136.64,55a2.09,2.09,0,0,1-.53-.26l-6.92-4.48c-1.39-.9-1.4-1-.21-2.08A6.44,6.44,0,0,0,130,46.89a1.11,1.11,0,0,1,1.73-.39c2.58,1.8,5.15,3.63,7.71,5.46A5.82,5.82,0,0,1,140.23,52.83Zm-6-1.07c.17-.22.67-.61.74-1.06.13-.8-1.28-1.83-2.32-1.84-.7,0-1.17.29-1.17,1S132.77,51.78,134.18,51.76Z" fill="#fff" fill-opacity="0.0"/>
    <path d="M161.82,75.09a2.84,2.84,0,0,1-2.24,2.21c-.38,0-.92-.57-1.18-1-1.25-2.18-2.41-4.4-3.64-6.59-.64-1.13-.6-1.39.56-2.08,2.18-1.29,2.21-1.27,3.32,1,.88,1.79,1.8,3.56,2.69,5.35C161.54,74.35,161.7,74.8,161.82,75.09Z" fill="#fff" fill-opacity="0.0"/>
    <path d="M76.57,47.31c.8,0,1.26.67.79,1.2q-3.21,3.54-6.56,7c-.53.54-1.17.4-1.62-.28L69.05,55c-2-2.84-2-2.86,1-4.48,1.87-1,3.77-1.93,5.66-2.89A7.22,7.22,0,0,1,76.57,47.31Z" fill="#fff" fill-opacity="0.0"/>
    <path d="M165.44,73.26c-.32,1.16-1.34,1.45-2.2,1.89s-1-.23-1.27-.72c-1.2-2.29-2.36-4.62-3.58-6.9-.63-1.16,0-1.65.92-2.11,1.25-.64,1.87-.58,2.43.45.77,1.4,1.44,2.85,2.15,4.28C164.4,71.19,164.92,72.22,165.44,73.26Z" fill="#fff" fill-opacity="0.0"/>
    <path d="M106.57,37.49c.46-1.21.77-2.19,1.2-3.11a1.12,1.12,0,0,1,.93-.48c2.49.36,5,.77,7.45,1.19,1.23.2,1.13,1.16,1,2s-.49,1.67-1.46,1.56C112.69,38.36,109.66,37.91,106.57,37.49Z" fill="#fff" fill-opacity="0.0"/>
    <path d="M62.47,44.81c.24,1.49.47,2.7.6,3.91a1.1,1.1,0,0,1-.44.77c-1.74,1.41-3.51,2.78-5.25,4.18-.5.41-.85.39-1.3-.12-1.66-1.87-1.7-1.88.14-3.62,1.43-1.35,2.9-2.64,4.39-3.91A16.7,16.7,0,0,1,62.47,44.81Z" fill="#fff" fill-opacity="0.0"/>
    <path d="M39.8,80.28c.9-1.92,1.67-3.59,2.47-5.25.31-.65.69-1.25,1-1.9.57-1.21,1.2-1.42,2.37-.74.31.18.6.4.9.59A1.29,1.29,0,0,1,47,75a32,32,0,0,0-1.56,3.23,2,2,0,0,1-1.9,1.34C42.43,79.66,41.37,80,39.8,80.28Z" fill="#fff" fill-opacity="0.0"/>
    <path d="M124.34,42.71a36.91,36.91,0,0,1-2.45,3,2,2,0,0,1-1.57.38A20.26,20.26,0,0,1,117,44.83a1.12,1.12,0,0,1-.58-.89,27.72,27.72,0,0,1,.89-3.33.76.76,0,0,1,.66-.32A22.15,22.15,0,0,1,124.34,42.71Z" fill="#fff" fill-opacity="0.0"/>
    <path d="M36.65,94.41c-.09,1-.24,1.9-.27,2.85-.05,2.07-1.14,2.21-3.06,2.15-.25,0-.69-.67-.66-1,.24-2.82.56-5.63.88-8.44a2.76,2.76,0,0,1,.38-.82,2.68,2.68,0,0,1,.78.44C35.88,91,37.06,92.37,36.65,94.41Z" fill="#fff" fill-opacity="0.0"/>
    <path d="M157.77,76.09c-1.56-.16-3-.3-4.46-.48a.8.8,0,0,1-.56-.38c-.94-1.8-1.85-3.61-2.77-5.43,0,0,.06-.14,0-.06,1.15-.32,2.2-.64,3.26-.89a.81.81,0,0,1,.7.24c1.29,2.34,2.54,4.69,3.79,7C157.77,76.17,157.69,76.27,157.77,76.09Z" fill="#fff" fill-opacity="0.0"/>
    <path d="M49.47,81.58c-1.41-.73-2.58-1.3-3.71-2a.93.93,0,0,1-.24-.86c.67-1.36,1.38-2.7,2.16-4a1.12,1.12,0,0,1,1-.43,15.54,15.54,0,0,1,2.56,1.25,1,1,0,0,1,.34.9C50.91,78.18,50.19,79.85,49.47,81.58Z" fill="#fff" fill-opacity="0.0"/>
    <path d="M74.35,38.84a3.57,3.57,0,0,1-1.45,4.68c-1.11.63-2.22,1.26-3.35,1.87a13.38,13.38,0,0,1-1.34.53c0-.57,0-1,0-1.33a5.74,5.74,0,0,0,.25-1.88c-.37-1.45.43-1.9,1.54-2.3,1.36-.48,2.67-1.06,4-1.59A.92.92,0,0,1,74.35,38.84Z" fill="#fff" fill-opacity="0.0"/>
    <path d="M149.38,62.7l-2.95,2.37-5-5.67c1-.36,1.76-.59,2.5-.93a2.19,2.19,0,0,1,3,.84C147.75,60.48,148.6,61.64,149.38,62.7Z" fill="#fff" fill-opacity="0.0"/>
    <path d="M165.19,85.46c-3,0-4.87-1.65-5.17-4.32a2.75,2.75,0,0,1,1.82-3.27c.61-.28,1.17-.21,1.37.45C163.89,80.63,164.51,83,165.19,85.46Z" fill="#fff" fill-opacity="0.0"/>
    <path d="M44.65,85.64c3.45.31,3.4.46,2.35,3.57a3.45,3.45,0,0,1-3.09,2.48,6.51,6.51,0,0,1-1.85-.36c.16-.74.3-1.49.49-2.22.13-.48.58-1,.49-1.39C42.67,86,42.91,85.6,44.65,85.64Z" fill="#fff" fill-opacity="0.0"/>
    <path d="M81.57,40c.24-1.42.45-2.77.71-4.1a.72.72,0,0,1,.45-.48c1.16-.27,2.33-.5,3.5-.73.11,0,.32,0,.34,0a22,22,0,0,1,.94,3.23c0,.3-.6.94-1,1C84.88,39.4,83.24,39.66,81.57,40Z" fill="#fff" fill-opacity="0.0"/>
    <path d="M154.71,80c1.64.27,3.14.14,4.13.79.82.55,1.21,2,1.5,3.06.25.94-.77,1.07-1.41,1.3-2.62.92-2.26,1-3.18-1.56C155.35,82.46,155.08,81.29,154.71,80Z" fill="#fff" fill-opacity="0.0"/>
    <path d="M166.43,96.46v.36a1.91,1.91,0,0,1-3,1.85,1.17,1.17,0,0,1-.52-.84c-.17-1.5-.27-3-.4-4.51,0-.66.21-1,.91-.86l.11,0C166.3,93,166.19,92.16,166.43,96.46Z" fill="#fff" fill-opacity="0.0"/>
    <path d="M44.77,94.7c1.28-.06,1.51.12,1.43,1.37a11.6,11.6,0,0,1-.36,2.36,1.82,1.82,0,0,1-.75.81,1.16,1.16,0,0,1-.81.18c-.94-.17-2.4-.13-2.69-.68-.45-.85-.13-2.13,0-3.21,0-.2.52-.44.84-.51C43.18,94.87,44,94.8,44.77,94.7Z" fill="#fff" fill-opacity="0.0"/>
    <path d="M37.38,93.38c2.38.28,3.29,1.27,3.28,3.39,0,.31,0,.63,0,1,0,1.37-.3,1.64-1.71,1.69s-2-.27-2-1.8S37.23,94.79,37.38,93.38Z" fill="#fff" fill-opacity="0.0"/>
    <path d="M27.72,83c-.44-.08-1.14-.2-1.84-.35s-1.19-.65-.94-1.36c.18-.51.65-1.19,1.11-1.3a3.91,3.91,0,0,1,3.68,1.23,1,1,0,0,1-.55,1.69A12.09,12.09,0,0,1,27.72,83Z" fill="#fff" fill-opacity="0.0"/>
    <path d="M38.36,86.34c1,.84,1.86,1.49,2.65,2.18a2.2,2.2,0,0,1,.26,2.65.91.91,0,0,1-.57.34c-.88.14-2.81-1.32-2.79-2.23A19.48,19.48,0,0,1,38.36,86.34Z" fill="#fff" fill-opacity="0.0"/>
    <path d="M57.7,60.53c1.2.62,2.25,1.15,3.29,1.71a.52.52,0,0,1,.17.41c0,.89-2,1.93-2.71,1.46a10.6,10.6,0,0,1-1.46-1c-.28-.26-.67-.79-.58-1A8.92,8.92,0,0,1,57.7,60.53Z" fill="#fff" fill-opacity="0.0"/>
    <path d="M163.45,67a9.94,9.94,0,0,1,.83.62c1.18,1.07,2.37,2.15,3.53,3.24.5.47.71,1,0,1.47s-1.31,1.19-1.9.17c-1-1.71-1.83-3.51-2.73-5.28Z" fill="#fff" fill-opacity="0.0"/>
    <path d="M48,84.66c-1.36-.07-2.39-.08-3.41-.19-.66-.07-1-.46-.7-1.17s.18-1.89,1.4-2A2.17,2.17,0,0,1,47.38,83C47.57,83.41,47.7,83.89,48,84.66Z" fill="#fff" fill-opacity="0.0"/>
    <path d="M63.87,66.18c-.31.44-.5.95-.85,1.12s-.78-.13-1.1-.34a6.24,6.24,0,0,1-1.16-1c-.39-.41-1.22-.71-.43-1.5,1-1,1.71-1.18,2.4-.31A13.48,13.48,0,0,1,63.87,66.18Z" fill="#fff" fill-opacity="0.0"/>
    <path d="M36.76,88.55,34.44,85c1.18-.43,2.24-.69,2.9,0,1,1,.06,2.21-.12,3.32Z" fill="#fff" fill-opacity="0.0"/>
    <path d="M41.62,84.05c-.17-.16-.78-.5-.83-.9-.12-1,1.2-2.1,2.27-2a1,1,0,0,1,.69.68A2.11,2.11,0,0,1,41.62,84.05Z" fill="#fff" fill-opacity="0.0"/>
    <path d="M55.42,138.48c.92-.56,1.64-1.07,2.43-1.45,1.84-.87,3.71-1.67,5.56-2.52a5.19,5.19,0,0,0,.92-.66l-.14-.45a12.48,12.48,0,0,0-1.74.36c-2.24.84-4.45,1.79-6.7,2.6-3.56,1.27-6.86.48-10-1.46-.35-.22-.51-.73-.76-1.11a4.28,4.28,0,0,1,1.08-.6c3-.72,6-1.39,9-2.1a28.45,28.45,0,0,0,3-.85c.36-.13.63-.55.94-.83-.41-.13-.87-.46-1.22-.37-1.44.35-2.84.83-4.25,1.27a28.4,28.4,0,0,1-8.92,1.61A20.67,20.67,0,0,1,32,127.22a9.21,9.21,0,0,1-.72-.78,5.45,5.45,0,0,1,1.39-.44c.87,0,1.75.12,2.62.17a68.49,68.49,0,0,0,17-1.22c.36-.07.64-.55,1-.83-.37-.15-.77-.47-1.12-.43-2.29.31-4.56.76-6.86,1a38.11,38.11,0,0,1-15.43-1,11.18,11.18,0,0,1-5.09-3c-1.37-1.45-2.81-2.84-4.18-4.3a4.13,4.13,0,0,1-.52-1.12,4,4,0,0,1,1.21-.18c3.92.76,7.84,1.56,11.76,2.34a9.91,9.91,0,0,0,1.54.14l15.69.57a5,5,0,0,0,1.07.1,12.23,12.23,0,0,0,1.57-.45l0-.47a11.33,11.33,0,0,0-1.26-.27c-3.94-.31-7.88-.63-11.82-.91a27.12,27.12,0,0,0-3,0,40,40,0,0,1-15-2.71,12.94,12.94,0,0,1-7-5.9c-.79-1.43-1.44-2.94-2.1-4.44a5.86,5.86,0,0,1-.21-1.41,10.36,10.36,0,0,1,1.08.3,69.83,69.83,0,0,0,20,5.3c7.18.84,14.36,1.68,21.55,2.36a130.6,130.6,0,0,0,13.4.71c4.1,0,8.19-.65,12.28-1a4.92,4.92,0,0,1,1.07-.11c2.58.3,4.53-1,6.39-2.51a6.87,6.87,0,0,0,2.45-6.13c-.36-4.27,1.41-7.46,4.25-10.37,1.44-1.48,2.6-3.23,3.89-4.85.19-.24.41-.47.74-.85.42.48.77.87,1.1,1.29a32.59,32.59,0,0,0,3.14,3.93c3,2.78,4,6.31,4.41,10.19.08.92.15,1.84.29,2.74a5.64,5.64,0,0,0,2.32,3.79,12.31,12.31,0,0,0,7.16,2.73c3.11.08,6.22.28,9.33.25,5.92-.08,11.83-.26,17.74-.45,3.91-.12,7.84-.14,11.72-.53,5.52-.55,11.05-1.16,16.49-2.2,4.22-.81,8.29-2.33,12.43-3.52a7.41,7.41,0,0,1,.95-.17c0,.27.12.45.06.56-2.29,4.78-5.05,9.18-10.36,11.06a34.86,34.86,0,0,1-7.31,1.73c-4,.46-8,.68-11.94.81-3.23.1-6.47-.08-9.71-.13a1.67,1.67,0,0,0-.71,0,4.77,4.77,0,0,0-.76.6,4.39,4.39,0,0,0,.79.59,2.34,2.34,0,0,0,.84,0c3.67.08,7.35.28,11,.18s7.57-.49,11.35-.78c1.35-.1,2.7-.28,4.06-.33a4.08,4.08,0,0,1,1.29.4,3.69,3.69,0,0,1-.45,1.26c-3,3.41-6.58,5.8-11.33,6-3.43.11-6.87.42-10.3.42-2.46,0-4.93-.37-7.4-.55a10.72,10.72,0,0,0-1.38.07l-.07.61a17.93,17.93,0,0,0,3.31.86c2.46.17,4.94.17,7.41.18s5-.1,7.54-.1c.39,0,1.06.23,1.11.45a1.57,1.57,0,0,1-.4,1.25,10,10,0,0,1-2.34,1.83A21.68,21.68,0,0,1,147.52,132c-2.53-.4-5-.89-7.55-1.29a3.36,3.36,0,0,0-1.14.21c.28.33.52.89.86,1,2.54.48,5.11.88,7.67,1.29.85.13,1.7.21,2.8.35-.34.5-.46.86-.68,1-1.65.69-3.27,1.7-5,1.9a18.34,18.34,0,0,1-9.87-1.33,7.77,7.77,0,0,0-1.53-.37l-.25.44A4.86,4.86,0,0,0,134,136c1.12.42,2.29.72,3.42,1.1a13.69,13.69,0,0,1,1.43.69,5.3,5.3,0,0,1-3.65,1.57,18.33,18.33,0,0,1-7.76-1.2,2.12,2.12,0,0,0-.8-.25,7.6,7.6,0,0,0-1.24.26c.26.3.47.71.8.87,1.13.55,2.3,1,3.46,1.5a2.88,2.88,0,0,1-3.72,1.63,56.61,56.61,0,0,1-7.39-2.78,11.23,11.23,0,0,1-3.49-2.85,50.76,50.76,0,0,1-4.17-5.7,19.08,19.08,0,0,1-1.28-3.31,8.4,8.4,0,0,0-.48-.88c-.26.26-.65.48-.74.79a14.94,14.94,0,0,0-.39,2.12,86.77,86.77,0,0,1-4.65,16.23,24,24,0,0,0-.93,13.29c.89,4.45,1.41,9,2,13.49a9.86,9.86,0,0,1-3.08,8.59,1.92,1.92,0,0,1-2.81.17c-3.71-2.74-4.94-6.49-4.45-11,.54-4.93,1.23-9.84,1.5-14.78.29-5.24-1.43-10.1-3.88-14.66a39,39,0,0,1-4.26-13.41,3.49,3.49,0,0,0-.6-1.07,5.57,5.57,0,0,0-.83.77c-2,2.93-3.75,6.08-6,8.77a23.31,23.31,0,0,1-8.73,6.36c-1.77.74-3.47.05-5.12-.53-.87-.3-.9-1-.09-1.5,1.24-.79,2.57-1.45,3.82-2.23.3-.19.44-.62.66-.94-.42-.05-.93-.28-1.25-.12a42.09,42.09,0,0,0-3.73,2.17,10.43,10.43,0,0,1-5.62,1.4A6.36,6.36,0,0,1,55.42,138.48Z" fill="#fff" fill-opacity="0.0"/>
    <path d="M91.39,155.49c-.89,1.87-1.78,3.74-2.65,5.61s-1.69,3.71-2.53,5.55a5.12,5.12,0,0,1-1.67-5.14,45.25,45.25,0,0,1,2-5.6c1.49-3.52,3.07-7,4.62-10.51.11-.25.24-.5.52-1.05a6.65,6.65,0,0,1,.89,1.27A31.6,31.6,0,0,1,94.3,160.7c-.46,3.81-.9,7.61-1.27,11.42a17.46,17.46,0,0,0,.11,3.23c.09.92-.08,1.75-1,2.09s-1.45-.44-1.85-1.12a15.07,15.07,0,0,1-.45-15.51c.67-1.31,1.28-2.67,1.88-4a6.29,6.29,0,0,0,.25-1.06Z" fill="#fff" fill-opacity="0.0"/>
    <path d="M105.36,144.9a9,9,0,0,1,.59,1.45c1,4.83,3.37,9.1,5.61,13.41a10.49,10.49,0,0,1,1.22,6.6c-.07.43-.5,1.15-.75,1.15a2.37,2.37,0,0,1-1.37-.74,2.78,2.78,0,0,1-.53-1.06c-1.09-2.87-2.14-5.76-3.26-8.62-.14-.36-.58-.61-.88-.91a3.58,3.58,0,0,0-.14,1.31c.4,1.21,1,2.36,1.38,3.57a75,75,0,0,1,2.43,7.63c.58,2.61-.34,5.14-1.24,7.59-.1.28-.75.67-.83.61-.65-.51-1.62-1-1.75-1.71-.62-3.09-1-6.22-1.46-9.34s-.75-6.27-1.28-9.37a17.11,17.11,0,0,1,.87-8.6c.35-1,.64-2,1-3Z" fill="#fff" fill-opacity="0.0"/>
    <path d="M117.36,91.25c3.33-3.15,17-4.14,18.41-1.4C133.52,90.79,118.58,92,117.36,91.25Z" fill="#fff" fill-opacity="0.0"/>
    <path d="M120.48,92.51A132.42,132.42,0,0,1,136,90.86l.18.52a4.87,4.87,0,0,1-1.25.91,22.83,22.83,0,0,1-5.38,1.49,55.57,55.57,0,0,1-7.73-.29,4.73,4.73,0,0,1-1.37-.53Z" fill="#fff" fill-opacity="0.0"/>
    <path d="M64.39,91.5l15.11-.45C78.06,93.88,66.17,94.33,64.39,91.5Z" fill="#fff" fill-opacity="0.0"/>
    <path d="M65.34,90.68c1.63-2,11.32-2.29,14-.45C74.46,91,69.88,90.26,65.34,90.68Z" fill="#fff" fill-opacity="0.0"/>
    <path d="M109,80.91A3.7,3.7,0,0,1,109,80c1.75-5.36,4.87-9.6,10-12.12a5.48,5.48,0,0,1,1.65-.24,6.39,6.39,0,0,1-.72,1.51c-3.21,3.68-6.46,7.32-9.7,11-.3.34-.66.64-1,1Z" fill="#fff" fill-opacity="0.0"/>
    <path d="M120.83,70a20.42,20.42,0,0,1-8.9,10.09C111.92,78.45,118.57,70.82,120.83,70Z" fill="#fff" fill-opacity="0.0"/>
    <path d="M99.37,76.1c-3.39-3.31-3.72-15.23-.14-17.49.18,6,.36,11.7.54,17.45Z" fill="#fff" fill-opacity="0.0"/>
    <path d="M100.77,72.19c-.8-1.58-1.15-10.75-.47-12.44C102.19,61.42,102.52,70,100.77,72.19Z" fill="#fff" fill-opacity="0.0"/>
    <path d="M88.09,80.72c-4.18.36-12.33-8.22-11.77-12.16C80.25,72.61,84.06,76.55,88.09,80.72Z" fill="#fff" fill-opacity="0.0"/>
    <path d="M78.36,68.91c3.19.48,9.33,7.07,9.19,9.87C85.85,78.17,78.43,70.2,78.36,68.91Z" fill="#fff" fill-opacity="0.0"/>
    <path d="M99.64,206.75A9.27,9.27,0,0,1,99.3,205c.14-5.18.32-10.36.49-15.54a1.7,1.7,0,0,1,.15-.45C102.8,191.1,102.78,204.42,99.64,206.75Z" fill="#fff" fill-opacity="0.0"/>
    <path d="M98.84,189.39c.84,5.29.2,10.56-.51,16a5.45,5.45,0,0,1-.75-1.2,21.28,21.28,0,0,1,.25-13.83,5.69,5.69,0,0,1,.69-1Z" fill="#fff" fill-opacity="0.0"/>
    <path d="M89.24,185a30.88,30.88,0,0,1-6.65,13l-.46-.12a3.57,3.57,0,0,1,.14-1.2c1.84-3.62,3.72-7.23,5.61-10.82a6.84,6.84,0,0,1,1-1.12Z" fill="#fff" fill-opacity="0.0"/>
    <path d="M81.84,196.29c-1.22-3,3.45-12,6.3-12.2C86,188.16,84,192.09,81.84,196.29Z" fill="#fff" fill-opacity="0.0"/>
    <path d="M109.27,184.39l7.6,12.2-.31.36a7.12,7.12,0,0,1-1.23-.63,16,16,0,0,1-5-6.47c-.53-1.29-1-2.59-1.48-3.91a5.75,5.75,0,0,1-.17-1.32Z" fill="#fff" fill-opacity="0.0"/>
    <path d="M116.75,195c-2.65-3.13-4.15-6.66-6.34-10C112.66,185.48,117,192.29,116.75,195Z" fill="#fff" fill-opacity="0.0"/>
    <path d="M46.22,57.23c0,1.05-1.28,2.28-1.95,2.12a1.2,1.2,0,0,1-.75-.83c-.07-.8,1.13-2,1.83-1.89C45.72,56.7,46,57.08,46.22,57.23Z"/>
    <path d="M134.18,51.76c-1.41,0-2.75-1-2.75-1.85s.47-1,1.17-1c1,0,2.45,1,2.32,1.84C134.85,51.15,134.35,51.54,134.18,51.76Z"/>
  </g>
</svg>
