<svg xmlns="http://www.w3.org/2000/svg" viewBox="0 0 499.03 498.03"><path fill="#fff" d="M491.86 240.31c-.98 1.11-24.3 26.86-58.76 6.61-21.62-12.7-41.02-15.88-52.62-16.47 1.35-.76 2.42-1.35 2.73-1.51 8.58-4.54 17.86-6.56 25.81-7.95 20.93-3.64 34.39-15.49 36.03-31.71l.73-7.26c14.75-8.38 23.87-21.1 25.43-36.61l1.09-10.86-3.37 10.38c-.11.35-11.72 34.3-51.33 29.35-24.91-3.09-43.96 1.68-54.83 5.73.92-1.22 1.67-2.18 1.91-2.48 6.07-7.56 13.79-13.1 20.55-17.53 17.77-11.64 25.44-27.86 20.52-43.39l-2.21-6.95c10.23-13.54 13.55-28.83 8.84-43.69l-3.27-10.32.99 10.79c.14 1.47 2.87 36.1-35.49 47.29-28.3 8.26-44.85 23.07-52.31 31.33.65-3.83 1.95-8.89 2.29-10.08 2.57-9.35 7.47-17.5 11.92-24.24 11.7-17.73 12.32-35.66 1.64-47.97l-4.78-5.51c4.02-16.48 1.02-31.84-9.2-43.62l-7.1-8.18 5.19 9.51c.71 1.29 16.94 32-13.84 57.48-27.12 22.45-35.18 47.02-37.05 54.21-1.11-4.31-2.04-10.67-2.05-10.73-1.33-9.59-.07-19.02 1.34-26.97 3.72-20.92-2.82-37.62-17.5-44.69l-6.58-3.17c-2.84-16.73-11.68-29.64-25.73-36.4L211.09 0l8.53 6.68c1.16.91 28.23 22.67 10.07 58.26-16.07 31.48-13.61 57.47-12.53 64.47-1.1.3-2.21.61-3.3.94-2.7-2.7-6.84-8.22-7.78-9.52-5.68-7.86-8.98-16.78-11.45-24.46-6.52-20.22-20.22-31.96-36.41-31.28l-7.29.29c-9.95-12.92-23.14-20.14-37.98-20.14-.6 0-1.2.01-1.81.03l-10.82.42 10.66 1.9c1.45.26 35.57 6.8 36.21 46.75.55 34.45 13.96 55.76 18.81 62.37-3.56-1.06-9.66-3.83-11.35-4.64-8.76-4.19-15.91-10.45-21.75-16.01-15.39-14.65-32.94-18.42-46.93-10.08l-6.27 3.73c-15.51-6.87-31.16-6.62-44.56 1.36l-9.31 5.54 10.28-3.43c1.4-.46 34.5-11.02 54.14 23.77 12.33 21.83 27.51 34.32 37.24 40.65-1.46-.01-2.64-.04-3.12-.06-9.69-.38-18.74-3.29-26.31-6.08-19.93-7.35-37.53-3.86-47.08 9.35l-4.28 5.91c-16.97-.16-31.24 6.28-40.37 18.91l-6.35 8.78 8.08-7.22c1.1-.98 27.29-23.8 59.13.37 19.98 15.17 38.87 20.61 50.31 22.56-1.68.71-2.88 1.17-2.9 1.18-9.06 3.49-18.52 4.41-26.57 4.85-21.21 1.15-35.99 11.33-39.52 27.24l-1.58 7.12c-15.64 6.58-26.19 18.14-29.58 33.36L15 334.44l4.55-9.83c.62-1.34 15.6-32.68 54.43-23.09 24.36 6.01 43.85 3.52 55.13.77-1.08 1.12-1.93 1.99-2.19 2.23-6.94 6.8-15.26 11.39-22.48 14.98-19.02 9.46-28.55 24.66-25.49 40.67l1.37 7.17c-11.75 12.24-16.86 27.03-13.93 42.34l2.03 10.64.29-10.82c.04-1.48 1.4-36.18 40.82-42.78 24.77-4.14 41.66-14.15 50.93-21.14-.51 1.37-.95 2.48-1.13 2.92-3.67 8.98-9.49 16.5-14.7 22.66-13.72 16.22-16.44 33.96-7.29 47.44l4.1 6.04c-5.94 15.89-4.77 31.5 3.99 44.4l6.08 8.96-4.02-10.05c-.55-1.37-13.05-33.78 20.52-55.45 21.07-13.6 32.63-29.49 38.38-39.58.08 1.61.12 2.85.12 3.12.2 9.7-2.17 18.9-4.51 26.63-6.16 20.33-1.63 37.69 12.11 46.44l6.15 3.92c.84 16.95 8.11 30.81 21.26 39.18l9.14 5.82-7.69-7.64c-1.04-1.04-25.37-25.84-3.12-59.04 13.96-20.84 18.27-40.01 19.55-51.55.68 1.38 1.2 2.49 1.35 2.82 4.02 8.83 5.5 18.22 6.41 26.24 2.4 21.1 13.43 35.25 29.52 37.84l7.21 1.16c7.49 15.23 19.65 25.08 35.04 27.55l10.77 1.73-10.16-3.97c-.33-.13-33.53-13.62-26.27-52.97 4.56-24.68.92-43.98-2.49-55.08 1.17 1 2.09 1.81 2.36 2.05 7.19 6.51 12.27 14.54 16.28 21.55 8.86 15.46 21.36 24.01 34.48 24.01 2.52 0 5.07-.32 7.62-.96l7.07-1.79c9.77 8.34 20.78 12.79 32.11 12.79 3.64 0 7.31-.45 10.99-1.39l10.5-2.66-10.83.35c-1.41.08-36.2.75-45.11-38.22-5.6-24.47-16.59-40.75-24.11-49.59 1.53.47 2.7.86 2.98.95 9.18 3.13 17.03 8.49 23.49 13.33 9.65 7.23 19.58 10.89 28.72 10.89 6.96 0 13.48-2.12 19.06-6.42l5.78-4.45c5.64 1.74 11.21 2.66 16.58 2.66 10.06 0 19.45-3.07 27.51-9.26l8.59-6.6-9.8 4.62c-1.34.63-32.95 15.02-56.57-17.22-14.82-20.23-31.37-30.84-41.78-35.97 1.52-.16 2.72-.28 3.11-.31 9.66-.77 19 1.05 26.85 2.93 4.98 1.19 9.74 1.78 14.22 1.77 14.12 0 25.41-5.8 31.43-16.61l3.53-6.34c16.88-1.84 30.29-9.94 37.88-23.57l5.27-9.47-7.17 8.12Zm-156.68 94.27c-.98.98-1.99 1.93-3.01 2.87-2.04 1.88-4.14 3.7-6.3 5.44-2.43 1.96-4.94 3.84-7.52 5.61-.69.47-1.39.93-2.09 1.39-1.68 1.11-3.39 2.17-5.13 3.19-1.3.76-2.61 1.53-3.93 2.24-9.83 5.3-20.48 9.26-31.69 11.68-5.43 1.16-11.07 1.96-16.79 2.36l-1.1.08q-.945.075-1.89.12c-8.16.38-16.58-.06-24.84-1.37l-1.56-.25v.02c-.68-.12-1.36-.24-2.03-.36v-.03l-1-.2a121 121 0 0 1-16.33-4.47c-.98-.35-1.96-.7-2.94-1.07-7.69-2.92-15.14-6.66-22.14-11.13l-1.35-.86v.03c-.57-.37-1.13-.72-1.69-1.1l.02-.05-.83-.58a122 122 0 0 1-13.13-10.51l-.03-.02c-.78-.71-1.54-1.45-2.29-2.18l-.11-.11c-5.95-5.79-11.28-12.13-15.83-18.85l-.9-1.33-.02.03c-.36-.55-.71-1.1-1.06-1.66l.04-.03-.54-.85c-2.94-4.71-5.59-9.69-7.87-14.8l-.03-.06c-.46-1.04-.92-2.08-1.36-3.14-3.1-7.52-5.45-15.41-6.96-23.46l-.3-1.59-.08.04c-.11-.63-.24-1.26-.34-1.9l.08-.03-.15-.99c-.8-5.35-1.25-10.95-1.33-16.64v-1.11h-.03c0-.16-.01-.31-.01-.47q0-.6.03-1.2v-.27h.02v-.58c.14-8.15 1.09-16.29 2.84-24.19l.35-1.58h-.07c.14-.6.27-1.22.43-1.83h.07l.25-.96c1.38-5.3 3.15-10.57 5.26-15.67l.04-.11c.47-1.15.98-2.28 1.49-3.4 3.33-7.39 7.43-14.46 12.16-21.02l.95-1.31h-.02c.37-.51.76-.99 1.14-1.48h.01l.61-.78c2.1-2.7 4.31-5.3 6.6-7.79.03-.03.06-.06.08-.09 2.17-2.35 4.42-4.58 6.73-6.72l.02-.02c.06 0 .12.02.19.02.38 0 .73-.11 1.06-.29v.02l.4-.26-.02-.02s.04-.02.06-.04l.04-.07h.02-.02l.48-.78-.25-.31v-.02c.19-.17.39-.33.58-.5 1.04-.91 2.09-1.82 3.16-2.69.74-.6 1.49-1.18 2.25-1.77.95-.74 1.91-1.47 2.88-2.18.8-.58 1.6-1.15 2.41-1.72.98-.68 1.97-1.33 2.97-1.98.82-.53 1.64-1.07 2.47-1.59 1.08-.66 2.17-1.29 3.27-1.92a120 120 0 0 1 14.23-6.98c.58-.24 1.16-.46 1.74-.69 2.33-.92 4.67-1.76 7.01-2.52 2.15-.69 4.31-1.34 6.51-1.92 2.08-.54 4.17-1.04 6.28-1.48l.16-.03q3.18-.645 6.39-1.11c.52-.08 1.04-.13 1.56-.2 1.69-.23 3.38-.43 5.09-.59.65-.06 1.3-.1 1.96-.15 1.56-.12 3.12-.21 4.69-.27 1.51-.06 3.01-.12 4.54-.12.9 0 1.78.05 2.67.07 2.07.04 4.15.14 6.22.29.93.07 1.85.12 2.77.21 2.51.24 5.01.56 7.49.96 1.59.25 3.17.53 4.73.85.49.1.99.21 1.48.32 54.69 11.7 95.84 60.39 95.84 118.52 0 6.26-.48 12.42-1.4 18.43v.03c-3.61 23.54-14.04 44.86-29.18 61.91-1.73 1.95-3.51 3.85-5.36 5.68Zm-169.84 3.9s.01 0 .02.01c0 0-.02.02-.03.02v-.04ZM136 199.75c.15-.01.3-.03.44-.04-.04.1-.09.2-.14.3-.16-.08-.32-.16-.48-.25h.06c.04 0 .08 0 .12-.01m-9.64 48.85v.23c-.13 0-.25-.02-.38-.02.02-.01.03-.02.05-.03zm10.16 48.94s.04.09.06.13c-.07.03-.15.05-.23.08.06-.07.11-.14.17-.21m272.11-78.85c-8.13 1.41-17.63 3.49-26.5 8.18-.55.29-3.31 1.79-6.08 3.46-.24 0-.41.02-.65.02q-1.38.015-2.55.06c-.19 0-.44 0-.61.01-.74-5-1.79-9.98-3.13-14.84 6.93-2.88 20.45-6.86 38.65-4.61 17.62 2.18 27.62-6.26 32.73-13.2-6.72 15.29-25.5 19.8-31.85 20.91Zm34.16-29.89c-.32.95-7.89 23.19-34.75 19.85-18.71-2.33-32.52 1.76-39.69 4.73-.24-.81-.48-1.62-.73-2.42 5.45-3.7 13.5-8.01 13.58-8.06 12.6-6.67 26.21-9.64 37.86-11.66 9.8-1.71 18.45-4.67 25.77-8.66l-2.03 6.22Zm-25.46-12.19c28.87 3.57 43.5-12.49 49.84-22.82-3.7 11.91-12.1 19.89-21.07 25.24l.05-.49-.19.57c-10.59 6.28-21.95 8.9-27.31 9.83-11.83 2.06-25.66 5.08-38.55 11.89-.08.04-7.62 4.08-13.14 7.74-2.46-7.21-5.62-14.23-9.4-20.91.2-.37.43-.76.71-1.2.11-.18.19-.32.31-.51.46-.71 1.01-1.52 1.63-2.4 9.75-4.12 29.88-10.33 57.13-6.95Zm-33.37-18.55c-6.91 4.52-14.82 10.2-21.1 18.02-.43.53-2.35 3-4.21 5.59-.12.05-.21.1-.33.15-1.04.45-2 .9-2.9 1.34-.13.06-.28.13-.4.19-2.64-4.25-5.58-8.38-8.74-12.31 5.22-5.43 16.07-14.52 33.82-19.71 17.07-4.98 22.88-16.7 24.82-25.09-.11 16.69-15.56 28.28-20.95 31.82Zm19.52-40.97c.09.99 1.93 24.42-24.04 32-18.23 5.32-29.36 14.65-34.76 20.27-.53-.63-1.07-1.24-1.61-1.85 3.1-4.92 8.28-11.6 9.45-13.05 8.91-11.1 20.23-19.22 30.13-25.71 8.32-5.45 15.09-11.59 20.23-18.16l.6 6.52Zm-28.2-1.11c27.89-8.14 34.99-28.71 36.71-40.7 1.33 12.4-3.23 23.06-9.35 31.52l-.15-.47.05.6c-7.24 9.96-16.63 16.86-21.18 19.84-10.06 6.59-21.56 14.85-30.68 26.2-1.13 1.4-5.96 7.62-9.16 12.55-1.04-1.15-2.22-2.18-3.31-3.29-.77-.79-1.56-1.56-2.35-2.33-2.09-2.02-4.23-3.98-6.46-5.85-1.22-1.03-2.47-2.03-3.74-3.01-1.09-.85-2.1-1.79-3.22-2.6 6.35-7.51 22.85-23.7 52.82-32.45Zm-40.72-6.53c-4.55 6.89-9.56 15.24-12.22 24.9-.02.09-2.06 7.56-2.61 12.15-4.88-3.35-9.95-6.32-15.09-8.87 2.51-7.31 8.79-20.47 23.71-32.83 13.7-11.34 14.39-24.4 12.85-32.87 6.52 15.37-3.08 32.13-6.63 37.52Zm1.68-45.35c.48.88 11.44 21.66-9.39 38.9-15.32 12.67-21.76 26.16-24.37 33.74-.64-.3-1.3-.59-1.95-.88.79-6.42 3.69-17.16 3.72-17.27 3.79-13.74 10.96-25.68 17.48-35.55 5.48-8.3 9.26-16.62 11.37-24.69l3.13 5.75Zm-26.33 10.16c22.38-18.52 20.75-40.22 17.58-51.91 6.13 10.86 6.17 22.44 3.91 32.64l-.32-.37.28.52c-2.7 12.02-8.58 22.08-11.58 26.62-6.62 10.02-13.91 22.16-17.78 36.21-.03.11-2.74 10.15-3.69 16.79a123.4 123.4 0 0 0-24.67-7.54c1.82-6.99 9.68-30.96 36.26-52.97Zm-41.55 14.29c-1.45 8.13-2.73 17.79-1.36 27.7 0 .07.83 5.77 1.87 10.15-.79-.12-1.59-.18-2.39-.28-1.58-.21-3.17-.41-4.77-.57-1.14-.11-2.28-.18-3.43-.26-1.38-.09-2.76-.16-4.15-.21-.73-.02-1.46-.1-2.18-.11-.39-7.56.42-21.71 8.85-38.22 8.08-15.83 3.54-28.1-1.23-35.27 12.07 11.53 9.91 30.72 8.78 37.07Zm-16.42-42.3c.19.15 19.11 15.3 6.79 39.44-8.66 16.96-9.48 31.47-9.09 39.29-.8 0-1.6.04-2.4.06-1.48-5.61-2.82-14.16-3.08-16.09-1.97-14.1-.11-27.91 1.96-39.56 1.74-9.79 1.91-18.92.66-27.16l5.15 4.02Zm-32.49 82.52c-1.07-7.22-3.19-32.33 12.34-62.76 13.21-25.88 3.11-45.15-4.43-54.63 9.93 7.54 14.56 18.16 16.52 28.41l-.54-.26.58.45c2.28 12.09.86 23.64-.09 28.99-2.1 11.83-3.99 25.87-1.98 40.3.03.17 1.34 9.31 2.99 15.8-.15 0-.31.02-.46.03-1.48.07-2.94.18-4.4.29-.64.05-1.29.09-1.93.15-1.48.14-2.94.33-4.4.52-.66.09-1.31.15-1.97.25-1.32.2-2.63.44-3.94.68-.79.14-1.58.27-2.37.42-1.15.23-2.29.51-3.43.78-.83.19-1.66.35-2.48.56ZM192.4 97.09c2.53 7.86 5.91 16.99 11.79 25.11.08.12 4.03 5.52 7.16 8.91-.59.19-1.17.45-1.76.65q-2.46.855-4.86 1.8c-.66.26-1.32.51-1.98.78-2.41 1-4.78 2.07-7.11 3.22l-.21.09c-4.05-6.53-10.23-19.57-10.54-38.62-.28-17.78-10.04-26.49-17.62-30.58 16.07 4.53 23.15 22.5 25.13 28.63Zm-34.33-29.68c.98.18 24.06 4.61 24.48 31.66.31 19.52 6.63 32.88 10.81 39.66-.66.34-1.34.67-2 1.02-3.99-4.19-9.55-11.6-10.77-13.3-8.35-11.55-13.18-24.62-16.8-35.87-3.05-9.47-7.2-17.62-12.18-24.32zm-38.06-19.28c12.31 2.01 21.37 9.22 27.91 17.36l-.49.02.58.1c7.69 9.62 11.86 20.5 13.53 25.68 3.68 11.43 8.59 24.7 17.14 36.52 1.2 1.67 6.5 8.74 10.54 13.1-.66.37-1.3.79-1.95 1.17-.76.45-1.52.9-2.27 1.37-.97.6-1.93 1.22-2.88 1.85-.78.52-1.56 1.04-2.34 1.58q-1.365.945-2.7 1.92c-.78.57-1.56 1.16-2.33 1.75-.86.66-1.71 1.33-2.56 2.01-.77.63-1.53 1.27-2.29 1.91-.54.46-1.11.9-1.64 1.38-4.36-5.78-18.19-26.84-18.74-61.54-.46-29.05-18.41-41.34-29.52-46.18Zm11.28 89.64c5.98 5.69 13.3 12.09 22.36 16.43.08.04 6.9 3.27 11.32 4.66l-.19.18h.04c-.18.18-.35.37-.52.54-3.99 3.84-7.71 7.94-11.16 12.28-6.61-3.8-18.2-12.3-27.51-28.79-8.71-15.42-21.37-18.44-29.98-18.44h-.11c16.28-3.7 31.09 8.7 35.76 13.15Zm-44.35-9.66c.23-.08 23.31-7.49 36.64 16.11 9.47 16.78 21.23 25.48 28.11 29.47-.48.63-.95 1.26-1.42 1.89-6.24-2.09-15.23-6.33-15.32-6.38-12.85-6.15-23.34-15.32-31.91-23.48-7.2-6.85-14.72-12.04-22.28-15.55l6.19-2.07Zm5.36 27.71c-12.59-22.29-30.89-26.67-43.32-26.67-1.68 0-3.25.08-4.68.21 11.78-4.11 23.19-2.11 32.82 1.91l-.52.31.7-.23c11.34 4.77 20.18 12.33 24.12 16.08 8.7 8.28 19.37 17.6 32.51 23.89.09.04 8.58 4.06 14.92 6.26-4.33 6.15-8.11 12.7-11.27 19.6-.04 0-.07.02-.12.02-.1.02-.22.03-.33.05-.23.03-.5.07-.79.1-.16.02-.33.03-.52.05-.36.03-.79.06-1.24.09-.18.01-.33.02-.53.03-.62.03-1.35.06-2.15.07-9.11-5.38-26.09-17.85-39.6-41.78Zm4.96 37.86c7.75 2.86 17.02 5.83 27.04 6.23.04 0 3.35.12 6.99.05.1.06.17.1.27.15.64.37 1.24.7 1.79 1 .17.09.33.18.49.27.53.28 1.02.54 1.44.75.03.02.08.04.12.06-1.86 4.57-3.45 9.28-4.75 14.1-7.57-.89-21.51-4.13-36.49-15.5-7.79-5.91-15.18-7.87-21.58-7.87-5.24 0-9.8 1.32-13.36 2.87 13.48-9.86 31.99-4.34 38.04-2.11m-44.54 8.71c.18-.16 18.44-16.11 40.01.27 15.26 11.58 29.43 14.94 37.31 15.9-.19.77-.36 1.55-.54 2.33-5.73.47-14.33.29-16.44.2-14.23-.56-27.5-4.82-38.6-8.91-9.32-3.44-18.28-5.22-26.62-5.44l4.86-4.36Zm-15.3 11.93c-9.75 0-17.88 3.16-23.35 6.12 9.18-8.45 20.45-11.13 30.89-11.25l-.35.49.55-.49c12.3-.11 23.42 3.32 28.52 5.2 11.27 4.16 24.76 8.49 39.32 9.06.1 0 9.29.32 15.97-.15-1.52 7.3-2.36 14.84-2.53 22.55-.03.02-.04.03-.07.05-.06.03-.12.07-.18.11-.23.14-.51.3-.82.47-.11.06-.21.12-.33.18-.37.2-.8.42-1.28.66-.1.05-.17.09-.28.14-.55.27-1.21.58-1.92.91-10.5-1.33-31.02-6.04-52.92-22.66-11.26-8.55-21.96-11.39-31.2-11.39Zm50.75 44.18c8.24-.45 17.93-1.39 27.29-5 .79-.31 3.62-1.45 6.44-2.72.13.02.23.02.35.04.69.08 1.33.15 1.92.2.21.02.4.04.6.05.61.05 1.17.09 1.64.12.11 5.04.5 10.01 1.2 14.89-7.31 2.15-21.32 4.66-39.49.18-17.25-4.25-28.17 2.97-34.06 9.25 8.46-14.39 27.65-16.66 34.09-17.01Zm-37.44 25.65c.42-.91 10.58-22.08 36.85-15.61 18.49 4.56 32.79 2.07 40.39-.14.13.8.28 1.6.43 2.4-5.81 3.07-14.76 6.58-14.85 6.61-13.29 5.13-27.16 6.47-38.97 7.11-9.93.54-18.87 2.46-26.61 5.56l2.75-5.93Zm23.84 15.11c-28.18-6.96-44.67 7.27-52.17 16.78 5.08-11.4 14.36-18.33 23.9-22.58l-.11.48.25-.54c11.26-4.98 22.84-6.24 28.28-6.54 12-.65 26.09-2.02 39.68-7.26.09-.04 8.52-3.34 14.44-6.38 1.53 7.53 3.78 14.8 6.61 21.77-.24.35-.5.72-.84 1.15-.14.18-.24.33-.4.53-.59.72-1.3 1.55-2.1 2.44-10.18 2.94-30.88 6.73-57.55.16Zm30.95 22.35c7.39-3.67 15.91-8.37 23.07-15.4.45-.44 2.65-2.66 4.83-5.05l.36-.11c.59-.18 1.14-.35 1.64-.51.25-.08.48-.16.71-.23.41-.14.77-.26 1.11-.38.09-.03.21-.07.29-.1 2.09 4.57 4.44 9 7.05 13.25-5.84 4.83-17.71 12.62-36.04 15.69-17.53 2.93-24.69 13.88-27.6 21.98 2.08-16.57 18.78-26.25 24.56-29.12Zm-24.21 38.38c.03-1 .97-24.47 27.64-28.93 18.7-3.13 30.82-11.03 36.92-16.03.45.7.88 1.4 1.34 2.09-4.13 5.09-10.81 11.73-10.88 11.8-10.18 9.98-22.37 16.71-32.96 21.98-8.9 4.43-16.35 9.73-22.23 15.65l.18-6.54Zm27.87 4.43c-28.66 4.79-38.14 24.38-41.25 36.08.14-12.47 5.92-22.51 13-30.2l.09.48.02-.6c8.36-9.04 18.5-14.79 23.37-17.21 10.76-5.35 23.15-12.19 33.56-22.4.07-.06 6.41-6.36 10.64-11.46 4.38 6.27 9.33 12.13 14.77 17.48-.08.39-.18.81-.31 1.29-.06.24-.1.43-.18.68-.24.84-.55 1.82-.91 2.89-8.17 6.73-25.67 18.42-52.78 22.96Zm26.27 44.74c-4.66-16.03 6.84-31.55 11-36.48 5.33-6.3 11.29-14 15.08-23.29.32-.8 1.44-3.66 2.44-6.56.15-.12.26-.24.41-.36.83-.7 1.61-1.39 2.35-2.07.11-.1.23-.2.34-.3 3.73 3.37 7.68 6.5 11.79 9.41-3.46 6.7-11.27 18.49-26.78 28.51-14.94 9.64-17.17 22.54-16.63 31.13Zm3.99 8.36c-.37-.93-8.81-22.86 13.92-37.52 15.79-10.19 23.79-22.16 27.42-29.12.69.47 1.41.9 2.11 1.36-1.78 6.26-5.22 14.85-5.25 14.94-5.38 13.18-13.91 24.2-21.55 33.24-6.42 7.59-11.16 15.41-14.21 23.18l-2.43-6.08Zm27.34-6.98c-24.41 15.75-25.34 37.49-23.57 49.48-4.81-11.51-3.49-23.02-.04-32.88l.27.4-.22-.54c4.1-11.61 11.13-20.91 14.64-25.07 7.76-9.18 16.43-20.38 21.93-33.86.04-.09 3.29-8.2 5.15-14.5 6.5 4.03 13.4 7.47 20.63 10.26.07.4.14.83.21 1.32.03.2.06.35.08.57a85 85 0 0 1 .28 2.83c-4.83 9.41-16.28 27.1-39.37 42Zm37.5-7.19c2.4-7.9 4.82-17.33 4.61-27.35 0-.46-.11-3.65-.36-6.99.11-.21.17-.36.27-.57.45-.91.85-1.75 1.19-2.51.06-.13.15-.3.2-.42 4.76 1.62 9.63 2.98 14.62 4.02-.56 7.49-3.09 21.31-13.27 36.51-9.89 14.77-6.83 27.49-2.93 35.17-10.63-12.87-6.22-31.67-4.35-37.85Zm11.32 43.94c-.7-.7-17.14-17.49-2.09-39.96 10.39-15.52 13.01-29.61 13.62-37.39.84.16 1.68.31 2.53.45.73 5.73 1.03 13.76 1.06 15.54.28 14.25-3.18 27.74-6.62 39.06-2.89 9.52-4.13 18.57-3.86 26.91l-4.64-4.62Zm22.34-17.24c-16.17 24.13-8.41 44.46-2.04 54.76-8.98-8.66-12.32-19.75-13.06-30.17l.41.26-.42-.42c-.84-12.28 1.93-23.6 3.51-28.81 3.48-11.5 7.01-25.21 6.72-39.78 0-.09-.21-8.54-.99-15.12 5.83.85 11.78 1.31 17.84 1.31 1.76 0 3.51-.06 5.25-.13.21.32.43.66.66 1.06.11.19.22.35.34.56.4.68.83 1.47 1.28 2.32-.71 10.55-4.21 31.32-19.5 54.17Zm31.58-21.46c-.93-8.2-2.45-17.82-6.6-26.94-.19-.41-1.51-3.26-3.1-6.29.01-.24.01-.41.02-.64.05-1 .09-1.91.1-2.74 0-.11.01-.25.01-.35 5.11-.41 10.15-1.11 15.07-2.13 2.43 7.07 5.56 20.73 2.24 38.65-3.23 17.48 4.62 27.95 11.25 33.45-14.86-7.61-18.27-26.62-18.99-33.03Zm27.82 35.86c-.93-.37-22.67-9.27-17.76-35.86 3.38-18.31.23-32.26-2.27-39.6.84-.19 1.69-.38 2.53-.59 3.33 5.65 7.03 13.65 7.07 13.73 5.9 12.96 8.07 26.73 9.4 38.48 1.12 9.88 3.57 18.69 7.12 26.24zm13.67-24.69c-5.28 28.57 9.9 44.16 19.84 51.09-11.68-4.39-19.15-13.25-23.96-22.53l.48.08-.55-.22c-5.64-10.94-7.58-22.44-8.2-27.84-1.35-11.93-3.55-25.92-9.59-39.18-.04-.08-3.53-7.65-6.82-13.35 1.06-.28 2.1-.62 3.15-.93.52-.16 1.05-.3 1.56-.46 1.66-.52 3.3-1.08 4.94-1.67.19-.07.39-.13.58-.2 3.89-1.43 7.72-3.04 11.47-4.86.34.23.68.46 1.07.75.14.1.27.19.42.3.62.46 1.31 1 2.05 1.59 3.54 9.97 8.55 30.43 3.56 57.45Zm20.49-32.22c-4.11-7.17-9.32-15.4-16.74-22.12-.33-.3-2.68-2.38-5.33-4.53l-.08-.21c-.38-1.03-.73-1.94-1.07-2.76-.05-.12-.1-.28-.15-.39 3.53-1.88 6.96-4.01 10.31-6.24.23-.16.47-.31.7-.46.65-.44 1.33-.85 1.97-1.3 5.02 5.53 13.29 16.83 17.35 34.56 3.96 17.33 15.32 23.83 23.58 26.26-16.66-1.1-27.32-17.2-30.52-22.8Zm39.75 21.9c-1.07.09-24.5.46-30.52-25.88-4.15-18.15-12.59-29.72-17.78-35.45a80 80 0 0 0 2.07-1.57c4.69 3.42 10.66 8.65 11.95 9.83 10.55 9.55 18 21.34 23.89 31.6 4.95 8.63 10.68 15.75 16.93 21.27l-6.53.21Zm41.22 10.97c-12.51.61-22.88-4.56-30.96-11.18l.52-.13-.65.02c-9.49-7.82-15.79-17.61-18.49-22.32-5.98-10.42-13.55-22.4-24.34-32.17-1.25-1.14-6.86-6.06-11.53-9.54.43-.34.81-.74 1.23-1.08 1.92-1.58 3.79-3.23 5.61-4.93 1.11-1.02 2.2-2.05 3.27-3.12 1.62-1.61 3.18-3.28 4.71-4.98.61-.67 1.28-1.29 1.87-1.97.38.07.78.15 1.23.25.19.04.34.07.54.12.75.18 1.6.4 2.51.65 7.2 7.76 19.91 24.55 26.03 51.34 6.48 28.32 26.59 36.62 38.46 39.05Zm-32.41-76.75c-6.61-4.95-14.64-10.44-24.13-13.67-.48-.16-3.5-1.16-6.69-2.05-.07-.08-.12-.12-.19-.2-.74-.78-1.42-1.46-2.05-2.08-.08-.08-.19-.2-.27-.28 3.18-3.99 6.11-8.18 8.75-12.49 6.79 3.08 18.86 10.18 29.6 24.84 10.51 14.35 23.53 15.81 32.05 14.76-15.74 5.59-31.9-4.97-37.06-8.84Zm45.17 4.36c-.9.42-22.29 10.15-38.27-11.67-11.03-15.05-23.39-22.32-30.41-25.52.44-.74.87-1.49 1.29-2.24 6.4 1.45 14.8 4.26 14.89 4.29 13.49 4.6 24.99 12.46 34.45 19.55 7.98 5.97 16.07 10.21 24.02 12.79l-5.96 2.8Zm-8.58-26.89c17.17 23.43 38.93 23.09 50.78 20.61-11.21 5.48-22.77 4.84-32.82 1.98l.39-.3-.54.25c-11.83-3.4-21.53-9.87-25.89-13.13-9.61-7.2-21.3-15.19-35.1-19.89-.08-.03-7.94-2.66-14.34-4.18.62-1.17 1.12-2.41 1.7-3.6.4-.82.79-1.65 1.17-2.48a120 120 0 0 0 4.58-11.31c.46-1.33 1.03-2.64 1.44-3.99.39-.09.8-.18 1.27-.27.18-.03.33-.07.52-.1.76-.14 1.63-.27 2.57-.4 9.68 4.27 28.01 14.64 44.25 36.82Zm-9.39-37.01c-6.73-1.61-14.52-3.18-22.75-3.18-1.6 0-3.21.06-4.83.19-.04 0-3.33.27-6.96.77-.2-.09-.35-.14-.55-.22-.87-.37-1.68-.7-2.42-.98l-.41-.17c1.3-4.89 2.32-9.9 3.01-14.92 7.48.13 21.41 1.84 37.14 11.08 15.33 9 27.84 5.2 35.28.86-12.22 11.37-31.26 8.08-37.52 6.57Zm43.2-13.9c-.66.75-16.45 18.15-39.77 4.45-16.13-9.47-30.38-11.24-38.13-11.38.1-.85.22-1.7.3-2.55 6.43-1.21 15.37-1.97 15.46-1.98 14.22-1.11 27.88 1.54 39.38 4.3 7.22 1.73 14.14 2.58 20.63 2.58 2.22 0 4.37-.14 6.48-.34l-4.36 4.93Zm6.91-7.66.24-.42-.39.44c-12.21 1.57-23.68-.53-28.97-1.8-9.79-2.35-21.13-4.63-33.1-4.63-2.31 0-4.66.09-7.01.27-1.84.14-9.27.86-14.97 1.87.27-3.4.41-6.62.41-9.81 0-4.27-.25-8.73-.73-13.25.33-.25.68-.5 1.09-.78.16-.11.28-.2.44-.31.67-.45 1.46-.94 2.32-1.47 10.58.08 31.52 2.35 55.21 16.27 25.05 14.71 44.89 5.78 54.8-1.2-8.11 9.47-18.99 13.46-29.34 14.81Z"/><g fill="#fff"><path d="M309.59 331.89a1.779 1.779 0 1 1-2.22 2.78 1.779 1.779 0 0 1 2.22-2.78m54.87-81.88a1.779 1.779 0 1 1-2.22 2.78 1.779 1.779 0 0 1 2.22-2.78m-16.16-48.19a1.779 1.779 0 1 1-2.22 2.78 1.779 1.779 0 0 1 2.22-2.78m3.3 111.01a1.779 1.779 0 1 1-2.22 2.78 1.779 1.779 0 0 1 2.22-2.78m-82.11 43.8a1.779 1.779 0 1 1-2.22 2.78 1.779 1.779 0 0 1 2.22-2.78m8.3-7.57a1.779 1.779 0 1 1-2.22 2.78 1.779 1.779 0 0 1 2.22-2.78m30.01-13.93a1.779 1.779 0 1 1-2.22 2.78 1.779 1.779 0 0 1 2.22-2.78m22.18-12.27a1.779 1.779 0 1 1-2.22 2.78 1.779 1.779 0 0 1 2.22-2.78m-4.75 8.82a1.779 1.779 0 1 1-2.22 2.78 1.779 1.779 0 0 1 2.22-2.78m-8.17-6.33a1.779 1.779 0 1 1-2.22 2.78 1.779 1.779 0 0 1 2.22-2.78m9.65-9.26a1.779 1.779 0 1 1-2.22 2.78 1.779 1.779 0 0 1 2.22-2.78m8.63-7.97a1.779 1.779 0 1 1-2.22 2.78 1.779 1.779 0 0 1 2.22-2.78m5.8-10.14a1.779 1.779 0 1 1-2.22 2.78 1.779 1.779 0 0 1 2.22-2.78m4.13-13.74a1.779 1.779 0 1 1-2.22 2.78 1.779 1.779 0 0 1 2.22-2.78m3.03-12.35a1.779 1.779 0 1 1-2.22 2.78 1.779 1.779 0 0 1 2.22-2.78m11.95 1.78a1.779 1.779 0 1 1-2.22 2.78 1.779 1.779 0 0 1 2.22-2.78m-4.87 9.26a1.779 1.779 0 1 1-2.22 2.78 1.779 1.779 0 0 1 2.22-2.78m1.77-22.15a1.779 1.779 0 1 1-2.22 2.78 1.779 1.779 0 0 1 2.22-2.78m-3.77 35.58a1.779 1.779 0 1 1-2.22 2.78 1.779 1.779 0 0 1 2.22-2.78m6.87-84.37a1.779 1.779 0 1 1-2.22 2.78 1.779 1.779 0 0 1 2.22-2.78m-28.26 88.92a1.779 1.779 0 1 1-2.22 2.78 1.779 1.779 0 0 1 2.22-2.78m-13.57 17.04a1.779 1.779 0 1 1-2.22 2.78 1.779 1.779 0 0 1 2.22-2.78m-79.44 13.51a1.779 1.779 0 1 1-2.22 2.78 1.779 1.779 0 0 1 2.22-2.78m110.67-24.73a1.779 1.779 0 1 1-2.22 2.78 1.779 1.779 0 0 1 2.22-2.78m-4.7 8.74a1.779 1.779 0 1 1-2.22 2.78 1.779 1.779 0 0 1 2.22-2.78"/><path d="M280.42 348.09c.3.93-.21 1.93-1.15 2.23-.93.3-1.93-.22-2.23-1.15s.21-1.93 1.15-2.23c.93-.3 1.93.22 2.23 1.15m17.51-19.12c.3.93-.22 1.93-1.15 2.23s-1.93-.22-2.23-1.15.21-1.93 1.15-2.23c.93-.3 1.93.22 2.23 1.15m-17.51 31.89c.3.93-.21 1.93-1.15 2.23-.93.3-1.93-.22-2.23-1.15s.21-1.93 1.15-2.23c.93-.3 1.93.22 2.23 1.15m-9.3-9.78c.3.93-.22 1.93-1.15 2.23s-1.93-.22-2.23-1.15.22-1.93 1.15-2.23 1.93.22 2.23 1.15m4.23-18.44c.3.93-.21 1.93-1.15 2.23-.93.3-1.93-.22-2.23-1.15s.22-1.93 1.15-2.23 1.93.22 2.23 1.15m-75.28 10.37c0 .98-.8 1.78-1.78 1.78s-1.78-.8-1.78-1.78.8-1.78 1.78-1.78 1.78.8 1.78 1.78m3.96 5.94c0 .98-.8 1.78-1.78 1.78s-1.78-.8-1.78-1.78.8-1.78 1.78-1.78 1.78.8 1.78 1.78"/><circle cx="229.75" cy="348.94" r="1.78"/><path d="M185.85 344.68c0 .98-.8 1.78-1.78 1.78s-1.78-.8-1.78-1.78.8-1.78 1.78-1.78 1.78.8 1.78 1.78m34.19 9.78c0 .98-.8 1.78-1.78 1.78s-1.78-.8-1.78-1.78.8-1.78 1.78-1.78 1.78.8 1.78 1.78m26.3 7.76c.3.93-.21 1.93-1.15 2.23-.93.3-1.93-.22-2.23-1.15s.21-1.93 1.15-2.23c.93-.3 1.93.22 2.23 1.15m-19.11-1.36c.3.93-.22 1.93-1.15 2.23s-1.93-.22-2.23-1.15.22-1.93 1.15-2.23 1.93.22 2.23 1.15m20.34-13.43c.3.93-.22 1.93-1.15 2.23s-1.93-.22-2.23-1.15.22-1.93 1.15-2.23 1.93.22 2.23 1.15"/><circle cx="221.71" cy="356.43" r="1.78"/><path d="M238.72 352.14c.3.93-.22 1.93-1.15 2.23s-1.93-.21-2.23-1.15c-.3-.93.22-1.93 1.15-2.23s1.93.22 2.23 1.15m18.92 5.58c.3.93-.22 1.93-1.15 2.23s-1.93-.22-2.23-1.15.22-1.93 1.15-2.23 1.93.22 2.23 1.15m32.63-10.92c.3.93-.22 1.93-1.15 2.23s-1.93-.22-2.23-1.15.22-1.93 1.15-2.23 1.93.22 2.23 1.15m-100.41-9.5c0 .98-.8 1.78-1.78 1.78s-1.78-.8-1.78-1.78.8-1.78 1.78-1.78 1.78.8 1.78 1.78m-16.39-7.99c0 .98-.8 1.78-1.78 1.78s-1.78-.8-1.78-1.78.8-1.78 1.78-1.78 1.78.8 1.78 1.78m129.97 15.14c.3.93-.21 1.93-1.15 2.23-.93.3-1.93-.22-2.23-1.15s.22-1.93 1.15-2.23 1.93.21 2.23 1.15m11.59-1.85c.3.93-.22 1.93-1.15 2.23s-1.93-.22-2.23-1.15.21-1.93 1.15-2.23c.93-.3 1.93.22 2.23 1.15m10.45-5.22c.3.93-.22 1.93-1.15 2.23s-1.93-.22-2.23-1.15.22-1.93 1.15-2.23 1.93.22 2.23 1.15m43.12-102.04c.3.93-.22 1.93-1.15 2.23s-1.93-.21-2.23-1.15c-.3-.93.22-1.93 1.15-2.23s1.93.21 2.23 1.15m-32.06 92.9c.3.93-.22 1.93-1.15 2.23s-1.93-.22-2.23-1.15.21-1.93 1.15-2.23c.93-.3 1.93.22 2.23 1.15m9.37-8.6c.3.93-.22 1.93-1.15 2.23s-1.93-.21-2.23-1.15c-.3-.93.22-1.93 1.15-2.23s1.93.22 2.23 1.15m-3.46-3.88c.3.93-.22 1.93-1.15 2.23s-1.93-.22-2.23-1.15.21-1.93 1.15-2.23c.93-.3 1.93.22 2.23 1.15m-26.2 18.99c.3.93-.22 1.93-1.15 2.23s-1.93-.22-2.23-1.15.22-1.93 1.15-2.23 1.93.22 2.23 1.15m-24.2 22.72c.3.93-.21 1.93-1.15 2.23-.93.3-1.93-.22-2.23-1.15s.21-1.93 1.15-2.23c.93-.3 1.93.22 2.23 1.15m-141.4-52.79c0 .98-.8 1.78-1.78 1.78s-1.78-.8-1.78-1.78.8-1.78 1.78-1.78 1.78.8 1.78 1.78m8.93 10.19c0 .98-.8 1.78-1.78 1.78s-1.78-.8-1.78-1.78.8-1.78 1.78-1.78 1.78.8 1.78 1.78M295.5 341.4c.3.93-.21 1.93-1.15 2.23-.93.3-1.93-.22-2.23-1.15s.22-1.93 1.15-2.23 1.93.22 2.23 1.15m11.11 8.6c.3.93-.22 1.93-1.15 2.23s-1.93-.22-2.23-1.15.22-1.93 1.15-2.23 1.93.22 2.23 1.15m-17.63-26.2c.3.93-.21 1.93-1.15 2.23-.93.3-1.93-.22-2.23-1.15s.21-1.93 1.15-2.23c.93-.3 1.93.22 2.23 1.15m-16.1 21.12c.3.93-.22 1.93-1.15 2.23s-1.93-.22-2.23-1.15.21-1.93 1.15-2.23c.93-.3 1.93.22 2.23 1.15m-8.76 4.67c.3.93-.21 1.93-1.15 2.23-.93.3-1.93-.22-2.23-1.15s.22-1.93 1.15-2.23 1.93.22 2.23 1.15"/></g></svg>